<svg width="25" height="24" viewBox="0 0 25 24" fill="none" xmlns="http://www.w3.org/2000/svg">
<path d="M15.6113 2.88477C15.6868 3.87077 15.375 4.84738 14.7421 5.60718C14.439 5.98414 14.0543 6.28741 13.6171 6.49416C13.1798 6.7009 12.7013 6.80573 12.2176 6.80076C12.1868 6.3266 12.2497 5.85101 12.4027 5.40117C12.5558 4.95133 12.796 4.53607 13.1096 4.17913C13.7511 3.44848 14.6443 2.98633 15.6113 2.88477Z" fill="black"/>
<path d="M17.3752 10.0612C17.0538 10.6273 16.8809 11.2656 16.8725 11.9166C16.8733 12.6488 17.0896 13.3647 17.4945 13.9748C17.8994 14.5849 18.4749 15.0624 19.1493 15.3476C18.8842 16.209 18.4845 17.023 17.9651 17.7595C17.2675 18.803 16.5361 19.8224 15.3753 19.8413C14.8232 19.854 14.4506 19.6952 14.0622 19.5298C13.6572 19.3573 13.2351 19.1775 12.5746 19.1775C11.8741 19.1775 11.4331 19.3631 11.0078 19.542C10.6403 19.6967 10.2844 19.8465 9.78296 19.8673C8.67745 19.9082 7.83259 18.7536 7.10968 17.7199C5.66479 15.609 4.53971 11.7709 6.04804 9.15942C6.39625 8.5337 6.90061 8.00884 7.51197 7.636C8.12334 7.26315 8.82086 7.05502 9.53657 7.0319C10.1636 7.019 10.7652 7.26066 11.2927 7.47253C11.6961 7.63457 12.0561 7.77918 12.3509 7.77918C12.6101 7.77918 12.9601 7.64028 13.3679 7.4784C14.0104 7.2234 14.7966 6.91139 15.5977 6.99549C16.2116 7.0147 16.8127 7.1768 17.353 7.46892C17.8934 7.76104 18.3581 8.17513 18.7105 8.67831C18.1559 9.01927 17.6965 9.49497 17.3752 10.0612Z" fill="black"/>
</svg>
