<svg width="24" height="25" viewBox="0 0 24 25" fill="none" xmlns="http://www.w3.org/2000/svg">
<path d="M19 18.5V9C19 7.59554 19 6.89331 18.6629 6.38886C18.517 6.17048 18.3295 5.98298 18.1111 5.83706C17.9364 5.72033 17.738 5.64403 17.4949 5.59415C16.7502 5.44135 16.3779 5.36495 15.8353 5.57073C15.2926 5.77651 14.9617 6.21767 14.3 7.1L14 7.5H10L9.7 7.1C9.03825 6.21767 8.70738 5.77651 8.16474 5.57073C7.6221 5.36495 7.24975 5.44135 6.50507 5.59415C6.26198 5.64403 6.06356 5.72033 5.88886 5.83706C5.67048 5.98298 5.48298 6.17048 5.33706 6.38886C5 6.89331 5 7.59554 5 9V18.5C5 20.3856 5 21.3284 5.58579 21.9142C6.17157 22.5 7.11438 22.5 9 22.5H15C16.8856 22.5 17.8284 22.5 18.4142 21.9142C19 21.3284 19 20.3856 19 18.5Z" fill="#FD9341"/>
<path d="M15.5 5.5C16.9045 5.5 17.6067 5.5 18.1111 5.83706C18.3295 5.98298 18.517 6.17048 18.6629 6.38886C19 6.89331 19 7.59554 19 9V18.5C19 20.3856 19 21.3284 18.4142 21.9142C17.8284 22.5 16.8856 22.5 15 22.5H9C7.11438 22.5 6.17157 22.5 5.58579 21.9142C5 21.3284 5 20.3856 5 18.5V9C5 7.59554 5 6.89331 5.33706 6.38886C5.48298 6.17048 5.67048 5.98298 5.88886 5.83706C6.39331 5.5 7.09554 5.5 8.5 5.5" stroke="#1450A3" stroke-width="1.2"/>
<path d="M9 5.5C9 4.39543 9.89543 3.5 11 3.5H13C14.1046 3.5 15 4.39543 15 5.5C15 6.60457 14.1046 7.5 13 7.5H11C9.89543 7.5 9 6.60457 9 5.5Z" stroke="#1450A3" stroke-width="1.2"/>
<path d="M9 12.5L15 12.5" stroke="#1450A3" stroke-width="1.2" stroke-linecap="round"/>
<path d="M9 16.5L13 16.5" stroke="#1450A3" stroke-width="1.2" stroke-linecap="round"/>
</svg>
