<svg width="20" height="20" viewBox="0 0 20 20" fill="none" xmlns="http://www.w3.org/2000/svg">
<g clip-path="url(#clip0_1789_2786)">
<path d="M10.0001 0.0410156C4.47724 0.0410156 0 4.51825 0 10.0411C0 14.9944 3.60522 19.0966 8.33225 19.8909V12.1274H5.91994V9.33356H8.33225V7.27352C8.33225 4.88328 9.79213 3.58074 11.9247 3.58074C12.9461 3.58074 13.8238 3.65685 14.0786 3.69037V6.18881L12.5995 6.18952C11.44 6.18952 11.2165 6.74041 11.2165 7.54908V9.33213H13.9832L13.6223 12.1259H11.2165V19.9578C16.1642 19.3556 20 15.1489 20 10.0382C20 4.51825 15.5228 0.0410156 10.0001 0.0410156Z" fill="#010002"/>
</g>
<defs>
<clipPath id="clip0_1789_2786">
<rect width="20" height="20" fill="white"/>
</clipPath>
</defs>
</svg>
