<svg width="25" height="24" viewBox="0 0 25 24" fill="none" xmlns="http://www.w3.org/2000/svg">
<path d="M11 20.9C6.75 20.15 3.5 16.45 3.5 12C3.5 7.05 7.55 3 12.5 3C17.45 3 21.5 7.05 21.5 12C21.5 16.45 18.25 20.15 14 20.9L13.5 20.5H11.5L11 20.9Z" fill="url(#paint0_linear_1818_1261)"/>
<path d="M16 14.5L16.4 12H14V10.25C14 9.55 14.25 9 15.35 9H16.5V6.7C15.85 6.6 15.15 6.5 14.5 6.5C12.45 6.5 11 7.75 11 10V12H8.75V14.5H11V20.85C11.5 20.95 12 21 12.5 21C13 21 13.5 20.95 14 20.85V14.5H16Z" fill="white"/>
<defs>
<linearGradient id="paint0_linear_1818_1261" x1="12.5" y1="20.377" x2="12.5" y2="3" gradientUnits="userSpaceOnUse">
<stop stop-color="#0062E0"/>
<stop offset="1" stop-color="#19AFFF"/>
</linearGradient>
</defs>
</svg>
