<svg width="24" height="24" viewBox="0 0 24 24" fill="none" xmlns="http://www.w3.org/2000/svg">
<path fill-rule="evenodd" clip-rule="evenodd" d="M20.16 12.1927C20.16 11.59 20.1059 11.0105 20.0055 10.4541H12V13.7421H16.5746C16.3775 14.8046 15.7786 15.7048 14.8784 16.3075V18.4403H17.6255C19.2327 16.9605 20.16 14.7814 20.16 12.1927Z" fill="#4285F4"/>
<path fill-rule="evenodd" clip-rule="evenodd" d="M12 20.5002C14.295 20.5002 16.2191 19.7391 17.6254 18.4409L14.8784 16.3082C14.1173 16.8182 13.1436 17.1196 12 17.1196C9.78611 17.1196 7.91224 15.6243 7.24383 13.6152H4.40405V15.8175C5.80269 18.5955 8.67724 20.5002 12 20.5002Z" fill="#34A853"/>
<path fill-rule="evenodd" clip-rule="evenodd" d="M7.24387 13.6149C7.07387 13.1049 6.97728 12.5601 6.97728 11.9999C6.97728 11.4397 7.07387 10.8949 7.24387 10.3849V8.18262H4.40409C3.82841 9.33012 3.5 10.6283 3.5 11.9999C3.5 13.3715 3.82841 14.6697 4.40409 15.8172L7.24387 13.6149Z" fill="#FBBC05"/>
<path fill-rule="evenodd" clip-rule="evenodd" d="M12 6.88069C13.2479 6.88069 14.3684 7.30955 15.2493 8.15183L17.6873 5.71387C16.2152 4.34227 14.2911 3.5 12 3.5C8.67724 3.5 5.80269 5.40478 4.40405 8.18274L7.24383 10.385C7.91224 8.37592 9.78611 6.88069 12 6.88069Z" fill="#EA4335"/>
</svg>
