<svg width="82" height="65" viewBox="0 0 82 65" fill="none" xmlns="http://www.w3.org/2000/svg">
<path d="M43.2857 32.8563C43.2857 41.3537 40.8575 49.004 36.9827 54.5037C33.106 60.0061 27.8445 63.2849 22.1429 63.2849C16.4412 63.2849 11.1797 60.0061 7.30297 54.5037C3.4282 49.004 1 41.3537 1 32.8563C1 24.3589 3.4282 16.7086 7.30297 11.2089C11.1797 5.70649 16.4412 2.42773 22.1429 2.42773C27.8445 2.42773 33.106 5.70649 36.9827 11.2089C40.8575 16.7086 43.2857 24.3589 43.2857 32.8563Z" fill="white" stroke="black" stroke-width="2"/>
<path d="M81.0006 31.4286C81.0006 39.9259 78.5724 47.5763 74.6976 53.076C70.8209 58.5784 65.5593 61.8571 59.8577 61.8571C54.1561 61.8571 48.8945 58.5784 45.0178 53.076C41.143 47.5763 38.7148 39.9259 38.7148 31.4286C38.7148 22.9312 41.143 15.2808 45.0178 9.78117C48.8945 4.27875 54.1561 1 59.8577 1C65.5593 1 70.8209 4.27875 74.6976 9.78117C78.5724 15.2808 81.0006 22.9312 81.0006 31.4286Z" fill="white" stroke="black" stroke-width="2"/>
<ellipse cx="25.5714" cy="45.1429" rx="8.57143" ry="12.1429" fill="black"/>
<ellipse cx="63.2863" cy="45.1429" rx="8.57143" ry="12.1429" fill="black"/>
</svg>
