<svg width="24" height="24" viewBox="0 0 24 24" fill="none" xmlns="http://www.w3.org/2000/svg">
<g clip-path="url(#clip0_1906_16)">
<path d="M11.9998 15.4078C13.882 15.4078 15.4078 13.882 15.4078 11.9998C15.4078 10.1176 13.882 8.5918 11.9998 8.5918C10.1176 8.5918 8.5918 10.1176 8.5918 11.9998C8.5918 13.882 10.1176 15.4078 11.9998 15.4078Z" fill="#FD9341"/>
<path d="M12 8.59211V3.91211" stroke="white" stroke-width="1.1" stroke-linecap="round" stroke-linejoin="round"/>
<path d="M11.9999 3.91196C12.677 3.91196 13.2259 3.36306 13.2259 2.68596C13.2259 2.00886 12.677 1.45996 11.9999 1.45996C11.3228 1.45996 10.7739 2.00886 10.7739 2.68596C10.7739 3.36306 11.3228 3.91196 11.9999 3.91196Z" stroke="white" stroke-width="1.1" stroke-linecap="round" stroke-linejoin="round"/>
<path d="M12 15.4082V20.0882" stroke="white" stroke-width="1.1" stroke-linecap="round" stroke-linejoin="round"/>
<path d="M11.9999 22.5399C12.677 22.5399 13.2259 21.991 13.2259 21.3139C13.2259 20.6368 12.677 20.0879 11.9999 20.0879C11.3228 20.0879 10.7739 20.6368 10.7739 21.3139C10.7739 21.991 11.3228 22.5399 11.9999 22.5399Z" stroke="white" stroke-width="1.1" stroke-linecap="round" stroke-linejoin="round"/>
<path d="M9 12H4" stroke="white" stroke-width="1.1" stroke-linecap="round" stroke-linejoin="round"/>
<path d="M2.68596 13.2264C3.36306 13.2264 3.91196 12.6775 3.91196 12.0004C3.91196 11.3233 3.36306 10.7744 2.68596 10.7744C2.00886 10.7744 1.45996 11.3233 1.45996 12.0004C1.45996 12.6775 2.00886 13.2264 2.68596 13.2264Z" stroke="white" stroke-width="1.1" stroke-linecap="round" stroke-linejoin="round"/>
<path d="M15 12H20.088" stroke="white" stroke-width="1.1" stroke-linecap="round" stroke-linejoin="round"/>
<path d="M21.3139 13.2264C21.991 13.2264 22.5399 12.6775 22.5399 12.0004C22.5399 11.3233 21.991 10.7744 21.3139 10.7744C20.6368 10.7744 20.0879 11.3233 20.0879 12.0004C20.0879 12.6775 20.6368 13.2264 21.3139 13.2264Z" stroke="white" stroke-width="1.1" stroke-linecap="round" stroke-linejoin="round"/>
<path d="M18.1191 19.3446C18.7962 19.3446 19.3451 18.7957 19.3451 18.1186C19.3451 17.4415 18.7962 16.8926 18.1191 16.8926C17.442 16.8926 16.8931 17.4415 16.8931 18.1186C16.8931 18.7957 17.442 19.3446 18.1191 19.3446Z" stroke="white" stroke-width="1.1" stroke-linecap="round" stroke-linejoin="round"/>
<path d="M15.7832 15.7832L17.1702 17.1702" stroke="white" stroke-width="1.1" stroke-linecap="round" stroke-linejoin="round"/>
<path d="M5.88078 7.10727C6.55789 7.10727 7.10678 6.55837 7.10678 5.88127C7.10678 5.20417 6.55789 4.65527 5.88078 4.65527C5.20368 4.65527 4.65479 5.20417 4.65479 5.88127C4.65479 6.55837 5.20368 7.10727 5.88078 7.10727Z" stroke="white" stroke-width="1.1" stroke-linecap="round" stroke-linejoin="round"/>
<path d="M8.21708 8.21708L6.83008 6.83008" stroke="white" stroke-width="1.1" stroke-linecap="round" stroke-linejoin="round"/>
<path d="M18.1191 7.10727C18.7962 7.10727 19.3451 6.55837 19.3451 5.88127C19.3451 5.20417 18.7962 4.65527 18.1191 4.65527C17.442 4.65527 16.8931 5.20417 16.8931 5.88127C16.8931 6.55837 17.442 7.10727 18.1191 7.10727Z" stroke="white" stroke-width="1.1" stroke-linecap="round" stroke-linejoin="round"/>
<path d="M15.7832 8.21708L17.1702 6.83008" stroke="white" stroke-width="1.1" stroke-linecap="round" stroke-linejoin="round"/>
<path d="M5.88078 19.3446C6.55789 19.3446 7.10678 18.7957 7.10678 18.1186C7.10678 17.4415 6.55789 16.8926 5.88078 16.8926C5.20368 16.8926 4.65479 17.4415 4.65479 18.1186C4.65479 18.7957 5.20368 19.3446 5.88078 19.3446Z" stroke="white" stroke-width="1.1" stroke-linecap="round" stroke-linejoin="round"/>
<path d="M8.21708 15.7832L6.83008 17.1702" stroke="white" stroke-width="1.1" stroke-linecap="round" stroke-linejoin="round"/>
<path d="M11.9998 12.1803C12.0992 12.1803 12.1798 12.0997 12.1798 12.0003C12.1798 11.9009 12.0992 11.8203 11.9998 11.8203C11.9004 11.8203 11.8198 11.9009 11.8198 12.0003C11.8198 12.0997 11.9004 12.1803 11.9998 12.1803Z" fill="white" stroke="white" stroke-width="1.1" stroke-linecap="round" stroke-linejoin="round"/>
</g>
<defs>
<clipPath id="clip0_1906_16">
<rect width="24" height="24" fill="white"/>
</clipPath>
</defs>
</svg>
