<svg width="24" height="25" viewBox="0 0 24 25" fill="none" xmlns="http://www.w3.org/2000/svg">
<path d="M3.5 5.20666C3.5 4.54024 4.04024 4 4.70666 4H19.2933C19.9598 4 20.5 4.54024 20.5 5.20666V19.7933C20.5 20.4597 19.9598 21 19.2933 21H4.70667C4.04024 21 3.5 20.4597 3.5 19.7933V5.20666Z" fill="#0A66C2"/>
<path d="M7.31557 9.27957C8.13005 9.27957 8.79031 8.6193 8.79031 7.80482C8.79031 6.99034 8.13005 6.33008 7.31557 6.33008C6.50109 6.33008 5.84082 6.99034 5.84082 7.80482C5.84082 8.6193 6.50109 9.27957 7.31557 9.27957Z" fill="white"/>
<path d="M10.1409 10.3694H12.5851V11.4891C12.5851 11.4891 13.2483 10.1626 15.0529 10.1626C16.6627 10.1626 17.9962 10.9556 17.9962 13.3728V18.47H15.4634V13.9905C15.4634 12.5646 14.7022 12.4077 14.1221 12.4077C12.9182 12.4077 12.7121 13.4461 12.7121 14.1765V18.47H10.1409V10.3694Z" fill="white"/>
<path d="M6.02999 10.3695H8.60114V18.47H6.02999V10.3695Z" fill="white"/>
</svg>
