<svg width="16" height="16" viewBox="0 0 16 16" fill="none" xmlns="http://www.w3.org/2000/svg">
<path d="M2.6665 8.66667C2.6665 7.40959 2.6665 6.78105 3.05703 6.39052C3.44755 6 4.07609 6 5.33317 6H10.6665C11.9236 6 12.5521 6 12.9426 6.39052C13.3332 6.78105 13.3332 7.40959 13.3332 8.66667V10C13.3332 11.8856 13.3332 12.8284 12.7474 13.4142C12.1616 14 11.2188 14 9.33317 14H6.66651C4.78089 14 3.83808 14 3.25229 13.4142C2.6665 12.8284 2.6665 11.8856 2.6665 10V8.66667Z" fill="#FD9341" stroke="white" stroke-width="0.8"/>
<path d="M10.6668 5.33333V4.66667C10.6668 3.19391 9.47292 2 8.00016 2V2C6.5274 2 5.3335 3.19391 5.3335 4.66667V5.33333" stroke="white" stroke-width="0.8" stroke-linecap="round"/>
<circle cx="7.99984" cy="10.0003" r="1.33333" fill="white"/>
</svg>
