<svg width="24" height="24" viewBox="0 0 24 24" fill="none" xmlns="http://www.w3.org/2000/svg">
<path d="M19.8001 23.4L12.6001 5.4M23.4001 3L0.600098 7.8" stroke="#FD9341"/>
<path d="M0.600098 3.79961C0.600098 2.67951 0.600098 2.11945 0.818085 1.69163C1.00983 1.3153 1.31579 1.00934 1.69212 0.817596C2.11994 0.599609 2.67999 0.599609 3.8001 0.599609H20.2001C21.3202 0.599609 21.8803 0.599609 22.3081 0.817596C22.6844 1.00934 22.9904 1.3153 23.1821 1.69163C23.4001 2.11945 23.4001 2.6795 23.4001 3.79961V20.1996C23.4001 21.3197 23.4001 21.8798 23.1821 22.3076C22.9904 22.6839 22.6844 22.9899 22.3081 23.1816C21.8803 23.3996 21.3202 23.3996 20.2001 23.3996H3.8001C2.67999 23.3996 2.11994 23.3996 1.69212 23.1816C1.31579 22.9899 1.00983 22.6839 0.818085 22.3076C0.600098 21.8798 0.600098 21.3197 0.600098 20.1996V3.79961Z" stroke="#1450A3" stroke-linecap="round"/>
<path d="M12.6002 15.6357C12.6002 18.2942 9.89509 20.1408 8.8268 20.7664C8.56075 20.9223 8.23965 20.9223 7.97359 20.7664C6.9053 20.1408 4.2002 18.2942 4.2002 15.6357C4.2002 13.0945 6.23524 11.4004 8.4002 11.4004C10.6402 11.4004 12.6002 13.0945 12.6002 15.6357Z" stroke="#1450A3"/>
<ellipse cx="8.4002" cy="15.6004" rx="1.2" ry="1.2" fill="#1450A3"/>
</svg>
