<svg width="24" height="24" viewBox="0 0 24 24" fill="none" xmlns="http://www.w3.org/2000/svg">
<path d="M4 8L3.64645 8.35355L3.29289 8L3.64645 7.64645L4 8ZM11 17.5C10.7239 17.5 10.5 17.2761 10.5 17C10.5 16.7239 10.7239 16.5 11 16.5L11 17.5ZM7.64645 12.3536L3.64645 8.35355L4.35355 7.64645L8.35355 11.6464L7.64645 12.3536ZM3.64645 7.64645L7.64645 3.64645L8.35355 4.35355L4.35355 8.35355L3.64645 7.64645ZM4 7.5L15.5 7.5L15.5 8.5L4 8.5L4 7.5ZM15.5 17.5L11 17.5L11 16.5L15.5 16.5L15.5 17.5ZM20.5 12.5C20.5 15.2614 18.2614 17.5 15.5 17.5L15.5 16.5C17.7091 16.5 19.5 14.7091 19.5 12.5L20.5 12.5ZM15.5 7.5C18.2614 7.5 20.5 9.73857 20.5 12.5L19.5 12.5C19.5 10.2909 17.7091 8.5 15.5 8.5L15.5 7.5Z" fill="white"/>
<circle cx="9" cy="17" r="2" fill="#FD9341" stroke="white"/>
</svg>
