<svg width="24" height="25" viewBox="0 0 24 25" fill="none" xmlns="http://www.w3.org/2000/svg">
<path d="M16.2053 5.76491L9.71429 7.92857L9.71428 7.92857C8.08082 8.47306 7.26409 8.74531 6.93878 9.05791C6.11982 9.8449 6.11982 11.1551 6.93878 11.9421C7.26409 12.2547 8.08082 12.5269 9.71428 13.0714L9.71429 13.0714C10.0434 13.1811 10.2079 13.236 10.3539 13.3132C10.7089 13.5009 10.9991 13.7911 11.1868 14.1461C11.264 14.2921 11.3189 14.4566 11.4286 14.7857C11.9731 16.4192 12.2453 17.2359 12.5579 17.5612C13.3449 18.3802 14.6551 18.3802 15.4421 17.5612C15.7547 17.2359 16.0269 16.4192 16.5714 14.7857L16.5714 14.7857L18.7351 8.29473C19.287 6.63894 19.563 5.81105 19.126 5.37403C18.689 4.93702 17.8611 5.21298 16.2053 5.76491Z" fill="#FD9341" stroke="white"/>
</svg>
