<svg width="24" height="24" viewBox="0 0 24 24" fill="none" xmlns="http://www.w3.org/2000/svg">
<path d="M0.75 12.1751C0.75 11.9706 0.75 11.766 0.75 11.5615C0.807059 11.4434 0.851177 11.3166 0.922941 11.2079C1.69 10.049 2.45647 8.89012 3.23471 7.73882C3.51 7.33149 3.91353 7.08136 4.40529 7.03402C5.47176 6.93175 6.54059 6.85343 7.60882 6.77454C7.76059 6.76343 7.86882 6.7196 7.96588 6.60214C8.27 6.23629 8.59706 5.89032 8.93 5.5496C11.3688 3.05766 14.3053 1.52882 17.7735 1.01863C18.3329 0.936227 18.8947 0.885383 19.4553 0.822266C20.2347 0.822266 21.0141 0.822266 21.7935 0.822266C22.6441 0.999928 23.1588 1.51129 23.3376 2.35636C23.3376 3.13071 23.3376 3.90506 23.3376 4.67941C23.2665 5.34623 23.2065 6.01363 23.0871 6.6746C22.7241 8.68558 22.0612 10.582 20.9282 12.3014C19.9918 13.7227 18.8524 14.9651 17.5565 16.0691C17.4635 16.1486 17.3624 16.2169 17.3518 16.363C17.2818 17.3379 17.1941 18.3109 17.1341 19.2863C17.0912 19.9829 16.8188 20.5282 16.2165 20.9133C15.3947 21.4387 14.5888 21.9875 13.7688 22.5158C13.3629 22.777 12.9853 23.0856 12.5282 23.2638C12.3224 23.2638 12.1165 23.2638 11.9106 23.2638C11.3818 23.0721 11.0635 22.7127 10.9812 22.1488C10.8653 21.3557 10.7359 20.5644 10.6171 19.7714C10.5924 19.6054 10.5576 19.5136 10.3435 19.5388C9.76941 19.6048 9.27353 19.4143 8.86471 19.0087C7.58647 17.7405 6.30882 16.4712 5.03235 15.2012C4.61824 14.7886 4.43118 14.2895 4.49882 13.7098C4.51882 13.5397 4.45353 13.4871 4.30765 13.4655C3.61118 13.3615 2.91765 13.2376 2.21882 13.1552C1.55118 13.0769 0.985294 12.8799 0.75 12.1751ZM21.9735 3.9296C22.0294 3.4872 21.9741 3.07928 21.96 2.67077C21.9482 2.32655 21.8218 2.21376 21.4712 2.1898C20.4182 2.11733 19.3712 2.18804 18.3282 2.32421C16.6235 2.54629 14.98 2.99162 13.4706 3.81915C10.65 5.36668 8.53647 7.60967 7.02647 10.4277C6.94176 10.5855 7.01529 10.6662 7.11412 10.7649C9.18412 12.8197 11.2541 14.8745 13.3194 16.934C13.4571 17.0714 13.5624 17.0889 13.7371 16.9983C15.35 16.1603 16.7571 15.0592 18.0147 13.7577C19.7271 11.9864 20.9206 9.93213 21.5 7.53545C21.79 6.33856 21.9576 5.12707 21.9735 3.9296ZM10.2071 18.1741C10.7882 18.0877 11.3541 17.9363 11.9147 17.7598C12.1006 17.7014 12.0912 17.64 11.9653 17.5155C10.15 15.7173 8.33765 13.9161 6.52706 12.1138C6.40765 11.9945 6.35 11.994 6.29412 12.1646C6.12471 12.6783 5.98941 13.2002 5.88941 13.7314C5.84941 13.9436 5.88765 14.1271 6.05294 14.2907C7.30294 15.5256 8.54823 16.7651 9.79412 18.0041C9.90882 18.1175 10.0371 18.1911 10.2071 18.1741ZM15.9024 17.318C15.7735 17.3963 15.6988 17.4395 15.6259 17.4863C15.2229 17.7417 14.8088 17.9778 14.3835 18.1958C13.6571 18.568 12.9065 18.8836 12.1253 19.1238C12.0165 19.1571 11.9135 19.191 11.9376 19.3441C12.0588 20.101 12.1765 20.8578 12.2941 21.6146C12.3171 21.7619 12.3718 21.801 12.5112 21.7093C13.5082 21.0489 14.5082 20.3932 15.5071 19.7357C15.6212 19.6603 15.7171 19.5645 15.7294 19.4242C15.7888 18.7416 15.8424 18.059 15.9024 17.318ZM6.68588 8.21571C6.04118 8.26714 5.41294 8.32616 4.78353 8.36181C4.53588 8.37584 4.37765 8.47986 4.24588 8.67973C3.61823 9.63292 2.98294 10.5814 2.35118 11.5317C2.21118 11.7421 2.22353 11.7666 2.48412 11.8058C3.18823 11.9127 3.89353 12.0109 4.59529 12.1319C4.79 12.1652 4.87235 12.1219 4.93059 11.9355C5.31706 10.693 5.89 9.53649 6.59353 8.44188C6.63118 8.38343 6.68882 8.33084 6.68588 8.21571Z" fill="#1450A3"/>
<path d="M0.749982 22.3869C0.818217 22.2566 0.906452 22.142 1.01233 22.0374C2.33822 20.7219 3.66351 19.4058 4.98763 18.0879C5.14233 17.9336 5.30704 17.8109 5.53939 17.8068C5.81469 17.8016 6.02822 17.9079 6.1588 18.1481C6.29233 18.3936 6.27469 18.6414 6.11881 18.8728C6.06645 18.9505 5.99528 19.0171 5.92763 19.0838C4.62881 20.3747 3.32939 21.6651 2.03116 22.9567C1.91057 23.0765 1.78469 23.1858 1.63233 23.2629C1.36763 23.2629 1.10292 23.2588 0.838217 23.2653C0.761158 23.267 0.745864 23.2512 0.747629 23.1753C0.754099 22.9129 0.749982 22.6499 0.749982 22.3869Z" fill="#FD9341"/>
<path d="M0.749978 18.4875C0.811154 18.3362 0.904096 18.2082 1.02115 18.0931C1.68821 17.4338 2.35292 16.7723 3.01704 16.1101C3.14939 15.9781 3.29233 15.8676 3.48586 15.8454C3.7888 15.8103 4.05468 15.943 4.18821 16.1955C4.32704 16.4579 4.28821 16.7699 4.06115 17.0043C3.6941 17.383 3.31586 17.7512 2.94174 18.1229C2.62998 18.4332 2.32057 18.7447 2.00527 19.0515C1.53468 19.5097 1.04998 19.4255 0.74939 18.8382C0.749978 18.7213 0.749978 18.6044 0.749978 18.4875Z" fill="#FD9341"/>
<path d="M5.20586 23.2641C4.61292 22.9678 4.53056 22.484 4.99527 22.0199C5.64821 21.3677 6.30233 20.7161 6.95527 20.0633C7.07056 19.9482 7.19115 19.8418 7.35233 19.7962C7.63174 19.7167 7.93409 19.819 8.09821 20.0464C8.26233 20.2737 8.26997 20.5934 8.10939 20.8289C8.05644 20.9066 7.98762 20.975 7.92056 21.0422C7.27703 21.6833 6.63056 22.3221 5.98821 22.9649C5.86174 23.0912 5.72586 23.1981 5.55939 23.2647C5.44115 23.2641 5.3235 23.2641 5.20586 23.2641Z" fill="#FD9341"/>
<path d="M19.5582 7.90462C19.5547 9.71689 18.0611 11.1978 16.2258 11.2083C14.4047 11.2188 12.8852 9.70988 12.8817 7.88767C12.8782 6.07131 14.3917 4.57579 16.2323 4.57813C18.0705 4.58047 19.5617 6.07131 19.5582 7.90462ZM18.17 7.89878C18.1723 6.8106 17.3305 5.96378 16.2405 5.95793C15.1423 5.95209 14.2682 6.80475 14.2653 7.88475C14.2629 8.95189 15.1364 9.83144 16.2041 9.83611C17.2964 9.84079 18.1676 8.98228 18.17 7.89878Z" fill="#FD9341"/>
</svg>
