<svg width="48" height="40" viewBox="0 0 48 40" fill="none" xmlns="http://www.w3.org/2000/svg">
<path d="M45.5659 15.0257C45.5653 8.92804 40.6144 3.98554 34.5077 3.98633C30.6216 3.98633 27.0242 6.03517 25.0322 9.36651C23.0397 6.03517 19.4422 3.99235 15.5565 3.98633C9.44968 3.98554 4.49869 8.92804 4.49805 15.0257C4.49805 25.5288 15.5338 33.94 25.0322 38.9929C34.5302 33.9403 45.5659 25.5288 45.5659 15.0257Z" fill="#F43C2A"/>
<path d="M34.5071 3.98633C33.7668 3.98633 33.0379 4.06268 32.3276 4.20609C37.3834 5.22174 41.1911 9.67764 41.1917 15.0252C41.1917 24.73 31.7707 32.6432 22.8457 37.7768C23.5795 38.1988 24.3103 38.609 25.0318 38.9928C34.5298 33.9402 45.5655 25.5283 45.5655 15.0252C45.5648 8.92752 40.6138 3.98554 34.5071 3.98633Z" fill="#BE1A0A"/>
<path d="M15.5565 2.979C8.88498 2.97814 3.47141 8.39364 3.4707 15.0263C3.4707 20.624 6.40393 25.5884 10.4611 29.7494C14.5182 33.9104 19.7295 37.3181 24.5421 39.8783C24.6923 39.9582 24.8605 40 25.0313 40C25.2022 40 25.3704 39.9582 25.5206 39.8783C30.333 37.3183 35.5446 33.9105 39.6016 29.7494C43.6587 25.5883 46.592 20.624 46.592 15.0263C46.5913 8.39365 41.1777 2.97814 34.5062 2.979C30.7384 2.979 27.2953 4.80977 25.0313 7.73652C22.7668 4.81076 19.3241 2.98484 15.5585 2.979C15.5578 2.979 15.5571 2.979 15.5565 2.979ZM15.5544 4.99377C19.0743 4.99921 22.3347 6.84732 24.147 9.87721C24.2376 10.0286 24.367 10.1541 24.5223 10.2413C24.6776 10.3285 24.8534 10.3744 25.0323 10.3744C25.2112 10.3744 25.3871 10.3285 25.5423 10.2413C25.6976 10.1541 25.827 10.0286 25.9176 9.87721C27.7295 6.84697 30.9879 4.99377 34.5062 4.99377C40.0483 4.99305 44.538 9.4636 44.5385 15.0263C44.5385 19.9316 41.953 24.4228 38.1177 28.3564C34.4145 32.1545 29.5782 35.3466 25.0313 37.8084C20.4841 35.3465 15.6481 32.1544 11.9449 28.3564C8.10966 24.4228 5.5241 19.9316 5.5241 15.0263C5.52468 9.46429 10.0132 4.99415 15.5544 4.99377ZM39.018 22.9437C39.0006 22.9435 38.9832 22.9441 38.9659 22.9457C38.8828 22.9519 38.8025 22.9779 38.7319 23.0215C38.6613 23.065 38.6026 23.1248 38.5608 23.1956C36.8664 25.9769 34.2622 28.4905 31.3739 30.6388C31.3202 30.6788 31.275 30.7289 31.241 30.786C31.207 30.8432 31.1848 30.9064 31.1757 30.972C31.1666 31.0376 31.1707 31.1043 31.1879 31.1683C31.205 31.2323 31.2349 31.2924 31.2757 31.3451C31.3165 31.3978 31.3675 31.4421 31.4258 31.4755C31.484 31.5089 31.5484 31.5307 31.6153 31.5396C31.6821 31.5486 31.7501 31.5445 31.8154 31.5277C31.8806 31.5109 31.9419 31.4816 31.9956 31.4415C34.9538 29.2413 37.6494 26.6541 39.4411 23.713C39.4888 23.6377 39.5154 23.5513 39.5181 23.4626C39.5209 23.3739 39.4997 23.2861 39.4568 23.2081C39.4138 23.13 39.3507 23.0644 39.2736 23.018C39.1966 22.9716 39.1084 22.9459 39.018 22.9437ZM29.3927 32.1222C29.2944 32.1253 29.1991 32.1561 29.118 32.2108C28.6021 32.5486 28.0836 32.876 27.5639 33.1906C27.5031 33.2237 27.4498 33.2685 27.4072 33.3223C27.3645 33.3762 27.3335 33.438 27.3159 33.5039C27.2983 33.5699 27.2946 33.6387 27.3049 33.7062C27.3152 33.7736 27.3394 33.8383 27.3759 33.8963C27.4125 33.9543 27.4607 34.0044 27.5176 34.0436C27.5745 34.0828 27.6388 34.1102 27.7068 34.1243C27.7749 34.1383 27.8451 34.1387 27.9133 34.1253C27.9814 34.112 28.0461 34.0851 28.1034 34.0465C28.6329 33.7259 29.163 33.3937 29.6895 33.049C29.784 32.9892 29.8559 32.9006 29.8941 32.7968C29.9323 32.6931 29.9347 32.5799 29.901 32.4747C29.8673 32.3694 29.7993 32.278 29.7075 32.2143C29.6157 32.1506 29.5051 32.1183 29.3927 32.1222Z" fill="#104082"/>
<path d="M16.7623 7.60528C15.794 7.5859 14.7533 7.92352 13.7766 8.5739C12.7999 9.22428 11.9328 10.1571 11.2888 11.2502C10.8688 11.9627 10.5542 12.7256 10.3629 13.4952C10.1716 14.2648 10.1074 15.0262 10.1739 15.7358C10.2403 16.4454 10.4363 17.0893 10.7504 17.6308C11.0645 18.1722 11.4908 18.6007 12.0047 18.8916C12.5187 19.1825 13.1105 19.3302 13.7461 19.3263C14.3817 19.3223 15.0487 19.1668 15.7091 18.8685C16.3694 18.5702 17.0103 18.1351 17.5949 17.588C18.1795 17.0408 18.6964 16.3924 19.1162 15.6797C19.5361 14.9671 19.8507 14.2041 20.0419 13.4343C20.2331 12.6646 20.2972 11.9032 20.2306 11.1936C20.1639 10.484 19.9679 9.8401 19.6535 9.29871C19.3392 8.75732 18.9127 8.32903 18.3986 8.0383C17.9132 7.76395 17.3583 7.61711 16.7623 7.60528ZM13.0878 20.8776C12.4219 20.8775 11.7832 21.073 11.3122 21.421C10.8412 21.769 10.5764 22.2411 10.5761 22.7334C10.576 22.9773 10.6408 23.2189 10.767 23.4442C10.8932 23.6696 11.0782 23.8744 11.3114 24.0469C11.5447 24.2194 11.8216 24.3562 12.1264 24.4495C12.4312 24.5429 12.7579 24.5909 13.0878 24.5909C13.7538 24.5906 14.3924 24.3948 14.8631 24.0464C15.3339 23.6981 15.5982 23.2258 15.5979 22.7334C15.5976 22.2413 15.333 21.7694 14.8624 21.4215C14.3917 21.0735 13.7535 20.8779 13.0878 20.8776Z" fill="#F88A7F"/>
<path d="M13.9548 0.000100529C8.55624 -0.000596579 3.86448 3.06796 1.54818 7.54563C1.48265 7.66399 1.44197 7.79405 1.42856 7.92811C1.41514 8.06217 1.42925 8.19751 1.47007 8.32613C1.51089 8.45474 1.57759 8.57401 1.66621 8.6769C1.75483 8.77978 1.86358 8.86418 1.98602 8.92511C2.10847 8.98603 2.24213 9.02224 2.37909 9.0316C2.51604 9.04096 2.65353 9.02328 2.7834 8.9796C2.91327 8.93592 3.03289 8.86713 3.1352 8.7773C3.2375 8.68747 3.32039 8.57842 3.37899 8.4566C5.36139 4.6244 9.3484 2.01427 13.9548 2.01486C14.0908 2.01675 14.2259 1.99209 14.3522 1.94231C14.4784 1.89253 14.5933 1.81863 14.6902 1.7249C14.7871 1.63117 14.864 1.51948 14.9165 1.39632C14.969 1.27316 14.9961 1.14098 14.9961 1.00748C14.9961 0.87398 14.969 0.741813 14.9165 0.618654C14.864 0.495496 14.7871 0.383798 14.6902 0.290067C14.5933 0.196336 14.4784 0.122441 14.3522 0.0726614C14.2259 0.022882 14.0908 -0.00178545 13.9548 0.000100529ZM1.17119 10.6878C0.934678 10.6987 0.709282 10.7894 0.533142 10.9447C0.357002 11.1 0.240948 11.3102 0.204654 11.5397C0.0703315 12.3155 0.000209315 13.1118 0.000116913 13.9244C-0.00193641 14.0579 0.0230754 14.1904 0.0736852 14.3144C0.124295 14.4383 0.199492 14.5511 0.294923 14.6463C0.390354 14.7414 0.504118 14.817 0.629583 14.8686C0.755048 14.9203 0.889721 14.947 1.02578 14.9471C1.16184 14.9472 1.29656 14.9208 1.42213 14.8694C1.5477 14.818 1.66161 14.7426 1.75723 14.6477C1.85286 14.5527 1.9283 14.44 1.97916 14.3162C2.03002 14.1924 2.05529 14.0599 2.05351 13.9264C2.05358 13.227 2.1148 12.5412 2.22998 11.8762C2.25793 11.727 2.25115 11.5734 2.21014 11.4271C2.16913 11.2807 2.09494 11.1454 1.99313 11.0311C1.89133 10.9168 1.76455 10.8266 1.62222 10.7672C1.47989 10.7077 1.3257 10.6806 1.17119 10.6878ZM46.9314 24.5924C46.7648 24.5989 46.6024 24.6452 46.4581 24.7271C46.3138 24.809 46.192 24.9242 46.1032 25.0627C44.1081 28.0818 41.4566 30.9008 38.4692 33.4621C38.3619 33.5473 38.2733 33.6529 38.2086 33.7725C38.1438 33.8922 38.1043 34.0233 38.0924 34.1583C38.0806 34.2932 38.0965 34.4291 38.1394 34.5578C38.1822 34.6866 38.2511 34.8055 38.3419 34.9075C38.4326 35.0096 38.5435 35.0926 38.6677 35.1516C38.7919 35.2107 38.9269 35.2446 39.0648 35.2513C39.2027 35.2579 39.3405 35.2373 39.47 35.1905C39.5996 35.1437 39.7182 35.0718 39.8187 34.9791C42.9142 32.3251 45.6967 29.3825 47.8258 26.1605C47.9315 26.006 47.9915 25.8258 47.9992 25.6398C48.0068 25.4539 47.9619 25.2695 47.8693 25.1071C47.7766 24.9447 47.64 24.8106 47.4744 24.7198C47.3089 24.6289 47.1209 24.5848 46.9314 24.5924ZM35.9907 35.7425C35.7593 35.7421 35.5346 35.8183 35.353 35.9589C34.8899 36.3066 34.4208 36.648 33.9493 36.984C33.7289 37.1411 33.5811 37.3776 33.5385 37.6416C33.4958 37.9056 33.5618 38.1754 33.7218 38.3917C33.8819 38.608 34.123 38.753 34.392 38.7949C34.661 38.8368 34.936 38.7721 35.1565 38.6151C35.6414 38.2695 36.1231 37.9168 36.6003 37.5585C36.7733 37.4323 36.9015 37.2558 36.9666 37.0541C37.0317 36.8524 37.0304 36.6357 36.963 36.4348C36.8955 36.2338 36.7653 36.0588 36.5908 35.9346C36.4163 35.8103 36.2063 35.7431 35.9907 35.7425Z" fill="#1450A3"/>
</svg>
