<svg width="24" height="25" viewBox="0 0 24 25" fill="none" xmlns="http://www.w3.org/2000/svg">
<path fill-rule="evenodd" clip-rule="evenodd" d="M19.7721 8.58961C19.7789 8.76449 19.7812 8.93931 19.7812 9.11419C19.7812 14.4164 16.0513 20.5375 9.23073 20.5375C7.13556 20.5375 5.18736 19.8697 3.5459 18.733C3.83606 18.7648 4.13074 18.7887 4.42994 18.7887C6.16712 18.7887 7.76713 18.1446 9.03629 17.0635C7.41366 17.0397 6.04352 15.8711 5.57098 14.2813C5.79783 14.329 6.03145 14.3529 6.27036 14.3529C6.60724 14.3529 6.93433 14.3052 7.24785 14.2098C5.54986 13.8442 4.27092 12.2225 4.27092 10.275C4.27092 10.2511 4.27092 10.2431 4.27092 10.2272C4.77135 10.5213 5.34412 10.7041 5.95232 10.7279C4.95598 10.0045 4.30105 8.77243 4.30105 7.3813C4.30105 6.64996 4.48343 5.95833 4.80449 5.36214C6.63286 7.79463 9.36639 9.39247 12.4481 9.5594C12.3848 9.26528 12.3524 8.95533 12.3524 8.64531C12.3524 6.42745 14.0127 4.63086 16.0611 4.63086C17.1275 4.63086 18.0907 5.11584 18.7667 5.89487C19.6131 5.71999 20.4059 5.38614 21.1234 4.92508C20.8453 5.8631 20.2582 6.64992 19.491 7.14278C20.2416 7.04738 20.9576 6.83292 21.6216 6.51494C21.1234 7.31782 20.4964 8.02521 19.7721 8.58961Z" fill="#1EA1F2"/>
</svg>
