<svg width="16" height="16" viewBox="0 0 16 16" fill="none" xmlns="http://www.w3.org/2000/svg">
<path d="M2.6665 8.66679C2.6665 7.40971 2.6665 6.78117 3.05703 6.39065C3.44755 6.00012 4.07609 6.00012 5.33317 6.00012H10.6665C11.9236 6.00012 12.5521 6.00012 12.9426 6.39065C13.3332 6.78117 13.3332 7.40971 13.3332 8.66679V10.0001C13.3332 11.8857 13.3332 12.8285 12.7474 13.4143C12.1616 14.0001 11.2188 14.0001 9.33317 14.0001H6.66651C4.78089 14.0001 3.83808 14.0001 3.25229 13.4143C2.6665 12.8285 2.6665 11.8857 2.6665 10.0001V8.66679Z" fill="white" stroke="#1450A3" stroke-width="0.8"/>
<path d="M11 6.00008L11.0517 5.58635C11.2243 4.20529 10.6029 2.84504 9.44588 2.07144V2.07144C8.06827 1.15033 6.24488 1.26386 4.99217 2.34874L4.44661 2.8212" stroke="#1450A3" stroke-width="0.8" stroke-linecap="round"/>
<circle cx="7.99984" cy="9.99996" r="1.33333" fill="#1450A3"/>
</svg>
