<svg width="24" height="24" viewBox="0 0 24 24" fill="none" xmlns="http://www.w3.org/2000/svg">
<g clip-path="url(#clip0_1852_759)">
<path d="M10.5 9.8998C10.6656 9.8998 10.8 9.76549 10.8 9.5998C10.8 9.43412 10.6656 9.2998 10.5 9.2998C10.3343 9.2998 10.2 9.43412 10.2 9.5998C10.2 9.76549 10.3343 9.8998 10.5 9.8998Z" fill="#FD9341"/>
<path d="M12.6001 3.20165C12.6001 2.90937 12.4816 2.62906 12.2706 2.42239C12.0596 2.21572 11.7735 2.09961 11.4751 2.09961H1.7251C1.42673 2.09961 1.14058 2.21572 0.929603 2.42239C0.718624 2.62906 0.600098 2.90937 0.600098 3.20165L0.600098 4.30369C0.600088 4.36564 0.61607 4.42658 0.646558 4.48085C0.677045 4.53512 0.721047 4.58096 0.774473 4.6141L6.39947 8.10389C6.45949 8.14112 6.52906 8.16089 6.6001 8.16089C6.67113 8.16089 6.74071 8.14112 6.80072 8.10389L11.8501 4.97043V9.99757C11.8501 10.095 11.8106 10.1884 11.7403 10.2573C11.6699 10.3262 11.5746 10.3649 11.4751 10.3649H1.7251C1.62564 10.3649 1.53026 10.3262 1.45993 10.2573C1.38961 10.1884 1.3501 10.095 1.3501 9.99757V5.95675C1.3501 5.85933 1.31059 5.76589 1.24026 5.697C1.16994 5.62811 1.07455 5.58941 0.975098 5.58941C0.875641 5.58941 0.780259 5.62811 0.709933 5.697C0.639606 5.76589 0.600098 5.85933 0.600098 5.95675V9.99757C0.600098 10.2898 0.718624 10.5702 0.929603 10.7768C1.14058 10.9835 1.42673 11.0996 1.7251 11.0996H11.4751C11.7735 11.0996 12.0596 10.9835 12.2706 10.7768C12.4816 10.5702 12.6001 10.2898 12.6001 9.99757V3.20165ZM6.6001 7.35818L1.3501 4.10165V3.20165C1.3501 3.10422 1.38961 3.01079 1.45993 2.9419C1.53026 2.87301 1.62564 2.8343 1.7251 2.8343H11.4751C11.5746 2.8343 11.6699 2.87301 11.7403 2.9419C11.8106 3.01079 11.8501 3.10422 11.8501 3.20165V4.10165L6.6001 7.35818Z" fill="#1450A3"/>
<mask id="path-3-inside-1_1852_759" fill="white">
<path d="M9.12 9.8998C9.2473 9.8998 9.36939 9.8682 9.45941 9.81194C9.54943 9.75568 9.6 9.67937 9.6 9.5998C9.6 9.52024 9.54943 9.44393 9.45941 9.38767C9.36939 9.33141 9.2473 9.2998 9.12 9.2998H6.48C6.3527 9.2998 6.23061 9.33141 6.14059 9.38767C6.05057 9.44393 6 9.52024 6 9.5998C6 9.67937 6.05057 9.75568 6.14059 9.81194C6.23061 9.8682 6.3527 9.8998 6.48 9.8998H9.12Z"/>
</mask>
<path d="M9.12 10.4998C9.33716 10.4998 9.57453 10.4475 9.77741 10.3207L9.14141 9.30314C9.149 9.2984 9.15396 9.29621 9.15549 9.29557C9.15709 9.29491 9.15641 9.29532 9.15332 9.29612C9.15026 9.29691 9.14567 9.29787 9.1397 9.29862C9.13375 9.29936 9.12709 9.2998 9.12 9.2998V10.4998ZM9.77741 10.3207C9.97712 10.1959 10.2 9.95342 10.2 9.5998H9C9 9.40532 9.12174 9.31544 9.14141 9.30314L9.77741 10.3207ZM10.2 9.5998C10.2 9.24619 9.97712 9.00369 9.77741 8.87887L9.14141 9.89647C9.12174 9.88417 9 9.79429 9 9.5998H10.2ZM9.77741 8.87887C9.57453 8.75207 9.33716 8.6998 9.12 8.6998V9.8998C9.12709 9.8998 9.13375 9.90025 9.1397 9.90099C9.14567 9.90174 9.15026 9.9027 9.15332 9.90349C9.15641 9.90429 9.15709 9.9047 9.15549 9.90404C9.15396 9.9034 9.149 9.90121 9.14141 9.89647L9.77741 8.87887ZM9.12 8.6998H6.48V9.8998H9.12V8.6998ZM6.48 8.6998C6.26284 8.6998 6.02547 8.75207 5.82259 8.87887L6.45859 9.89647C6.451 9.90121 6.44604 9.9034 6.44451 9.90404C6.44291 9.9047 6.44359 9.90429 6.44668 9.90349C6.44974 9.9027 6.45433 9.90174 6.4603 9.90099C6.46625 9.90025 6.47291 9.8998 6.48 9.8998V8.6998ZM5.82259 8.87887C5.62288 9.00369 5.4 9.24619 5.4 9.5998H6.6C6.6 9.79429 6.47826 9.88417 6.45859 9.89647L5.82259 8.87887ZM5.4 9.5998C5.4 9.95342 5.62288 10.1959 5.82259 10.3207L6.45859 9.30314C6.47826 9.31544 6.6 9.40532 6.6 9.5998H5.4ZM5.82259 10.3207C6.02547 10.4475 6.26284 10.4998 6.48 10.4998V9.2998C6.47291 9.2998 6.46625 9.29936 6.4603 9.29862C6.45433 9.29787 6.44974 9.29691 6.44668 9.29612C6.44359 9.29532 6.44291 9.29491 6.44451 9.29557C6.44604 9.29621 6.451 9.2984 6.45859 9.30314L5.82259 10.3207ZM6.48 10.4998H9.12V9.2998H6.48V10.4998Z" fill="#FD9341" mask="url(#path-3-inside-1_1852_759)"/>
<path d="M22.4 17.5998C22.4 16.5969 22.0859 15.6191 21.5017 14.8039C20.9175 13.9887 20.0927 13.3769 19.143 13.0545C18.1933 12.7322 17.1664 12.7154 16.2067 13.0065C15.2469 13.2976 14.4025 13.8821 13.792 14.6777C13.1814 15.4734 12.8354 16.4404 12.8026 17.4428C12.7698 18.4451 13.0518 19.4326 13.609 20.2665C14.1662 21.1004 14.9706 21.7389 15.9092 22.0922C16.8479 22.4454 17.8736 22.4958 18.8424 22.2362" stroke="#1450A3" stroke-width="0.533333" stroke-linecap="round"/>
<circle cx="17.5999" cy="17.6001" r="2.13333" fill="#FD9341" stroke="#1450A3" stroke-width="0.533333"/>
<path d="M19.7334 16V18.4C19.7334 19.1364 20.3304 19.7333 21.0667 19.7333V19.7333C21.8031 19.7333 22.4001 19.1364 22.4001 18.4V17.6" stroke="#1450A3" stroke-width="0.533333" stroke-linecap="round"/>
<path d="M17.5999 8L6.3999 19.2" stroke="#FD9341" stroke-width="0.8" stroke-linecap="round"/>
</g>
<defs>
<clipPath id="clip0_1852_759">
<rect width="24" height="24" fill="white"/>
</clipPath>
</defs>
</svg>
