<svg width="24" height="24" viewBox="0 0 24 24" fill="none" xmlns="http://www.w3.org/2000/svg">
<path d="M22 15.66L22 8.34004C22 6.84004 20.37 5.90004 19.07 6.65004L15.9 8.48006L12.73 10.31L12.24 10.59L12.24 13.41L12.73 13.69L15.9 15.52L19.07 17.3501C20.37 18.1001 22 17.16 22 15.66Z" fill="#FD9341"/>
<path d="M12.2402 15.66L12.2402 8.34004C12.2402 6.84004 10.6103 5.90004 9.32025 6.65004L6.14026 8.48006L2.97025 10.31C1.68025 11.06 1.68025 12.94 2.97025 13.69L6.14026 15.52L9.32025 17.3501C10.6103 18.1001 12.2402 17.16 12.2402 15.66Z" fill="#1450A3"/>
</svg>
