<svg width="24" height="25" viewBox="0 0 24 25" fill="none" xmlns="http://www.w3.org/2000/svg">
<path d="M12.0002 3.77344C9.63009 3.77344 9.33264 3.7838 8.40176 3.82616C7.4727 3.86871 6.83853 4.0158 6.28364 4.23162C5.70966 4.45453 5.22277 4.75271 4.73769 5.23798C4.25225 5.72307 3.95408 6.20998 3.73045 6.7838C3.51409 7.33889 3.36682 7.97326 3.325 8.90198C3.28337 9.83289 3.27246 10.1305 3.27246 12.5007C3.27246 14.8709 3.28301 15.1674 3.32519 16.0983C3.36791 17.0274 3.515 17.6616 3.73063 18.2165C3.95371 18.7905 4.25189 19.2774 4.73714 19.7625C5.22204 20.248 5.70893 20.5469 6.28255 20.7698C6.83781 20.9856 7.47215 21.1327 8.40103 21.1753C9.33191 21.2176 9.62918 21.228 11.9991 21.228C14.3694 21.228 14.6659 21.2176 15.5968 21.1753C16.5259 21.1327 17.1608 20.9856 17.716 20.7698C18.2898 20.5469 18.776 20.248 19.2609 19.7625C19.7463 19.2774 20.0445 18.7905 20.2681 18.2167C20.4827 17.6616 20.6299 17.0273 20.6736 16.0985C20.7154 15.1676 20.7263 14.8709 20.7263 12.5007C20.7263 10.1305 20.7154 9.83307 20.6736 8.90216C20.6299 7.97307 20.4827 7.33889 20.2681 6.78398C20.0445 6.20998 19.7463 5.72307 19.2609 5.23798C18.7754 4.75253 18.29 4.45435 17.7155 4.23162C17.1591 4.0158 16.5246 3.86871 15.5955 3.82616C14.6647 3.7838 14.3683 3.77344 11.9975 3.77344H12.0002ZM11.2173 5.34616C11.4497 5.3458 11.7089 5.34616 12.0002 5.34616C14.3303 5.34616 14.6065 5.35453 15.5266 5.39635C16.3775 5.43526 16.8393 5.57744 17.1469 5.69689C17.5542 5.85507 17.8446 6.04416 18.1498 6.34962C18.4553 6.65507 18.6444 6.94598 18.8029 7.35326C18.9223 7.66053 19.0647 8.12235 19.1034 8.97326C19.1453 9.89326 19.1543 10.1696 19.1543 12.4987C19.1543 14.8278 19.1453 15.1042 19.1034 16.0242C19.0645 16.8751 18.9223 17.3369 18.8029 17.6442C18.6447 18.0514 18.4553 18.3414 18.1498 18.6467C17.8444 18.9522 17.5544 19.1413 17.1469 19.2994C16.8397 19.4194 16.3775 19.5613 15.5266 19.6002C14.6067 19.642 14.3303 19.6511 12.0002 19.6511C9.6699 19.6511 9.39373 19.642 8.47376 19.6002C7.62287 19.5609 7.16107 19.4187 6.85326 19.2993C6.446 19.1411 6.1551 18.952 5.84966 18.6465C5.54421 18.3411 5.35513 18.0509 5.19658 17.6434C5.07713 17.3362 4.93477 16.8743 4.89605 16.0234C4.85423 15.1034 4.84587 14.8271 4.84587 12.4965C4.84587 10.166 4.85423 9.89107 4.89605 8.97107C4.93496 8.12016 5.07713 7.65835 5.19658 7.35071C5.35476 6.94344 5.54421 6.65253 5.84966 6.34707C6.1551 6.04162 6.446 5.85253 6.85326 5.69398C7.16089 5.57398 7.62287 5.43216 8.47376 5.39307C9.27882 5.35671 9.59082 5.3458 11.2173 5.34398V5.34616ZM16.6586 6.79526C16.0804 6.79526 15.6114 7.2638 15.6114 7.84216C15.6114 8.42035 16.0804 8.88944 16.6586 8.88944C17.2368 8.88944 17.7058 8.42035 17.7058 7.84216C17.7058 7.26398 17.2368 6.79489 16.6586 6.79489V6.79526ZM12.0002 8.01889C9.52518 8.01889 7.51851 10.0256 7.51851 12.5007C7.51851 14.9758 9.52518 16.9816 12.0002 16.9816C14.4752 16.9816 16.4812 14.9758 16.4812 12.5007C16.4812 10.0256 14.475 8.01889 12 8.01889H12.0002ZM12.0002 9.59162C13.6067 9.59162 14.9092 10.894 14.9092 12.5007C14.9092 14.1073 13.6067 15.4098 12.0002 15.4098C10.3935 15.4098 9.09119 14.1073 9.09119 12.5007C9.09119 10.894 10.3935 9.59162 12.0002 9.59162Z" fill="url(#paint0_radial_1272_3856)"/>
<path d="M12.0002 3.77344C9.63009 3.77344 9.33264 3.7838 8.40176 3.82616C7.4727 3.86871 6.83853 4.0158 6.28364 4.23162C5.70966 4.45453 5.22277 4.75271 4.73769 5.23798C4.25225 5.72307 3.95408 6.20998 3.73045 6.7838C3.51409 7.33889 3.36682 7.97326 3.325 8.90198C3.28337 9.83289 3.27246 10.1305 3.27246 12.5007C3.27246 14.8709 3.28301 15.1674 3.32519 16.0983C3.36791 17.0274 3.515 17.6616 3.73063 18.2165C3.95371 18.7905 4.25189 19.2774 4.73714 19.7625C5.22204 20.248 5.70893 20.5469 6.28255 20.7698C6.83781 20.9856 7.47215 21.1327 8.40103 21.1753C9.33191 21.2176 9.62918 21.228 11.9991 21.228C14.3694 21.228 14.6659 21.2176 15.5968 21.1753C16.5259 21.1327 17.1608 20.9856 17.716 20.7698C18.2898 20.5469 18.776 20.248 19.2609 19.7625C19.7463 19.2774 20.0445 18.7905 20.2681 18.2167C20.4827 17.6616 20.6299 17.0273 20.6736 16.0985C20.7154 15.1676 20.7263 14.8709 20.7263 12.5007C20.7263 10.1305 20.7154 9.83307 20.6736 8.90216C20.6299 7.97307 20.4827 7.33889 20.2681 6.78398C20.0445 6.20998 19.7463 5.72307 19.2609 5.23798C18.7754 4.75253 18.29 4.45435 17.7155 4.23162C17.1591 4.0158 16.5246 3.86871 15.5955 3.82616C14.6647 3.7838 14.3683 3.77344 11.9975 3.77344H12.0002ZM11.2173 5.34616C11.4497 5.3458 11.7089 5.34616 12.0002 5.34616C14.3303 5.34616 14.6065 5.35453 15.5266 5.39635C16.3775 5.43526 16.8393 5.57744 17.1469 5.69689C17.5542 5.85507 17.8446 6.04416 18.1498 6.34962C18.4553 6.65507 18.6444 6.94598 18.8029 7.35326C18.9223 7.66053 19.0647 8.12235 19.1034 8.97326C19.1453 9.89326 19.1543 10.1696 19.1543 12.4987C19.1543 14.8278 19.1453 15.1042 19.1034 16.0242C19.0645 16.8751 18.9223 17.3369 18.8029 17.6442C18.6447 18.0514 18.4553 18.3414 18.1498 18.6467C17.8444 18.9522 17.5544 19.1413 17.1469 19.2994C16.8397 19.4194 16.3775 19.5613 15.5266 19.6002C14.6067 19.642 14.3303 19.6511 12.0002 19.6511C9.6699 19.6511 9.39373 19.642 8.47376 19.6002C7.62287 19.5609 7.16107 19.4187 6.85326 19.2993C6.446 19.1411 6.1551 18.952 5.84966 18.6465C5.54421 18.3411 5.35513 18.0509 5.19658 17.6434C5.07713 17.3362 4.93477 16.8743 4.89605 16.0234C4.85423 15.1034 4.84587 14.8271 4.84587 12.4965C4.84587 10.166 4.85423 9.89107 4.89605 8.97107C4.93496 8.12016 5.07713 7.65835 5.19658 7.35071C5.35476 6.94344 5.54421 6.65253 5.84966 6.34707C6.1551 6.04162 6.446 5.85253 6.85326 5.69398C7.16089 5.57398 7.62287 5.43216 8.47376 5.39307C9.27882 5.35671 9.59082 5.3458 11.2173 5.34398V5.34616ZM16.6586 6.79526C16.0804 6.79526 15.6114 7.2638 15.6114 7.84216C15.6114 8.42035 16.0804 8.88944 16.6586 8.88944C17.2368 8.88944 17.7058 8.42035 17.7058 7.84216C17.7058 7.26398 17.2368 6.79489 16.6586 6.79489V6.79526ZM12.0002 8.01889C9.52518 8.01889 7.51851 10.0256 7.51851 12.5007C7.51851 14.9758 9.52518 16.9816 12.0002 16.9816C14.4752 16.9816 16.4812 14.9758 16.4812 12.5007C16.4812 10.0256 14.475 8.01889 12 8.01889H12.0002ZM12.0002 9.59162C13.6067 9.59162 14.9092 10.894 14.9092 12.5007C14.9092 14.1073 13.6067 15.4098 12.0002 15.4098C10.3935 15.4098 9.09119 14.1073 9.09119 12.5007C9.09119 10.894 10.3935 9.59162 12.0002 9.59162Z" fill="url(#paint1_radial_1272_3856)"/>
<defs>
<radialGradient id="paint0_radial_1272_3856" cx="0" cy="0" r="1" gradientUnits="userSpaceOnUse" gradientTransform="translate(7.90866 22.5723) rotate(-90) scale(17.2987 16.0885)">
<stop stop-color="#FFDD55"/>
<stop offset="0.1" stop-color="#FFDD55"/>
<stop offset="0.5" stop-color="#FF543E"/>
<stop offset="1" stop-color="#C837AB"/>
</radialGradient>
<radialGradient id="paint1_radial_1272_3856" cx="0" cy="0" r="1" gradientUnits="userSpaceOnUse" gradientTransform="translate(0.348851 5.03083) rotate(78.6811) scale(7.7326 31.8729)">
<stop stop-color="#3771C8"/>
<stop offset="0.128" stop-color="#3771C8"/>
<stop offset="1" stop-color="#6600FF" stop-opacity="0"/>
</radialGradient>
</defs>
</svg>
