<svg width="24" height="25" viewBox="0 0 24 25" fill="none" xmlns="http://www.w3.org/2000/svg">
<path d="M17.5 17C17.7761 17 18 16.7761 18 16.5C18 16.2239 17.7761 16 17.5 16C17.2239 16 17 16.2239 17 16.5C17 16.7761 17.2239 17 17.5 17Z" fill="#FD9341"/>
<path d="M21 5.83673C21 5.3496 20.8025 4.88242 20.4508 4.53797C20.0992 4.19351 19.6223 4 19.125 4H2.875C2.37772 4 1.90081 4.19351 1.54917 4.53797C1.19754 4.88242 1 5.3496 1 5.83673L1 7.67347C0.999984 7.77671 1.02662 7.87828 1.07743 7.96873C1.12825 8.05919 1.20158 8.13558 1.29063 8.19082L10.6656 14.0071C10.7656 14.0692 10.8816 14.1021 11 14.1021C11.1184 14.1021 11.2344 14.0692 11.3344 14.0071L19.75 8.78469V17.1633C19.75 17.3256 19.6842 17.4814 19.5669 17.5962C19.4497 17.711 19.2908 17.7755 19.125 17.7755H2.875C2.70924 17.7755 2.55027 17.711 2.43306 17.5962C2.31585 17.4814 2.25 17.3256 2.25 17.1633V10.4286C2.25 10.2662 2.18415 10.1105 2.06694 9.99565C1.94973 9.88083 1.79076 9.81633 1.625 9.81633C1.45924 9.81633 1.30027 9.88083 1.18306 9.99565C1.06585 10.1105 1 10.2662 1 10.4286V17.1633C1 17.6504 1.19754 18.1176 1.54917 18.462C1.90081 18.8065 2.37772 19 2.875 19H19.125C19.6223 19 20.0992 18.8065 20.4508 18.462C20.8025 18.1176 21 17.6504 21 17.1633V5.83673ZM11 12.7643L2.25 7.33673V5.83673C2.25 5.67436 2.31585 5.51863 2.43306 5.40381C2.55027 5.28899 2.70924 5.22449 2.875 5.22449H19.125C19.2908 5.22449 19.4497 5.28899 19.5669 5.40381C19.6842 5.51863 19.75 5.67436 19.75 5.83673V7.33673L11 12.7643Z" fill="#1450A3"/>
<mask id="path-3-inside-1_1818_406" fill="white">
<path d="M15.2 17C15.4122 17 15.6157 16.9473 15.7657 16.8536C15.9157 16.7598 16 16.6326 16 16.5C16 16.3674 15.9157 16.2402 15.7657 16.1464C15.6157 16.0527 15.4122 16 15.2 16H10.8C10.5878 16 10.3843 16.0527 10.2343 16.1464C10.0843 16.2402 10 16.3674 10 16.5C10 16.6326 10.0843 16.7598 10.2343 16.8536C10.3843 16.9473 10.5878 17 10.8 17H15.2Z"/>
</mask>
<path d="M15.2 18C15.5619 18 15.9576 17.9129 16.2957 17.7016L15.2357 16.0056C15.2483 15.9977 15.2566 15.994 15.2592 15.9929C15.2618 15.9918 15.2607 15.9925 15.2555 15.9939C15.2504 15.9952 15.2428 15.9968 15.2328 15.998C15.2229 15.9993 15.2118 16 15.2 16V18ZM16.2957 17.7016C16.6285 17.4935 17 17.0894 17 16.5H15C15 16.1759 15.2029 16.0261 15.2357 16.0056L16.2957 17.7016ZM17 16.5C17 15.9106 16.6285 15.5065 16.2957 15.2984L15.2357 16.9944C15.2029 16.9739 15 16.8241 15 16.5H17ZM16.2957 15.2984C15.9576 15.0871 15.5619 15 15.2 15V17C15.2118 17 15.2229 17.0007 15.2328 17.002C15.2428 17.0032 15.2504 17.0048 15.2555 17.0061C15.2607 17.0075 15.2618 17.0082 15.2592 17.0071C15.2566 17.006 15.2483 17.0023 15.2357 16.9944L16.2957 15.2984ZM15.2 15H10.8V17H15.2V15ZM10.8 15C10.4381 15 10.0424 15.0871 9.70432 15.2984L10.7643 16.9944C10.7517 17.0023 10.7434 17.006 10.7408 17.0071C10.7382 17.0082 10.7393 17.0075 10.7445 17.0061C10.7496 17.0048 10.7572 17.0032 10.7672 17.002C10.7771 17.0007 10.7882 17 10.8 17V15ZM9.70432 15.2984C9.37146 15.5065 9 15.9106 9 16.5H11C11 16.8241 10.7971 16.9739 10.7643 16.9944L9.70432 15.2984ZM9 16.5C9 17.0894 9.37146 17.4935 9.70432 17.7016L10.7643 16.0056C10.7971 16.0261 11 16.1759 11 16.5H9ZM9.70432 17.7016C10.0424 17.9129 10.4381 18 10.8 18V16C10.7882 16 10.7771 15.9993 10.7672 15.998C10.7572 15.9968 10.7496 15.9952 10.7445 15.9939C10.7393 15.9925 10.7382 15.9918 10.7408 15.9929C10.7434 15.994 10.7517 15.9977 10.7643 16.0056L9.70432 17.7016ZM10.8 18H15.2V16H10.8V18Z" fill="#FD9341" mask="url(#path-3-inside-1_1818_406)"/>
</svg>
