<svg width="24" height="24" viewBox="0 0 24 24" fill="none" xmlns="http://www.w3.org/2000/svg">
<path d="M10.1439 6.62802C10.9305 4.66702 11.3238 3.68652 12.0001 3.68652C12.6764 3.68652 13.0697 4.66702 13.8563 6.62802L13.893 6.71934C14.3373 7.82721 14.5595 8.38114 15.0124 8.71783C15.4652 9.05452 16.0597 9.10776 17.2486 9.21423L17.4636 9.23348C19.4094 9.40774 20.3823 9.49488 20.5905 10.1139C20.7986 10.7328 20.0761 11.3902 18.6311 12.7049L18.1488 13.1436C17.4173 13.8092 17.0515 14.1419 16.8811 14.5781C16.8493 14.6594 16.8228 14.7428 16.8019 14.8276C16.6899 15.2822 16.797 15.765 17.0112 16.7304L17.0778 17.031C17.4715 18.8053 17.6684 19.6925 17.3247 20.0751C17.1963 20.2181 17.0293 20.3211 16.8439 20.3717C16.3477 20.5071 15.6433 19.933 14.2343 18.7849C13.3091 18.031 12.8465 17.6541 12.3154 17.5693C12.1065 17.5359 11.8937 17.5359 11.6847 17.5693C11.1536 17.6541 10.6911 18.031 9.76589 18.7849C8.35694 19.933 7.65246 20.5071 7.15626 20.3717C6.97084 20.3211 6.80393 20.2181 6.67551 20.0751C6.33183 19.6925 6.52866 18.8053 6.92234 17.031L6.98902 16.7304C7.20322 15.765 7.31033 15.2822 7.19827 14.8276C7.17737 14.7428 7.15093 14.6594 7.11913 14.5781C6.94866 14.1419 6.58291 13.8092 5.8514 13.1436L5.36912 12.7049C3.92408 11.3902 3.20155 10.7328 3.40973 10.1139C3.61791 9.49488 4.59082 9.40774 6.53663 9.23348L6.75157 9.21423C7.94049 9.10775 8.53494 9.05452 8.98779 8.71783C9.44064 8.38114 9.66284 7.8272 10.1072 6.71934L10.1439 6.62802Z" stroke="white"/>
<path d="M17 6L19 4" stroke="#FD9341" stroke-linecap="round"/>
<path d="M20 16L22 18" stroke="#FD9341" stroke-linecap="round"/>
<path d="M12 19.5V22" stroke="#FD9341" stroke-linecap="round"/>
<path d="M7 6L5 4" stroke="#FD9341" stroke-linecap="round"/>
<path d="M4 16L2 18" stroke="#FD9341" stroke-linecap="round"/>
</svg>
