<svg width="24" height="24" viewBox="0 0 24 24" fill="none" xmlns="http://www.w3.org/2000/svg">
<path d="M4 13C4 11.1144 4 10.1716 4.58579 9.58579C5.17157 9 6.11438 9 8 9H16C17.8856 9 18.8284 9 19.4142 9.58579C20 10.1716 20 11.1144 20 13V15C20 17.8284 20 19.2426 19.1213 20.1213C18.2426 21 16.8284 21 14 21H10C7.17157 21 5.75736 21 4.87868 20.1213C4 19.2426 4 17.8284 4 15V13Z" fill="#FD9341" stroke="#1450A3" stroke-width="1.2"/>
<path d="M16.5 9.00079L16.5776 8.3802C16.8365 6.30861 15.9043 4.26823 14.1688 3.10783V3.10783C12.1024 1.72616 9.36732 1.89646 7.48825 3.52378L6.66992 4.23247" stroke="#1450A3" stroke-width="1.2" stroke-linecap="round"/>
<circle cx="12" cy="15" r="2" fill="#1450A3"/>
</svg>
