<svg width="24" height="24" viewBox="0 0 24 24" fill="none" xmlns="http://www.w3.org/2000/svg">
<path d="M23.5876 15.1304C23.8565 14.1324 24 13.083 24 12L23.5876 8.86959C23.2868 7.75333 22.829 6.70147 22.2393 5.73914L19.4709 2.60869C17.4223 0.976816 14.8277 0.00120207 12.0052 0H11.9948C9.17234 0.00120158 6.57774 0.976815 4.5291 2.60869L1.76073 5.73914C1.17105 6.70147 0.713227 7.75333 0.412405 8.86959L0 12L1.13056e-06 12.0053C0.000465378 13.0864 0.143897 14.1341 0.412415 15.1304L1.76073 18.2609C2.49517 19.4594 3.43415 20.5191 4.52911 21.3913L12 24L19.4709 21.3913C20.5658 20.5191 21.5048 19.4594 22.2393 18.2609L23.5876 15.1304Z" fill="#EEEEEE"/>
<path d="M23.5876 8.86927C23.8565 9.86727 24 10.9167 24 11.9997H0C0 10.9167 0.143461 9.86727 0.412417 8.86927H23.5876Z" fill="#D80027"/>
<path d="M19.4709 2.6084C20.5658 3.4806 21.5048 4.54028 22.2393 5.73885H1.76073C2.49517 4.54028 3.43416 3.4806 4.52911 2.6084H19.4709Z" fill="#D80027"/>
<path d="M22.2393 18.2606C22.829 17.2982 23.2868 16.2464 23.5876 15.1301H0.412404C0.713226 16.2464 1.17105 17.2982 1.76072 18.2606H22.2393Z" fill="#D80027"/>
<path d="M19.4709 21.391H4.5291C6.57651 23.0219 9.16926 23.9974 11.9897 23.9997H12.0103C14.8307 23.9974 17.4235 23.0219 19.4709 21.391Z" fill="#D80027"/>
<path d="M0 11.5118C0.256135 5.11073 5.52635 0 11.9902 0C11.9935 0 11.9967 1.29233e-06 12 3.87651e-06V12H0V11.5118Z" fill="#0052B4"/>
<path fill-rule="evenodd" clip-rule="evenodd" d="M5.13318 2.1575C5.52539 1.88334 5.93476 1.63203 6.35934 1.4055L6.40421 1.54357H7.71198L6.65397 2.31227L7.0581 3.55604L6.00008 2.78734L4.94207 3.55604L5.34619 2.31227L5.13318 2.1575ZM1.387 6.39441C1.66389 5.87124 1.97833 5.37101 2.32673 4.8973L2.50421 5.44354H3.81199L2.75397 6.21223L3.1581 7.456L2.10009 6.68731L1.04207 7.456L1.387 6.39441ZM9.90009 0.299805L10.3042 1.54357H11.612L10.554 2.31227L10.9581 3.55604L9.90009 2.78734L8.84207 3.55604L9.2462 2.31227L8.18818 1.54357H9.49596L9.90009 0.299805ZM6.00008 4.19977L6.40421 5.44354H7.71198L6.65397 6.21223L7.0581 7.456L6.00008 6.68731L4.94207 7.456L5.34619 6.21223L4.28818 5.44354H5.59596L6.00008 4.19977ZM10.3042 5.44354L9.90009 4.19977L9.49596 5.44354H8.18818L9.2462 6.21223L8.84207 7.456L9.90009 6.68731L10.9581 7.456L10.554 6.21223L11.612 5.44354H10.3042ZM2.10009 8.09978L2.50421 9.34355H3.81199L2.75397 10.1122L3.1581 11.356L2.10009 10.5873L1.04207 11.356L1.4462 10.1122L0.388184 9.34355H1.69596L2.10009 8.09978ZM6.40421 9.34355L6.00008 8.09978L5.59596 9.34355H4.28818L5.34619 10.1122L4.94207 11.356L6.00008 10.5873L7.0581 11.356L6.65397 10.1122L7.71198 9.34355H6.40421ZM9.90009 8.09978L10.3042 9.34355H11.612L10.554 10.1122L10.9581 11.356L9.90009 10.5873L8.84207 11.356L9.2462 10.1122L8.18818 9.34355H9.49596L9.90009 8.09978Z" fill="#EEEEEE"/>
</svg>
