<svg width="1440" height="1024" viewBox="0 0 1440 1024" fill="none" xmlns="http://www.w3.org/2000/svg">
<g clip-path="url(#clip0_1250_16967)">
<mask id="mask0_1250_16967" style="mask-type:luminance" maskUnits="userSpaceOnUse" x="-542" y="0" width="3794" height="1024">
<path d="M3251.02 0H-542V1024H3251.02V0Z" fill="white"/>
</mask>
<g mask="url(#mask0_1250_16967)">
<path d="M2043.74 0H-580.749V888.912H2043.74V0Z" fill="url(#paint0_linear_1250_16967)"/>
<path fill-rule="evenodd" clip-rule="evenodd" d="M921.712 299.761C921.712 299.761 1016.95 286.477 1031.31 296.962C1045.67 307.501 1703.78 295.425 1703.78 295.425C1703.78 295.425 1697.77 229.61 1661.35 179.219C1645 156.659 1622.6 137.227 1591.85 128.17C1492.44 98.9681 1447.04 230.378 1447.04 230.378C1447.04 230.378 1447.34 227.359 1446.7 222.693V222.584C1446.02 217.589 1444.29 210.672 1440.08 203.756C1435.39 196.071 1427.61 188.386 1414.75 183.117C1389.49 172.742 1359.35 208.092 1344.21 229.006H1344.17C1338.53 236.855 1335.03 242.674 1334.62 243.388C1335.03 240.972 1345.18 180.976 1326.24 131.08C1313.05 96.3882 1285.8 66.6371 1231.45 64.2219C1153.27 60.7637 1092.12 135.032 1054.76 197.553C1027.96 242.399 921.712 299.706 921.712 299.706V299.761Z" fill="url(#paint1_linear_1250_16967)"/>
<path style="mix-blend-mode:multiply" opacity="0.5" fill-rule="evenodd" clip-rule="evenodd" d="M921.712 299.761C921.712 299.761 1016.95 286.478 1031.31 296.962C1045.67 307.501 1703.78 295.425 1703.78 295.425C1703.78 295.425 1697.77 229.61 1661.35 179.22C1621.02 299.048 1455.91 268.089 1448.77 254.97C1445.61 249.207 1445.53 236.472 1446.7 222.694V222.584C1446.02 217.589 1444.29 210.673 1440.08 203.756C1445.95 213.307 1445.95 292.022 1351.61 292.022C1327.59 292.022 1330.15 265.784 1344.21 229.061C1338.57 236.856 1335.07 242.674 1334.66 243.388C1335.07 240.973 1345.22 180.976 1326.28 131.08C1334.62 168.077 1348 256.013 1292.49 276.542C1230.51 299.487 1092.54 272.81 1054.84 197.499C1028.04 242.345 921.787 299.652 921.787 299.652L921.712 299.761ZM1476.92 268.418C1514.43 287.685 1414.41 293.614 1405.99 292.077C1397.5 290.485 1437.15 247.999 1476.92 268.418ZM1053.75 230.379C1119.78 249.646 1140.34 290.54 1140.34 290.54C1140.34 290.54 1115.01 302.89 1088.59 282.086C1062.2 261.228 1053.75 230.379 1053.75 230.379Z" fill="url(#paint2_linear_1250_16967)"/>
<path fill-rule="evenodd" clip-rule="evenodd" d="M1030.48 264.795C1057.24 229.829 1055.82 172.248 1031.87 153.749C986.283 118.509 962.153 282.305 962.153 282.305C962.153 282.305 1003.68 299.76 1030.45 264.849L1030.48 264.795Z" fill="url(#paint3_linear_1250_16967)"/>
<path fill-rule="evenodd" clip-rule="evenodd" d="M-435.182 442.149L350.608 439.13C350.608 439.13 347.338 427.438 341.662 411.849C330.913 382.427 310.73 340.106 286.976 326.164C265.102 313.374 259.84 338.843 258.374 351.688C257.171 362.117 259.427 372.876 259.953 375.182C259.013 371.559 252.699 347.407 242.851 321.168C230.937 289.331 213.498 253.487 193.653 246.736C163.434 236.416 158.924 313.868 158.661 354.927C158.586 369.253 158.999 378.969 158.999 378.969C158.999 378.969 157.534 368.265 154.94 354.268C150.204 328.579 141.56 291.582 130.961 288.837C121.076 286.312 118.295 302.835 117.656 316.997C117.205 327.042 117.881 335.879 117.881 335.879C117.881 335.879 116.754 329.896 113.409 323.584C109.876 316.942 103.787 309.751 93.7142 308.543C77.8533 306.622 60.6393 341.753 53.6109 357.946C51.6941 362.337 50.5666 365.246 50.4163 365.63C50.4915 364.313 53.3854 326.658 49.2887 284.501C44.2523 232.299 28.3538 171.04 -20.2812 154.902C-102.066 127.841 -198.021 307.775 -236.395 388.136C-246.017 408.281 -251.391 420.961 -251.391 420.961C-251.391 420.961 -267.29 375.895 -327.088 372.766C-393.049 369.308 -435.182 442.204 -435.182 442.204V442.149Z" fill="url(#paint4_linear_1250_16967)"/>
<path style="mix-blend-mode:multiply" opacity="0.35" fill-rule="evenodd" clip-rule="evenodd" d="M-435.182 442.15L350.608 439.186C350.608 439.186 347.375 427.494 341.662 411.905C298.139 439.076 268.109 370.188 258.374 351.744C257.247 361.679 259.201 371.889 259.84 374.853C258.6 370.133 252.36 346.694 242.851 321.224C225.487 415.857 168.02 375.238 158.924 368.376C158.924 374.14 158.924 376.994 158.924 378.312C158.586 375.732 157.195 366.18 154.978 354.269C152.046 358.825 143.026 370.133 132.427 356.135C126.939 348.89 121.828 333.081 117.693 317.053C117.28 327.098 117.919 335.935 117.919 335.935C117.919 335.935 116.829 330.007 113.446 323.64C111.229 334.508 106.08 345.377 95.9693 354.489C69.8853 377.872 58.1588 366.345 53.6485 358.002C51.7317 362.393 50.6041 365.302 50.4538 365.686C50.5666 364.369 53.4231 326.713 49.3263 284.502C33.8037 311.563 -23.4007 412.234 -122.249 423.377C-163.856 428.098 -221.737 414.43 -236.357 388.137C-245.979 408.227 -251.391 420.962 -251.391 420.962C-251.391 420.962 -256.728 405.812 -272.364 392.693C-315.361 429.964 -383.39 436.99 -431.762 436.771C-434.055 440.119 -435.182 442.095 -435.182 442.095V442.15ZM255.292 421.895C213.31 412.454 182.678 392.803 182.678 392.803C182.678 392.803 263.937 360.691 306.182 424.475C306.182 424.475 292.84 430.349 255.33 421.895H255.292ZM133.705 432.38C133.705 432.38 176.326 389.125 210.077 411.685L222.029 420.962C222.029 420.962 223.495 422.883 204.74 431.666C184.971 440.943 133.705 432.38 133.705 432.38ZM18.4314 437.539C18.4314 437.539 102.922 320.456 168.245 386.929C168.245 386.929 171.665 408.063 135.584 422.664C98.3371 437.704 18.4314 437.539 18.4314 437.539ZM-26.821 428.592C-26.821 428.592 -21.2959 367.608 7.19348 359.045C35.0064 350.646 57.5574 387.918 57.5574 387.918C57.5574 387.918 34.3299 422.719 -26.821 428.592ZM-232.9 425.024C-199.486 406.141 -144.124 434.411 -138.975 436.496C-145.176 435.893 -218.655 439.241 -229.404 433.313C-240.755 427.055 -232.937 425.024 -232.937 425.024H-232.9Z" fill="url(#paint5_linear_1250_16967)"/>
<path fill-rule="evenodd" clip-rule="evenodd" d="M506.548 437.045L668.577 437.264L733.411 437.374H745.513L1015.71 437.758C1015.71 437.758 1013.64 429.085 1009.89 422.059C1007.59 417.723 1004.7 413.99 1001.2 413.222C994.138 411.685 982.787 425.902 977.939 432.489C976.511 434.465 975.646 435.782 975.646 435.782C975.646 435.782 972.226 418.711 964.408 398.785C954.486 373.645 937.422 343.51 910.887 337.142C870.258 327.426 867.401 396.37 867.815 422.004C867.89 427.768 868.153 431.391 868.153 431.391C868.153 431.391 867.965 430.842 867.665 429.854C867.589 429.634 867.477 429.36 867.401 429.085C867.214 428.536 866.95 427.878 866.687 427.164C866.424 426.451 866.124 425.627 865.748 424.859C865.071 423.212 864.282 421.401 863.342 419.589C863.154 419.205 862.966 418.876 862.778 418.491C862.591 418.162 862.403 417.833 862.215 417.448C861.839 416.735 861.388 416.021 860.974 415.308C858.644 411.575 855.825 408.391 852.668 407.129C846.73 404.823 843.836 415.088 842.483 422.718C842.483 422.718 842.483 422.773 842.483 422.828C842.219 424.42 841.994 425.902 841.881 427.109C841.844 427.548 841.806 427.933 841.731 428.317C841.693 428.756 841.656 429.195 841.618 429.524V429.36C841.618 429.36 841.656 428.756 841.656 428.372C841.919 421.51 842.407 399.444 838.461 374.249C835.905 358.111 831.508 340.6 823.991 324.792C822.863 322.431 821.661 320.071 820.345 317.766C810.423 300.036 795.915 285.105 774.604 277.914C709.544 255.958 660.158 363.874 642.418 409.764C637.87 421.62 635.464 429.195 635.464 429.195C635.464 429.195 635.089 428.317 634.374 426.835C634.262 426.56 634.149 426.286 633.999 426.011C633.36 424.639 632.42 422.773 631.368 420.797C630.729 419.589 629.977 418.272 629.188 416.9C628.925 416.46 628.661 416.021 628.361 415.527C624.64 409.27 619.641 402.079 613.853 397.139C610.621 394.394 607.163 392.308 603.555 391.54C602.991 391.43 602.502 391.32 601.939 391.265C583.259 389.234 572.171 425.682 572.171 425.682C572.171 425.682 567.172 419.37 562.362 418.546C558.941 417.942 547.553 427.658 529.663 433.257H529.625C527.107 434.081 524.438 434.794 521.657 435.398C520.717 435.617 519.778 435.782 518.801 435.947C517.861 436.112 516.921 436.276 515.944 436.386C512.937 436.825 509.818 437.045 506.548 437.154V437.045Z" fill="url(#paint6_linear_1250_16967)"/>
<path fill-rule="evenodd" clip-rule="evenodd" d="M475.39 436.988H504.631C505.27 437.043 505.909 437.043 506.548 436.988H475.39Z" fill="url(#paint7_linear_1250_16967)"/>
<path style="mix-blend-mode:multiply" opacity="0.35" fill-rule="evenodd" clip-rule="evenodd" d="M746.829 422.774C746.829 422.774 777.874 372.109 794.862 369.035C811.55 366.016 820.571 376.555 820.571 376.555C812.49 422.609 746.829 422.829 746.829 422.829V422.774ZM506.548 437.1L668.577 437.32C679.552 428.702 695.45 419.041 709.169 421.456C721.534 423.652 729.051 430.898 733.411 437.43H741.454C747.468 433.862 804.71 400.488 829.741 423.378C829.741 423.378 828.426 425.079 821.022 429.086C814.707 432.545 761.712 436.332 745.476 437.485L1015.67 437.814C1015.67 437.814 1013.61 429.141 1009.85 422.115C1001.17 433.862 983.877 433.203 977.901 432.599C976.473 434.576 975.609 435.893 975.609 435.893C975.609 435.893 972.188 418.822 964.371 398.896C959.973 411.905 946.067 435.399 901.717 434.905C886.795 434.74 875.821 429.745 867.777 422.115C867.853 427.879 868.116 431.502 868.116 431.502C868.116 431.502 867.928 430.953 867.627 429.965C867.552 429.745 867.439 429.471 867.364 429.196C867.176 428.647 866.913 427.989 866.65 427.275C866.387 426.561 866.086 425.738 865.71 424.97C865.034 423.323 864.244 421.511 863.305 419.7C863.117 419.316 862.929 418.986 862.741 418.602C862.553 418.273 862.365 417.943 862.177 417.559C861.801 416.846 861.35 416.132 860.937 415.418C856.577 437.375 841.881 428.977 841.881 428.977L842.407 422.938C842.144 424.53 841.919 426.012 841.806 427.22C841.769 427.659 841.731 428.043 841.656 428.428C841.618 428.867 841.581 429.306 841.543 429.635V429.471C841.543 429.471 841.581 428.867 841.581 428.483C841.844 421.621 842.332 399.555 838.386 374.36C835.83 358.222 831.433 340.711 823.916 324.902C788.886 375.951 721.233 440.614 642.38 409.874C637.832 421.731 635.427 429.306 635.427 429.306C635.427 429.306 635.051 428.428 634.337 426.946C634.224 426.671 634.111 426.397 633.961 426.122C633.322 424.75 632.382 422.884 631.33 420.908C630.654 419.7 629.939 418.382 629.15 417.01C628.887 416.571 628.624 416.132 628.323 415.638C608.478 438.198 572.171 425.793 572.171 425.793C572.171 425.793 561.572 441.437 529.663 433.368H529.625C527.107 434.191 524.438 434.905 521.657 435.509C520.717 435.728 519.778 435.893 518.801 436.058C517.861 436.222 516.921 436.387 515.944 436.497C512.937 436.936 509.818 437.155 506.548 437.265V437.1Z" fill="url(#paint8_linear_1250_16967)"/>
<path style="mix-blend-mode:multiply" opacity="0.5" fill-rule="evenodd" clip-rule="evenodd" d="M475.39 436.988H504.631C505.27 437.043 505.909 437.043 506.548 436.988H475.39Z" fill="url(#paint9_linear_1250_16967)"/>
<path fill-rule="evenodd" clip-rule="evenodd" d="M740.965 437.649C740.965 437.649 742.619 437.54 745.513 437.375H741.492C741.153 437.54 741.003 437.649 741.003 437.649H740.965Z" fill="url(#paint10_linear_1250_16967)"/>
<path fill-rule="evenodd" clip-rule="evenodd" d="M333.356 704.751C333.356 704.751 484.373 694.815 493.318 690.314C502.225 685.813 510.156 674.78 516.808 675.054C523.423 675.274 636.592 587.448 641.102 581.19C645.612 574.932 960.687 828.641 1245.73 835.941C1530.78 843.242 1742.04 770.291 1742.04 770.291C1742.04 770.291 1466.47 982.886 938.625 953.738C410.781 924.591 333.356 704.806 333.356 704.806V704.751Z" fill="url(#paint11_linear_1250_16967)"/>
<path fill-rule="evenodd" clip-rule="evenodd" d="M641.065 581.135C641.065 581.135 601.788 615.222 680.341 675.109C680.341 675.109 659.181 652.823 655.836 638.716C652.49 624.609 808.017 707.989 877.474 739.003C877.474 739.003 772.95 690.149 746.077 694.76C719.204 699.426 895.665 815.686 895.665 815.686C895.665 815.686 844.813 768.479 849.436 757.336C854.059 746.138 963.882 765.46 963.882 765.46C963.882 765.46 751.377 659.465 641.102 581.135H641.065Z" fill="#D2E4F9"/>
<path fill-rule="evenodd" clip-rule="evenodd" d="M-359.824 572.848C-359.824 572.848 -196.893 393.243 -191.18 383.801C-185.505 374.305 -185.43 373.043 -174.38 371.67C-163.33 370.298 -73.389 219.347 -65.6089 217.316C-57.8288 215.285 121.564 451.812 131.337 461.857C141.109 471.902 153.023 485.241 157.345 491.883C161.668 498.525 526.656 773.915 578.297 822.164C629.902 870.414 725.217 892.151 750.061 860.808C774.905 829.465 873.001 781.38 895.816 740.266C918.63 699.153 964.032 690.425 971.286 680.654C982.411 665.614 1014.06 635.973 1021.54 629.77C1029.02 623.567 1138.39 487.711 1143.88 489.522C1149.36 491.334 1380.36 715.291 1435.35 733.46C1490.3 751.629 1544.95 786.814 1544.95 786.814L1588.92 1016.54L606.411 997.598L-243.837 893.523L-359.824 572.903V572.848Z" fill="url(#paint12_linear_1250_16967)"/>
<path fill-rule="evenodd" clip-rule="evenodd" d="M157.346 491.827C136.787 487.326 259.727 703.269 259.727 703.269L458.665 1005.61C458.665 1005.61 103.449 617.364 46.9208 434.685C6.89274 305.416 131.374 461.801 131.374 461.801L157.383 491.827H157.346Z" fill="#C1C9F8"/>
<path fill-rule="evenodd" clip-rule="evenodd" d="M58.9856 369.53C-37.0441 270.012 12.2674 443.359 60.0003 537.992C107.733 632.625 341.662 939.687 341.662 939.687L142.988 963.181C142.988 963.181 -32.9849 330.392 -32.0453 297.073C-31.1057 263.754 -1.97732 291.749 -1.97732 291.749L58.948 369.475L58.9856 369.53Z" fill="#C1C9F8"/>
<path fill-rule="evenodd" clip-rule="evenodd" d="M931.371 703.488C971.286 680.598 918.028 812.612 918.028 812.612L931.371 806.849C931.371 806.849 969.106 707.221 971.549 692.181C973.992 677.14 931.371 703.543 931.371 703.543V703.488Z" fill="#BBC4F8"/>
<path fill-rule="evenodd" clip-rule="evenodd" d="M1021.5 629.714C1021.5 629.714 1076.52 580.641 1107.12 567.247C1137.71 553.854 995.304 803.665 995.304 803.665L1000.04 803.829C1000.04 803.829 1077.99 653.372 1096.67 628.232C1115.35 603.092 1102.42 646.181 1102.42 646.181C1102.42 646.181 1141.43 563.679 1146.02 521.852C1150.6 480.025 1122.9 510.325 1122.9 510.325L1021.46 629.714H1021.5Z" fill="#C1C9F8"/>
<path fill-rule="evenodd" clip-rule="evenodd" d="M1051.49 771.884C1051.49 771.884 1086.71 695.585 1102.76 661.771C1102.76 661.771 1095.92 716.224 1051.49 771.884Z" fill="#BBC4F8"/>
<g style="mix-blend-mode:multiply" opacity="0.2">
<path fill-rule="evenodd" clip-rule="evenodd" d="M-171.749 369.968C-171.749 369.968 -104.02 288.235 -72.186 224.561C-72.186 224.561 -56.3251 267.541 -47.6805 297.841C-41.7045 318.809 -20.2811 406.196 -20.2811 406.196C-20.2811 406.196 -38.3219 362.448 -45.9141 353.446C-53.5062 344.444 -31.7069 487.491 -14.8312 535.246C2.04443 583.002 -8.40424 484.966 -8.40424 484.966L143.176 950.884L-338.25 576.909C-338.25 576.909 -194.488 383.032 -187.61 377.872C-180.731 372.713 -171.786 369.968 -171.786 369.968H-171.749Z" fill="#7250B8"/>
</g>
<g style="mix-blend-mode:multiply" opacity="0.2">
<path fill-rule="evenodd" clip-rule="evenodd" d="M1146.28 532.338L1092.54 741.639C1092.54 741.639 1133.95 626.312 1145.15 597.659C1156.32 569.005 1089.94 891.438 1089.94 891.438L1488.53 787.967C1488.53 787.967 1336.5 663.144 1306.13 636.302C1275.76 609.46 1150.15 494.627 1149.82 494.353C1149.51 494.079 1146.24 532.283 1146.24 532.283L1146.28 532.338Z" fill="#7250B8"/>
</g>
<path fill-rule="evenodd" clip-rule="evenodd" d="M2039.75 123.285L2027.43 835.996C2027.43 835.996 1896.1 836.435 1682.43 835.118L1692.58 821.01L1242.84 869.425C1242.84 869.425 1484.1 694.376 1627.63 510.49C1663.6 464.436 1655.63 508.458 1669.09 494.9C1682.55 481.342 1718.1 440.558 1762.6 370.187C1807.1 299.816 1843.22 295.919 1858.07 272.755C1861.26 267.814 1868.03 257.989 1876.75 245.583L1877.27 244.815C1909.26 199.31 2033.78 -7.63086 2033.78 -7.63086L2039.75 123.23V123.285Z" fill="url(#paint13_linear_1250_16967)"/>
<path style="mix-blend-mode:multiply" fill-rule="evenodd" clip-rule="evenodd" d="M2036.71 297.73C2036.71 297.73 2009.31 215.393 1933.84 477.115C1933.84 477.115 1961.39 361.678 1961.8 294.985C1924.71 519.217 1820.78 688.337 1820.78 688.337C1820.78 688.337 1824.65 499.84 1749.11 575.371C1695.17 629.274 1602.11 829.847 1602.11 829.847L1577.19 835.886C1577.19 835.886 1647.18 682.848 1668.19 567.576C1677.66 515.704 1642.52 568.564 1642.52 568.564C1642.52 568.564 1535.63 786.922 1310.68 859.269C1310.68 859.269 1875.13 829.957 2027.28 773.254L2036.67 297.785L2036.71 297.73Z" fill="url(#paint14_linear_1250_16967)"/>
<g style="mix-blend-mode:soft-light" opacity="0.5">
<path fill-rule="evenodd" clip-rule="evenodd" d="M1256.44 859.324C1256.44 859.324 1404.79 849.718 1488.98 761.013C1573.14 672.309 1612.26 568.399 1609.67 560.33C1607.07 552.261 1256.44 859.379 1256.44 859.379V859.324Z" fill="#BC8567"/>
</g>
<path fill-rule="evenodd" clip-rule="evenodd" d="M165.464 948.194C165.464 948.194 17.9802 819.309 9.26044 810.965C0.54071 802.622 -31.3313 793.345 -31.3313 793.345C-31.3313 793.345 -42.2686 786.484 -47.7184 781.434C-53.1682 776.384 -235.418 514.606 -246.092 491.607C-254.661 473.108 -280.821 414.155 -300.177 379.848C-304.913 371.45 -313.256 378.86 -316.188 372.108C-331.072 337.636 -595.595 -151.666 -595.595 -151.666L-581.538 52.1459L-594.092 777.427L165.426 948.249L165.464 948.194Z" fill="url(#paint15_linear_1250_16967)"/>
<path fill-rule="evenodd" clip-rule="evenodd" d="M1.93104 806.025C1.93104 806.025 -18.1769 799.712 -31.0686 799.218C-43.9603 798.724 36.9603 888.801 36.9603 888.801L-1.78984 875.078C-1.78984 875.078 -52.1914 786.044 -62.3017 772.76C-72.3745 759.477 -36.105 792.576 -31.3317 793.29C-26.5584 794.004 1.93104 806.025 1.93104 806.025Z" fill="url(#paint16_linear_1250_16967)"/>
<path style="mix-blend-mode:screen" opacity="0.5" fill-rule="evenodd" clip-rule="evenodd" d="M356.095 983.16C356.095 983.16 138.065 924.261 -1 829.683C-100.488 762.057 -110.26 840.991 -132.698 824.853C-155.136 808.66 -223.466 655.458 -289.014 617.912C-370.987 570.925 -368.243 649.585 -368.243 649.585C-368.243 649.585 -374.67 642.888 -381.36 644.809C-388.013 646.73 -367.98 638.826 -374.144 568.675C-380.308 498.523 -586.199 321.938 -586.199 321.938L-593.001 715.564L356.095 983.16Z" fill="url(#paint17_linear_1250_16967)"/>
<path style="mix-blend-mode:screen" fill-rule="evenodd" clip-rule="evenodd" d="M1631.5 258.153C2372.49 456.147 801.214 590.191 703.643 523.718C348.164 281.537 472.007 346.693 511.058 360.635C550.109 374.633 528.873 388.52 503.391 386.764C477.87 385.007 122.466 261.995 122.466 261.995C122.466 261.995 355.531 299.87 317.27 277.2C279.008 254.53 544.471 441.381 573.862 421.949C856.013 235.154 1585.24 386.489 1742.23 353.609C1899.22 320.674 1612.26 250.688 1593.17 259.031C1574.07 267.375 1636.8 303.548 1516.38 297.071C1395.96 290.594 282.917 109.287 48.6496 -16.2493C-185.618 -141.786 559.806 -67.9022 578.11 -70.1527C665.081 -80.8565 684.625 -42.707 684.625 -42.707C684.625 -42.707 413.224 -122.903 346.21 -31.3994C323.509 -0.385696 539.923 24.3154 496.212 21.4611C452.463 18.6067 37.6747 -60.4918 151.858 18.1127C256.908 90.4597 1805.45 408.885 1479.89 225.218C1520.82 186.19 1631.47 258.153 1631.47 258.153H1631.5Z" fill="url(#paint18_radial_1250_16967)"/>
<path d="M842.206 205.697C855.656 275.738 745.365 295.28 733.946 224.854C720.495 154.813 830.787 135.271 842.206 205.697Z" fill="#FFFFD2"/>
<path style="mix-blend-mode:screen" opacity="0.44" d="M759.089 235.063L-765.948 -95.7129L-808 191.589L779.401 231.989L-716.978 1017.98L-126.76 1039.22L779.401 231.989L860.048 1315.77L894.854 1304.57L779.401 231.989L1054.77 1296.22L1238.63 1284.26L778.523 240.607L759.089 235.063Z" fill="url(#paint19_linear_1250_16967)"/>
<path style="mix-blend-mode:screen" opacity="0.63" d="M808.059 243.881L1322.3 1146.68L1429.73 1061.76L796.53 226.865L2196.23 226.7L2486.92 96.6075L796.53 226.865L1741.28 -310.632L1716.25 -337.254L796.53 226.865L1640.16 -478.161L1550.57 -639.103L804.765 223.901L808.059 243.881Z" fill="url(#paint20_linear_1250_16967)"/>
<path style="mix-blend-mode:screen" opacity="0.8" d="M814.858 864.593C1239.79 864.593 1584.26 802.613 1584.26 726.157C1584.26 649.701 1239.79 587.721 814.858 587.721C389.928 587.721 45.4551 649.701 45.4551 726.157C45.4551 802.613 389.928 864.593 814.858 864.593Z" fill="url(#paint21_radial_1250_16967)"/>
</g>
<g clip-path="url(#clip1_1250_16967)">
<g filter="url(#filter0_bd_1250_16967)">
<rect x="78" y="-80" width="1284" height="80" rx="40" fill="white" fill-opacity="0.2" shape-rendering="crispEdges"/>
</g>
</g>
<rect x="1306.5" y="44.5" width="23" height="23" rx="3.5" stroke="#1450A3"/>
<path d="M1321.21 55.1056L1316.74 52.8683C1315.94 52.4694 1315 53.0496 1315 53.9416V58.0584C1315 58.9504 1315.94 59.5306 1316.74 59.1317L1321.21 56.8944C1321.95 56.5259 1321.95 55.4741 1321.21 55.1056Z" stroke="#FD9341" stroke-linecap="round" stroke-linejoin="round"/>
<path d="M1311.24 54.1883C1311.52 53.1511 1312.03 52.1918 1312.74 51.3846C1313.45 50.5773 1314.33 49.9437 1315.32 49.5328C1316.31 49.122 1317.39 48.9448 1318.46 49.015C1319.53 49.0852 1320.57 49.401 1321.5 49.9378C1322.43 50.4747 1323.22 51.2182 1323.82 52.111C1324.42 53.0038 1324.8 54.0218 1324.94 55.0863C1325.08 56.1508 1324.97 57.2333 1324.63 58.2501C1324.28 59.2668 1323.71 60.1905 1322.95 60.9497" stroke="#1450A3" stroke-linecap="round"/>
</g>
<defs>
<filter id="filter0_bd_1250_16967" x="68" y="-90" width="1304" height="100" filterUnits="userSpaceOnUse" color-interpolation-filters="sRGB">
<feFlood flood-opacity="0" result="BackgroundImageFix"/>
<feGaussianBlur in="BackgroundImageFix" stdDeviation="5"/>
<feComposite in2="SourceAlpha" operator="in" result="effect1_backgroundBlur_1250_16967"/>
<feColorMatrix in="SourceAlpha" type="matrix" values="0 0 0 0 0 0 0 0 0 0 0 0 0 0 0 0 0 0 127 0" result="hardAlpha"/>
<feOffset dy="4"/>
<feGaussianBlur stdDeviation="2"/>
<feComposite in2="hardAlpha" operator="out"/>
<feColorMatrix type="matrix" values="0 0 0 0 0 0 0 0 0 0 0 0 0 0 0 0 0 0 0.12 0"/>
<feBlend mode="normal" in2="effect1_backgroundBlur_1250_16967" result="effect2_dropShadow_1250_16967"/>
<feBlend mode="normal" in="SourceGraphic" in2="effect2_dropShadow_1250_16967" result="shape"/>
</filter>
<linearGradient id="paint0_linear_1250_16967" x1="731.494" y1="5.92828" x2="731.494" y2="743.724" gradientUnits="userSpaceOnUse">
<stop stop-color="#484AFF"/>
<stop offset="0.06" stop-color="#4854FE"/>
<stop offset="0.18" stop-color="#4A71FE"/>
<stop offset="0.32" stop-color="#4E9FFD"/>
<stop offset="0.36" stop-color="#4FACFD"/>
<stop offset="0.41" stop-color="#58B4F9"/>
<stop offset="0.67" stop-color="#84DDE7"/>
<stop offset="0.88" stop-color="#9FF5DC"/>
<stop offset="1" stop-color="#A9FFD9"/>
</linearGradient>
<linearGradient id="paint1_linear_1250_16967" x1="1312.78" y1="305.25" x2="1308.3" y2="92.4314" gradientUnits="userSpaceOnUse">
<stop stop-color="#B1E2FD"/>
<stop offset="0.41" stop-color="#C9EEF8"/>
<stop offset="1" stop-color="#E9FFF3"/>
</linearGradient>
<linearGradient id="paint2_linear_1250_16967" x1="1308.88" y1="167.693" x2="1329.83" y2="498.148" gradientUnits="userSpaceOnUse">
<stop stop-color="white"/>
<stop offset="0.16" stop-color="#E7EBFA"/>
<stop offset="0.48" stop-color="#ACB8ED"/>
<stop offset="0.95" stop-color="#4E67D9"/>
<stop offset="1" stop-color="#435ED7"/>
</linearGradient>
<linearGradient id="paint3_linear_1250_16967" x1="1004.21" y1="289.496" x2="1015.62" y2="165.944" gradientUnits="userSpaceOnUse">
<stop stop-color="#B1E2FD"/>
<stop offset="0.41" stop-color="#C9EEF8"/>
<stop offset="1" stop-color="#E9FFF3"/>
</linearGradient>
<linearGradient id="paint4_linear_1250_16967" x1="-39.4871" y1="658.202" x2="-53.7509" y2="146.77" gradientUnits="userSpaceOnUse">
<stop stop-color="#B1E2FD"/>
<stop offset="0.41" stop-color="#C9EEF8"/>
<stop offset="1" stop-color="#E9FFF3"/>
</linearGradient>
<linearGradient id="paint5_linear_1250_16967" x1="-41.7798" y1="265.18" x2="-43.5434" y2="532.166" gradientUnits="userSpaceOnUse">
<stop stop-color="white"/>
<stop offset="0.16" stop-color="#E7EBFA"/>
<stop offset="0.48" stop-color="#ACB8ED"/>
<stop offset="0.95" stop-color="#4E67D9"/>
<stop offset="1" stop-color="#435ED7"/>
</linearGradient>
<linearGradient id="paint6_linear_1250_16967" x1="766.373" y1="617.967" x2="747.732" y2="317.775" gradientUnits="userSpaceOnUse">
<stop stop-color="#B1E2FD"/>
<stop offset="0.41" stop-color="#C9EEF8"/>
<stop offset="1" stop-color="#E9FFF3"/>
</linearGradient>
<linearGradient id="paint7_linear_1250_16967" x1="490.912" y1="438.964" x2="490.992" y2="436.551" gradientUnits="userSpaceOnUse">
<stop stop-color="#B1E2FD"/>
<stop offset="0.41" stop-color="#C9EEF8"/>
<stop offset="1" stop-color="#E9FFF3"/>
</linearGradient>
<linearGradient id="paint8_linear_1250_16967" x1="761.562" y1="328.031" x2="760.28" y2="477.385" gradientUnits="userSpaceOnUse">
<stop stop-color="white"/>
<stop offset="0.16" stop-color="#E7EBFA"/>
<stop offset="0.48" stop-color="#ACB8ED"/>
<stop offset="0.95" stop-color="#4E67D9"/>
<stop offset="1" stop-color="#435ED7"/>
</linearGradient>
<linearGradient id="paint9_linear_1250_16967" x1="490.95" y1="436.933" x2="490.95" y2="437.427" gradientUnits="userSpaceOnUse">
<stop stop-color="white"/>
<stop offset="0.16" stop-color="#E7EBFA"/>
<stop offset="0.48" stop-color="#ACB8ED"/>
<stop offset="0.95" stop-color="#4E67D9"/>
<stop offset="1" stop-color="#435ED7"/>
</linearGradient>
<linearGradient id="paint10_linear_1250_16967" x1="743.221" y1="437.43" x2="743.221" y2="437.759" gradientUnits="userSpaceOnUse">
<stop stop-color="white"/>
<stop offset="0.16" stop-color="#E7EBFA"/>
<stop offset="0.48" stop-color="#ACB8ED"/>
<stop offset="0.95" stop-color="#4E67D9"/>
<stop offset="1" stop-color="#435ED7"/>
</linearGradient>
<linearGradient id="paint11_linear_1250_16967" x1="1033.9" y1="957.341" x2="1047.17" y2="595.815" gradientUnits="userSpaceOnUse">
<stop stop-color="#B8E2FD"/>
<stop offset="0.27" stop-color="#B4DCFD"/>
<stop offset="0.6" stop-color="#ACCDFD"/>
<stop offset="0.96" stop-color="#9DB5FD"/>
<stop offset="1" stop-color="#9CB2FD"/>
</linearGradient>
<linearGradient id="paint12_linear_1250_16967" x1="611.071" y1="997.551" x2="638.77" y2="243.078" gradientUnits="userSpaceOnUse">
<stop stop-color="#A5ABFD"/>
<stop offset="0.23" stop-color="#9FA8F9"/>
<stop offset="0.5" stop-color="#909FF0"/>
<stop offset="0.8" stop-color="#7891E2"/>
<stop offset="1" stop-color="#6486D6"/>
</linearGradient>
<linearGradient id="paint13_linear_1250_16967" x1="1634.62" y1="883.579" x2="1667.84" y2="-21.3059" gradientUnits="userSpaceOnUse">
<stop stop-color="#9D8C9D"/>
<stop offset="0.25" stop-color="#9A8698"/>
<stop offset="0.57" stop-color="#93778B"/>
<stop offset="0.9" stop-color="#885F77"/>
<stop offset="1" stop-color="#855770"/>
</linearGradient>
<linearGradient id="paint14_linear_1250_16967" x1="1668.69" y1="872.146" x2="1690.69" y2="272.965" gradientUnits="userSpaceOnUse">
<stop offset="0.02" stop-color="white"/>
<stop offset="0.11" stop-color="#F0EEF4"/>
<stop offset="0.4" stop-color="#C5BAD5"/>
<stop offset="0.66" stop-color="#A594BE"/>
<stop offset="0.86" stop-color="#927DB1"/>
<stop offset="0.99" stop-color="#8B75AC"/>
</linearGradient>
<linearGradient id="paint15_linear_1250_16967" x1="-224.249" y1="933.773" x2="-184.952" y2="-136.604" gradientUnits="userSpaceOnUse">
<stop stop-color="#9D8C9D"/>
<stop offset="0.25" stop-color="#9A8698"/>
<stop offset="0.57" stop-color="#93778B"/>
<stop offset="0.9" stop-color="#885F77"/>
<stop offset="1" stop-color="#855770"/>
</linearGradient>
<linearGradient id="paint16_linear_1250_16967" x1="-14.5155" y1="886.838" x2="-10.2838" y2="771.575" gradientUnits="userSpaceOnUse">
<stop stop-color="#D8D7FD"/>
<stop offset="0.3" stop-color="#C7C6EC"/>
<stop offset="0.69" stop-color="#B9B7DE"/>
<stop offset="1" stop-color="#B5B2D9"/>
</linearGradient>
<linearGradient id="paint17_linear_1250_16967" x1="-120.39" y1="965.589" x2="-97.4176" y2="339.869" gradientUnits="userSpaceOnUse">
<stop stop-color="#4D98FD"/>
<stop offset="0.03" stop-color="#4990F0"/>
<stop offset="0.19" stop-color="#366AB1"/>
<stop offset="0.35" stop-color="#254A7B"/>
<stop offset="0.5" stop-color="#182F4F"/>
<stop offset="0.64" stop-color="#0D1A2C"/>
<stop offset="0.77" stop-color="#060C14"/>
<stop offset="0.9" stop-color="#010305"/>
<stop offset="1"/>
</linearGradient>
<radialGradient id="paint18_radial_1250_16967" cx="0" cy="0" r="1" gradientUnits="userSpaceOnUse" gradientTransform="translate(906.557 256.546) rotate(-159.855) scale(589.333 926.979)">
<stop/>
<stop offset="0.99" stop-color="#4041FD"/>
</radialGradient>
<linearGradient id="paint19_linear_1250_16967" x1="715.883" y1="25.2678" x2="62.5803" y2="800.642" gradientUnits="userSpaceOnUse">
<stop stop-color="#FDA119"/>
<stop offset="0.21" stop-color="#B57311"/>
<stop offset="0.42" stop-color="#754A0B"/>
<stop offset="0.61" stop-color="#422A06"/>
<stop offset="0.78" stop-color="#1E1303"/>
<stop offset="0.91" stop-color="#080500"/>
<stop offset="1"/>
</linearGradient>
<linearGradient id="paint20_linear_1250_16967" x1="786.669" y1="210.113" x2="1314.14" y2="245.637" gradientUnits="userSpaceOnUse">
<stop stop-color="#FDA119"/>
<stop offset="0.21" stop-color="#B57311"/>
<stop offset="0.42" stop-color="#754A0B"/>
<stop offset="0.61" stop-color="#422A06"/>
<stop offset="0.78" stop-color="#1E1303"/>
<stop offset="0.91" stop-color="#080500"/>
<stop offset="1"/>
</linearGradient>
<radialGradient id="paint21_radial_1250_16967" cx="0" cy="0" r="1" gradientUnits="userSpaceOnUse" gradientTransform="translate(814.383 740.312) scale(768.538 140.303)">
<stop stop-color="#FDAE4D"/>
<stop offset="0.12" stop-color="#E69E46"/>
<stop offset="0.36" stop-color="#AD7734"/>
<stop offset="0.71" stop-color="#513818"/>
<stop offset="1"/>
</radialGradient>
<clipPath id="clip0_1250_16967">
<rect width="2182" height="1024" fill="white" transform="translate(-371)"/>
</clipPath>
<clipPath id="clip1_1250_16967">
<rect width="1284" height="100" fill="white" transform="translate(78 6)"/>
</clipPath>
</defs>
</svg>
