<svg width="2338" height="1108" viewBox="0 0 2338 1108" fill="none" xmlns="http://www.w3.org/2000/svg">
<g clip-path="url(#clip0_1425_4143)" filter="url(#filter0_f_1425_4143)">
<mask id="mask0_1425_4143" style="mask-type:luminance" maskUnits="userSpaceOnUse" x="-172" y="10" width="4030" height="1088">
<path d="M3857.77 10H-171.658V1098H3857.77V10Z" fill="white"/>
</mask>
<g mask="url(#mask0_1425_4143)">
<path d="M2747.62 -46.4902H-383.259V1014.11H2747.62V-46.4902Z" fill="url(#paint0_linear_1425_4143)"/>
<path style="mix-blend-mode:screen" fill-rule="evenodd" clip-rule="evenodd" d="M2255.85 261.525C3139.81 497.759 1265.35 657.694 1148.96 578.381C724.888 289.425 872.626 367.165 919.211 383.801C965.797 400.502 940.464 417.071 910.065 414.976C879.62 412.88 455.642 266.109 455.642 266.109C455.642 266.109 733.676 311.3 688.032 284.251C642.388 257.202 959.072 480.141 994.134 456.957C1330.73 234.083 2200.65 414.648 2387.94 375.418C2575.22 336.122 2232.89 252.618 2210.11 262.573C2187.34 272.528 2262.17 315.688 2118.51 307.96C1974.85 300.231 647.051 83.9069 367.582 -65.8763C88.1127 -215.659 977.365 -127.505 999.201 -130.191C1102.95 -142.962 1126.27 -97.444 1126.27 -97.444C1126.27 -97.444 802.501 -193.13 722.556 -83.9524C695.475 -46.9487 953.646 -17.4768 901.501 -20.8824C849.311 -24.2881 354.489 -118.664 490.704 -24.8775C616.024 61.4427 2463.35 441.369 2074.97 222.229C2123.8 175.663 2255.8 261.525 2255.8 261.525H2255.85Z" fill="url(#paint1_radial_1425_4143)"/>
<path fill-rule="evenodd" clip-rule="evenodd" d="M1409.1 311.169C1409.1 311.169 1522.72 295.319 1539.85 307.828C1556.97 320.403 2342.07 305.995 2342.07 305.995C2342.07 305.995 2334.9 227.468 2291.45 167.345C2271.94 140.428 2245.22 117.243 2208.54 106.437C2089.95 71.5941 2035.79 228.385 2035.79 228.385C2035.79 228.385 2036.15 224.783 2035.38 219.216V219.085C2034.58 213.125 2032.51 204.873 2027.49 196.621C2021.89 187.452 2012.61 178.283 1997.27 171.995C1967.14 159.617 1931.18 201.795 1913.11 226.748H1913.07C1906.34 236.113 1902.17 243.056 1901.68 243.907C1902.17 241.025 1914.28 169.441 1891.68 109.908C1875.94 68.516 1843.44 33.0186 1778.6 30.1369C1685.34 26.0108 1612.39 114.623 1567.82 189.22C1535.85 242.728 1409.1 311.103 1409.1 311.103V311.169Z" fill="url(#paint2_linear_1425_4143)"/>
<path style="mix-blend-mode:multiply" opacity="0.5" fill-rule="evenodd" clip-rule="evenodd" d="M1409.1 311.17C1409.1 311.17 1522.72 295.321 1539.85 307.83C1556.97 320.405 2342.07 305.996 2342.07 305.996C2342.07 305.996 2334.9 227.47 2291.45 167.347C2243.34 310.319 2046.37 273.38 2037.85 257.728C2034.08 250.851 2033.99 235.656 2035.38 219.218V219.086C2034.58 213.127 2032.51 204.874 2027.49 196.622C2034.49 208.018 2034.49 301.936 1921.95 301.936C1893.3 301.936 1896.34 270.63 1913.11 226.815C1906.39 236.115 1902.22 243.057 1901.72 243.909C1902.22 241.027 1914.32 169.443 1891.73 109.909C1901.68 154.052 1917.64 258.972 1851.42 283.466C1777.48 310.843 1612.88 279.013 1567.91 189.156C1535.94 242.664 1409.19 311.039 1409.19 311.039L1409.1 311.17ZM2071.43 273.773C2116.18 296.762 1996.87 303.835 1986.83 302.001C1976.69 300.102 2024 249.41 2071.43 273.773ZM1566.61 228.387C1645.39 251.375 1669.92 300.167 1669.92 300.167C1669.92 300.167 1639.7 314.903 1608.18 290.081C1576.7 265.194 1566.61 228.387 1566.61 228.387Z" fill="url(#paint3_linear_1425_4143)"/>
<path fill-rule="evenodd" clip-rule="evenodd" d="M2108.65 401.942L2357.18 402.859L2464.52 403.318C2448.24 348.303 2420.4 349.744 2398.03 360.42C2397.94 360.42 2397.89 360.485 2397.76 360.551C2379.28 369.458 2364.62 384.718 2363.64 379.282C2361.84 369.72 2378.93 308.221 2314.63 270.825C2299.25 261.918 2279.16 254.32 2253.02 249.212C2166.4 232.118 2131.47 299.642 2117.62 350.399C2109.77 378.823 2108.6 401.942 2108.6 401.942H2108.65Z" fill="url(#paint4_linear_1425_4143)"/>
<path style="mix-blend-mode:multiply" opacity="0.5" fill-rule="evenodd" clip-rule="evenodd" d="M2108.65 401.943L2357.18 402.86L2370.45 401.288C2370.45 401.288 2370 376.269 2397.8 360.551C2379.33 369.458 2364.67 384.718 2363.68 379.282C2361.89 369.72 2378.97 308.222 2314.67 270.825C2353.77 327.542 2202.67 405.021 2143.04 373.715C2132.46 368.148 2124.21 360.092 2117.66 350.465C2109.81 378.889 2108.65 402.008 2108.65 402.008V401.943ZM2250.78 394.87C2250.78 394.87 2279.43 332.716 2323.24 350.662C2323.24 350.662 2346.24 369.982 2329.51 387.469C2312.84 404.89 2250.78 394.804 2250.78 394.804V394.87Z" fill="url(#paint5_linear_1425_4143)"/>
<path fill-rule="evenodd" clip-rule="evenodd" d="M1538.86 269.45C1570.78 227.73 1569.08 159.028 1540.52 136.957C1486.13 94.91 1457.34 290.342 1457.34 290.342C1457.34 290.342 1506.89 311.169 1538.81 269.515L1538.86 269.45Z" fill="url(#paint6_linear_1425_4143)"/>
<path fill-rule="evenodd" clip-rule="evenodd" d="M-209.605 481.058L727.802 477.456C727.802 477.456 723.902 463.506 717.131 444.906C704.308 409.802 680.23 359.306 651.893 342.671C625.798 327.411 619.521 357.8 617.772 373.125C616.338 385.569 619.028 398.406 619.656 401.157C618.535 396.834 611.002 368.017 599.255 336.711C585.041 298.725 564.237 255.958 540.563 247.902C504.514 235.59 499.134 328.001 498.82 376.99C498.73 394.083 499.223 405.676 499.223 405.676C499.223 405.676 497.475 392.904 494.381 376.204C488.731 345.553 478.419 301.41 465.775 298.136C453.983 295.123 450.665 314.836 449.903 331.734C449.365 343.719 450.172 354.263 450.172 354.263C450.172 354.263 448.826 347.125 444.836 339.593C440.621 331.668 433.358 323.089 421.341 321.648C402.42 319.355 381.885 361.271 373.5 380.592C371.214 385.831 369.869 389.302 369.689 389.761C369.779 388.189 373.231 343.26 368.344 292.962C362.336 230.677 343.37 157.587 285.351 138.332C187.785 106.044 73.3165 320.731 27.5379 416.613C16.0597 440.649 9.64799 455.778 9.64799 455.778C9.64799 455.778 -9.31805 402.008 -80.6537 398.275C-159.343 394.149 -209.605 481.124 -209.605 481.124V481.058Z" fill="url(#paint7_linear_1425_4143)"/>
<path style="mix-blend-mode:multiply" opacity="0.35" fill-rule="evenodd" clip-rule="evenodd" d="M-209.605 481.059L727.802 477.522C727.802 477.522 723.946 463.572 717.131 444.972C665.21 477.391 629.385 395.197 617.772 373.191C616.427 385.046 618.759 397.227 619.521 400.764C618.041 395.132 610.598 367.166 599.255 336.777C578.54 449.687 509.984 401.222 499.134 393.036C499.134 399.912 499.134 403.318 499.134 404.89C498.73 401.812 497.071 390.416 494.426 376.204C490.928 381.64 480.167 395.131 467.523 378.431C460.977 369.786 454.88 350.924 449.947 331.799C449.454 343.785 450.216 354.329 450.216 354.329C450.216 354.329 448.916 347.256 444.881 339.659C442.235 352.626 436.093 365.594 424.032 376.466C392.915 404.366 378.926 390.612 373.545 380.657C371.258 385.897 369.913 389.368 369.734 389.827C369.868 388.255 373.276 343.326 368.389 292.962C349.871 325.25 281.629 445.365 163.708 458.66C114.073 464.292 45.0244 447.985 27.5828 416.613C16.1045 440.584 9.64799 455.778 9.64799 455.778C9.64799 455.778 3.28113 437.702 -15.3711 422.049C-66.6646 466.519 -147.82 474.902 -205.525 474.64C-208.26 478.635 -209.605 480.993 -209.605 480.993V481.059ZM614.096 456.892C564.013 445.627 527.471 422.18 527.471 422.18C527.471 422.18 624.408 383.867 674.805 459.97C674.805 459.97 658.888 466.978 614.141 456.892H614.096ZM469.048 469.401C469.048 469.401 519.893 417.792 560.157 444.71L574.415 455.778C574.415 455.778 576.164 458.071 553.79 468.55C530.206 479.618 469.048 469.401 469.048 469.401ZM331.533 475.557C331.533 475.557 432.326 335.86 510.253 415.172C510.253 415.172 514.333 440.387 471.29 457.809C426.856 475.754 331.533 475.557 331.533 475.557ZM277.549 464.882C277.549 464.882 284.14 392.119 318.127 381.902C351.306 371.881 378.208 416.351 378.208 416.351C378.208 416.351 350.499 457.874 277.549 464.882ZM31.7078 460.625C71.5679 438.095 137.613 471.824 143.755 474.313C136.357 473.592 48.701 477.588 35.8776 470.514C22.3369 463.048 31.6629 460.625 31.6629 460.625H31.7078Z" fill="url(#paint8_linear_1425_4143)"/>
<path fill-rule="evenodd" clip-rule="evenodd" d="M913.831 474.968L1107.12 475.23L1184.47 475.361H1198.9L1521.24 475.819C1521.24 475.819 1518.77 465.471 1514.29 457.088C1511.55 451.914 1508.1 447.461 1503.93 446.544C1495.5 444.71 1481.96 461.673 1476.18 469.532C1474.47 471.89 1473.44 473.462 1473.44 473.462C1473.44 473.462 1469.36 453.093 1460.04 429.319C1448.2 399.323 1427.84 363.367 1396.19 355.77C1347.72 344.178 1344.31 426.437 1344.8 457.023C1344.89 463.9 1345.21 468.222 1345.21 468.222C1345.21 468.222 1344.98 467.567 1344.63 466.388C1344.54 466.126 1344.4 465.799 1344.31 465.471C1344.09 464.816 1343.77 464.031 1343.46 463.179C1343.15 462.328 1342.79 461.345 1342.34 460.428C1341.53 458.464 1340.59 456.302 1339.47 454.141C1339.24 453.683 1339.02 453.29 1338.8 452.831C1338.57 452.438 1338.35 452.045 1338.12 451.587C1337.68 450.735 1337.14 449.884 1336.64 449.033C1333.86 444.579 1330.5 440.78 1326.74 439.274C1319.65 436.523 1316.2 448.771 1314.58 457.874C1314.58 457.874 1314.58 457.94 1314.58 458.005C1314.27 459.904 1314 461.673 1313.87 463.114C1313.82 463.638 1313.78 464.096 1313.69 464.555C1313.64 465.078 1313.6 465.602 1313.55 465.995V465.799C1313.55 465.799 1313.6 465.078 1313.6 464.62C1313.91 456.433 1314.49 430.105 1309.79 400.044C1306.74 380.789 1301.49 359.896 1292.52 341.034C1291.18 338.218 1289.74 335.402 1288.18 332.651C1276.34 311.497 1259.03 293.682 1233.61 285.103C1156 258.905 1097.08 387.665 1075.92 442.418C1070.49 456.564 1067.62 465.602 1067.62 465.602C1067.62 465.602 1067.17 464.554 1066.32 462.786C1066.19 462.459 1066.05 462.131 1065.87 461.804C1065.11 460.166 1063.99 457.94 1062.73 455.582C1061.97 454.141 1061.08 452.569 1060.13 450.932C1059.82 450.408 1059.51 449.884 1059.15 449.295C1054.71 441.828 1048.75 433.249 1041.84 427.354C1037.98 424.08 1033.86 421.591 1029.56 420.674C1028.88 420.543 1028.3 420.412 1027.63 420.347C1005.34 417.923 992.117 461.411 992.117 461.411C992.117 461.411 986.153 453.879 980.414 452.897C976.334 452.176 962.748 463.769 941.406 470.449H941.361C938.357 471.431 935.174 472.283 931.856 473.003C930.735 473.265 929.614 473.462 928.448 473.658C927.327 473.855 926.206 474.051 925.04 474.182C921.453 474.706 917.732 474.968 913.831 475.099V474.968Z" fill="url(#paint9_linear_1425_4143)"/>
<path fill-rule="evenodd" clip-rule="evenodd" d="M876.661 474.901H911.544C912.307 474.967 913.069 474.967 913.831 474.901H876.661Z" fill="url(#paint10_linear_1425_4143)"/>
<path style="mix-blend-mode:multiply" opacity="0.35" fill-rule="evenodd" clip-rule="evenodd" d="M1200.47 457.94C1200.47 457.94 1237.51 397.489 1257.78 393.822C1277.68 390.22 1288.44 402.794 1288.44 402.794C1278.8 457.743 1200.47 458.005 1200.47 458.005V457.94ZM913.831 475.033L1107.12 475.295C1120.22 465.013 1139.18 453.486 1155.55 456.368C1170.3 458.988 1179.27 467.633 1184.47 475.426H1194.06C1201.24 471.169 1269.52 431.349 1299.38 458.66C1299.38 458.66 1297.82 460.69 1288.98 465.471C1281.45 469.597 1218.23 474.117 1198.86 475.492L1521.19 475.885C1521.19 475.885 1518.73 465.537 1514.24 457.154C1503.89 471.169 1483.26 470.383 1476.13 469.663C1474.43 472.021 1473.4 473.592 1473.4 473.592C1473.4 473.592 1469.32 453.224 1459.99 429.45C1454.74 444.972 1438.16 473.003 1385.25 472.414C1367.45 472.217 1354.35 466.257 1344.76 457.154C1344.85 464.031 1345.16 468.353 1345.16 468.353C1345.16 468.353 1344.94 467.698 1344.58 466.519C1344.49 466.257 1344.36 465.93 1344.27 465.602C1344.04 464.947 1343.73 464.162 1343.41 463.31C1343.1 462.459 1342.74 461.476 1342.29 460.559C1341.49 458.595 1340.54 456.433 1339.42 454.272C1339.2 453.814 1338.98 453.421 1338.75 452.962C1338.53 452.569 1338.3 452.176 1338.08 451.718C1337.63 450.866 1337.09 450.015 1336.6 449.164C1331.4 475.361 1313.87 465.34 1313.87 465.34L1314.49 458.136C1314.18 460.035 1313.91 461.804 1313.78 463.245C1313.73 463.768 1313.69 464.227 1313.6 464.685C1313.55 465.209 1313.51 465.733 1313.46 466.126V465.93C1313.46 465.93 1313.51 465.209 1313.51 464.751C1313.82 456.564 1314.4 430.236 1309.7 400.175C1306.65 380.92 1301.4 360.027 1292.43 341.165C1250.65 402.074 1169.94 479.225 1075.87 442.549C1070.45 456.695 1067.58 465.733 1067.58 465.733C1067.58 465.733 1067.13 464.685 1066.28 462.917C1066.14 462.59 1066.01 462.262 1065.83 461.935C1065.07 460.297 1063.95 458.071 1062.69 455.713C1061.88 454.272 1061.03 452.7 1060.09 451.063C1059.78 450.539 1059.46 450.015 1059.1 449.425C1035.43 476.343 992.117 461.542 992.117 461.542C992.117 461.542 979.472 480.207 941.406 470.58H941.361C938.357 471.562 935.174 472.414 931.856 473.134C930.735 473.396 929.614 473.592 928.448 473.789C927.327 473.985 926.206 474.182 925.04 474.313C921.453 474.837 917.732 475.099 913.831 475.23V475.033Z" fill="url(#paint11_linear_1425_4143)"/>
<path style="mix-blend-mode:multiply" opacity="0.5" fill-rule="evenodd" clip-rule="evenodd" d="M876.661 474.901H911.544C912.307 474.967 913.069 474.967 913.831 474.901H876.661Z" fill="url(#paint12_linear_1425_4143)"/>
<path fill-rule="evenodd" clip-rule="evenodd" d="M1193.48 475.689C1193.48 475.689 1195.45 475.558 1198.9 475.361H1194.11C1193.7 475.558 1193.52 475.689 1193.52 475.689H1193.48Z" fill="url(#paint13_linear_1425_4143)"/>
<path fill-rule="evenodd" clip-rule="evenodd" d="M143.8 474.248C144.159 474.314 144.294 474.379 144.294 474.314C144.294 474.314 144.114 474.248 143.8 474.248Z" fill="url(#paint14_linear_1425_4143)"/>
<path d="M1024.99 548.723C1055.69 708.611 803.958 753.22 777.895 592.454C747.196 432.566 998.925 387.958 1024.99 548.723Z" fill="#FFFFD2"/>
<path style="mix-blend-mode:screen" opacity="0.5" d="M835.282 615.761L-2645.45 -139.321L-2741.43 516.52L881.644 608.744L-2533.68 2402.97L-1186.57 2451.47L881.644 608.744L1065.71 3082.75L1145.15 3057.19L881.644 608.744L1510.15 3038.14L1929.78 3010.82L879.639 628.417L835.282 615.761Z" fill="url(#paint15_linear_1425_4143)" fill-opacity="0.5"/>
<path style="mix-blend-mode:screen" opacity="0.5" d="M947.05 635.891L2120.74 2696.77L2365.96 2502.92L920.737 597.047L4115.41 596.671L4778.87 299.701L920.737 597.047L3077.04 -629.93L3019.9 -690.703L920.737 597.047L2846.23 -1012.36L2641.74 -1379.75L939.532 590.281L947.05 635.891Z" fill="url(#paint16_linear_1425_4143)" fill-opacity="0.5"/>
<path fill-rule="evenodd" clip-rule="evenodd" d="M707.222 794.378C707.222 794.378 887.377 782.523 898.048 777.153C908.675 771.783 918.135 758.618 926.072 758.946C933.963 759.208 1068.97 654.419 1074.35 646.952C1079.73 639.486 1455.6 942.196 1795.64 950.907C2135.68 959.617 2387.71 872.577 2387.71 872.577C2387.71 872.577 2058.97 1126.23 1429.28 1091.46C799.586 1056.68 707.222 794.443 707.222 794.443V794.378Z" fill="url(#paint17_linear_1425_4143)"/>
<path fill-rule="evenodd" clip-rule="evenodd" d="M1074.3 646.887C1074.3 646.887 1027.45 687.558 1121.16 759.011C1121.16 759.011 1095.91 732.421 1091.92 715.589C1087.93 698.757 1273.47 798.242 1356.33 835.245C1356.33 835.245 1231.64 776.956 1199.58 782.458C1167.52 788.025 1378.03 926.74 1378.03 926.74C1378.03 926.74 1317.36 870.415 1322.88 857.12C1328.39 843.76 1459.41 866.813 1459.41 866.813C1459.41 866.813 1205.9 740.346 1074.35 646.887H1074.3Z" fill="#D2E4F9"/>
<path fill-rule="evenodd" clip-rule="evenodd" d="M-119.707 636.998C-119.707 636.998 74.6614 422.704 81.4766 411.439C88.247 400.109 88.3367 398.602 101.519 396.965C114.701 395.328 221.996 215.221 231.277 212.798C240.558 210.374 454.565 492.585 466.223 504.57C477.881 516.556 492.094 532.47 497.25 540.395C502.406 548.32 937.818 876.9 999.425 934.468C1060.99 992.037 1174.69 1017.97 1204.33 980.576C1233.97 943.179 1350.99 885.807 1378.21 836.752C1405.42 787.698 1459.59 777.284 1468.24 765.627C1481.51 747.682 1519.26 712.315 1528.19 704.914C1537.11 697.514 1667.59 535.418 1674.13 537.579C1680.68 539.74 1956.25 806.953 2021.84 828.631C2087.39 850.31 2152.59 892.291 2152.59 892.291L2205.05 1166.38L1032.96 1143.79L18.66 1019.61L-119.707 637.063V636.998Z" fill="url(#paint18_linear_1425_4143)"/>
<path fill-rule="evenodd" clip-rule="evenodd" d="M497.251 540.33C472.725 534.96 619.387 792.61 619.387 792.61L856.709 1153.35C856.709 1153.35 432.954 690.113 365.519 472.152C317.768 317.915 466.268 504.505 466.268 504.505L497.295 540.33H497.251Z" fill="#C1C9F8"/>
<path fill-rule="evenodd" clip-rule="evenodd" d="M379.912 394.411C265.354 275.672 324.18 482.5 381.123 595.41C438.066 708.321 717.131 1074.69 717.131 1074.69L480.123 1102.72C480.123 1102.72 270.196 347.715 271.317 307.96C272.438 268.206 307.187 301.607 307.187 301.607L379.867 394.346L379.912 394.411Z" fill="#C1C9F8"/>
<path fill-rule="evenodd" clip-rule="evenodd" d="M1420.62 792.871C1468.24 765.561 1404.71 923.072 1404.71 923.072L1420.62 916.195C1420.62 916.195 1465.64 797.325 1468.55 779.38C1471.47 761.435 1420.62 792.937 1420.62 792.937V792.871Z" fill="#BBC4F8"/>
<path fill-rule="evenodd" clip-rule="evenodd" d="M1528.14 704.85C1528.14 704.85 1593.78 646.299 1630.28 630.318C1666.78 614.338 1496.89 912.398 1496.89 912.398L1502.54 912.594C1502.54 912.594 1595.53 733.077 1617.82 703.081C1640.1 673.085 1624.68 724.498 1624.68 724.498C1624.68 724.498 1671.22 626.061 1676.69 576.155C1682.16 526.249 1649.11 562.402 1649.11 562.402L1528.1 704.85H1528.14Z" fill="#C1C9F8"/>
<path fill-rule="evenodd" clip-rule="evenodd" d="M1563.92 874.477C1563.92 874.477 1605.94 783.442 1625.08 743.098C1625.08 743.098 1616.92 808.067 1563.92 874.477Z" fill="#BBC4F8"/>
<path fill-rule="evenodd" clip-rule="evenodd" d="M231.277 212.733C219.126 208.476 253.606 268.795 253.606 268.795C253.606 268.795 266.429 261.525 297.188 289.033C297.188 289.033 243.518 217.121 231.277 212.798V212.733Z" fill="#C1C9F8"/>
<g style="mix-blend-mode:multiply" opacity="0.2">
<path fill-rule="evenodd" clip-rule="evenodd" d="M104.658 394.934C104.658 394.934 185.454 297.415 223.431 221.442C223.431 221.442 242.352 272.724 252.665 308.876C259.794 333.894 285.351 438.16 285.351 438.16C285.351 438.16 263.829 385.962 254.772 375.221C245.715 364.48 271.721 535.155 291.852 592.135C311.984 649.114 299.52 532.143 299.52 532.143L480.347 1088.05L-93.97 641.844C-93.97 641.844 77.5316 410.522 85.7367 404.365C93.9419 398.209 104.613 394.934 104.613 394.934H104.658Z" fill="#7250B8"/>
</g>
<g style="mix-blend-mode:multiply" opacity="0.2">
<path fill-rule="evenodd" clip-rule="evenodd" d="M1677 588.665L1612.89 838.391C1612.89 838.391 1662.3 700.789 1675.66 666.602C1688.97 632.414 1609.79 1017.12 1609.79 1017.12L2085.29 893.667C2085.29 893.667 1903.92 744.735 1867.69 712.709C1831.47 680.683 1681.62 543.671 1681.22 543.344C1680.86 543.016 1676.96 588.599 1676.96 588.599L1677 588.665Z" fill="#7250B8"/>
</g>
<path fill-rule="evenodd" clip-rule="evenodd" d="M2742.87 100.608L2728.16 950.973C2728.16 950.973 2571.5 951.497 2316.6 949.925L2328.71 933.093L1792.19 990.858C1792.19 990.858 2080 782 2251.23 562.598C2294.14 507.649 2284.63 560.174 2300.68 543.997C2316.74 527.821 2359.15 479.159 2412.24 395.197C2465.33 311.234 2508.41 306.584 2526.12 278.946C2529.94 273.052 2538.01 261.328 2548.41 246.527L2549.04 245.61C2587.19 191.316 2735.74 -55.5938 2735.74 -55.5938L2742.87 100.542V100.608Z" fill="url(#paint19_linear_1425_4143)"/>
<path fill-rule="evenodd" clip-rule="evenodd" d="M2177.25 859.938C2177.25 859.938 2237.69 731.244 2265.85 642.173C2294.05 553.102 2279.39 536.925 2279.39 536.925C2279.39 536.925 2321.4 521.927 2335.3 504.113C2335.3 504.113 2303.42 550.81 2300.82 555.984C2298.22 561.092 2320.32 547.601 2320.32 547.601C2320.32 547.601 2307.68 625.079 2273.6 698.497C2239.53 771.85 2141.15 925.366 2141.15 925.366C2141.15 925.366 2171.24 872.906 2177.25 859.938Z" fill="url(#paint20_linear_1425_4143)"/>
<path fill-rule="evenodd" clip-rule="evenodd" d="M2412.24 395.131C2447.53 348.042 2350.36 675.967 2284.72 804.072C2219.04 932.177 2107.93 953.789 2107.93 953.789L2260.91 929.753C2260.91 929.753 2302.43 774.927 2385.87 676.687C2469.32 578.447 2373.19 851.423 2373.19 851.423C2373.19 851.423 2395.78 789.401 2424.61 738.644C2453.44 687.887 2388.83 927.461 2388.83 927.461L2496.98 907.878C2496.98 907.878 2578.27 623.376 2630.15 422.573C2682.02 221.836 2628.31 177.628 2520.3 286.413C2520.3 286.413 2489.18 286.216 2412.28 395.197L2412.24 395.131Z" fill="url(#paint21_linear_1425_4143)"/>
<path style="mix-blend-mode:multiply" fill-rule="evenodd" clip-rule="evenodd" d="M2739.24 308.745C2739.24 308.745 2706.55 210.505 2616.52 522.777C2616.52 522.777 2649.38 385.045 2649.88 305.471C2605.62 573.011 2481.65 774.796 2481.65 774.796C2481.65 774.796 2486.27 549.892 2396.14 640.01C2331.8 704.325 2220.79 943.637 2220.79 943.637L2191.06 950.842C2191.06 950.842 2274.55 768.246 2299.61 630.71C2310.91 568.819 2268.99 631.889 2268.99 631.889C2268.99 631.889 2141.47 892.422 1873.12 978.742C1873.12 978.742 2546.48 943.768 2727.98 876.114L2739.19 308.811L2739.24 308.745Z" fill="url(#paint22_linear_1425_4143)"/>
<path fill-rule="evenodd" clip-rule="evenodd" d="M2196.3 909.318C2196.3 909.318 2250.78 885.02 2286.34 818.348C2321.89 751.676 2349.74 645.053 2349.74 645.053C2349.74 645.053 2304.36 816.645 2196.26 909.318H2196.3Z" fill="#E5E0FD"/>
<path fill-rule="evenodd" clip-rule="evenodd" d="M2106.72 722.597C2106.72 722.597 2155.82 668.5 2221.23 616.432C2286.65 564.365 2227.96 699.74 2227.96 699.74C2227.96 699.74 2269.48 645.97 2281.54 592.462C2293.6 538.954 2281.45 536.334 2279.39 536.924C2277.32 537.513 2267.06 541.05 2246.75 568.229C2226.43 595.409 2106.72 722.597 2106.72 722.597Z" fill="#E5E0FD"/>
<g style="mix-blend-mode:soft-light" opacity="0.5">
<path fill-rule="evenodd" clip-rule="evenodd" d="M1808.42 978.807C1808.42 978.807 1985.39 967.346 2085.82 861.509C2186.22 755.672 2232.89 631.693 2229.8 622.065C2226.7 612.438 1808.42 978.873 1808.42 978.873V978.807Z" fill="#BC8567"/>
</g>
<g style="mix-blend-mode:soft-light" opacity="0.5">
<path fill-rule="evenodd" clip-rule="evenodd" d="M2248.45 808.787C2248.45 808.787 2310.23 778.267 2360.77 635.95C2411.25 493.633 2422.6 407.116 2419.05 398.602C2415.56 390.088 2311.36 547.338 2311.36 547.338L2323.6 543.801C2323.6 543.801 2294.63 729.474 2248.4 808.787H2248.45Z" fill="#BC8567"/>
</g>
<path fill-rule="evenodd" clip-rule="evenodd" d="M506.935 1084.84C506.935 1084.84 330.995 931.063 320.592 921.108C310.19 911.153 272.168 900.084 272.168 900.084C272.168 900.084 259.121 891.898 252.62 885.873C246.118 879.847 28.7035 567.51 15.9698 540.068C5.74695 517.997 -25.4596 447.657 -48.5507 406.723C-54.2001 396.703 -64.1539 405.545 -67.6512 397.489C-85.4067 356.359 -400.969 -227.448 -400.969 -227.448L-384.2 15.7284L-399.176 881.091L506.89 1084.91L506.935 1084.84Z" fill="url(#paint23_linear_1425_4143)"/>
<path fill-rule="evenodd" clip-rule="evenodd" d="M311.849 915.212C311.849 915.212 287.861 907.681 272.482 907.091C257.103 906.502 353.637 1013.98 353.637 1013.98L307.41 997.603C307.41 997.603 247.283 891.373 235.222 875.523C223.206 859.674 266.474 899.167 272.168 900.018C277.862 900.869 311.849 915.212 311.849 915.212Z" fill="url(#paint24_linear_1425_4143)"/>
<path fill-rule="evenodd" clip-rule="evenodd" d="M70.2228 623.833C-58.7285 489.769 101.474 876.899 180.029 962.696L163.035 957.653C163.035 957.653 89.9959 836.818 25.61 697.055C-38.776 557.292 87.5298 935.32 87.5298 935.32L40.72 921.501C40.72 921.501 -119.707 615.974 -125.042 462.982C-127.598 389.302 -3.48927 508.369 16.0148 540.067C35.5189 571.766 70.2228 623.833 70.2228 623.833Z" fill="url(#paint25_linear_1425_4143)"/>
<path style="mix-blend-mode:multiply" fill-rule="evenodd" clip-rule="evenodd" d="M-385.86 113.052C-384.739 47.6239 -238.615 420.87 -238.615 420.87C-238.615 420.87 -277.982 255.696 -258.074 265.062C-243.681 271.807 -192.478 354.918 -192.478 354.918C-192.478 354.918 -194.585 518.193 -135.893 678.259C-135.893 678.259 -156.115 546.29 -154.501 488.525C-152.887 430.825 -132.037 459.97 -113.43 539.872C-94.8226 619.773 28.2998 897.138 28.2998 897.138C28.2998 897.138 8.70609 696.073 8.66122 678.259C8.66122 660.445 36.2809 679.307 143.396 901.133C177.921 972.717 297.008 997.277 297.008 997.277L-397.607 791.89L-385.86 113.052Z" fill="url(#paint26_linear_1425_4143)"/>
<path fill-rule="evenodd" clip-rule="evenodd" d="M-121.635 445.235C-144.547 465.472 -58.1905 686.578 -58.1905 686.578C-58.1905 686.578 -89.8903 608.641 -92.4908 558.211C-95.4501 500.315 43.2756 711.334 43.2756 711.334C43.2756 711.334 15.8802 620.233 17.7185 590.827C19.5568 561.355 60.224 614.011 60.224 614.011C60.224 614.011 -67.6511 397.49 -121.635 445.235Z" fill="#E5E0FD"/>
<g style="mix-blend-mode:soft-light" opacity="0.5">
<path fill-rule="evenodd" clip-rule="evenodd" d="M29.4657 596.065C17.1804 618.136 85.781 763.466 107.168 827.846C128.556 892.225 288.848 977.76 288.848 977.76C288.848 977.76 200.429 809.049 147.611 736.875C81.8354 647.084 39.3299 578.382 29.4657 596.13V596.065Z" fill="#BC8567"/>
</g>
<path style="mix-blend-mode:screen" opacity="0.5" fill-rule="evenodd" clip-rule="evenodd" d="M734.349 1126.56C734.349 1126.56 474.249 1056.29 308.352 943.441C189.669 862.753 178.011 956.933 151.243 937.678C124.476 918.357 42.962 735.565 -35.2338 690.768C-133.023 634.706 -129.75 728.557 -129.75 728.557C-129.75 728.557 -137.417 720.567 -145.398 722.859C-153.334 725.152 -129.436 715.721 -136.79 632.02C-144.143 548.32 -389.76 337.628 -389.76 337.628L-397.875 807.28L734.349 1126.56Z" fill="url(#paint27_linear_1425_4143)"/>
<path d="M3073.8 619.78L3089.01 977.741L2200.23 945.206L2126.68 942.952L1893.59 935.784L1838.07 934.093L1290.61 917.262L1116.5 836.65C1116.5 836.65 1746.44 864.836 2103.14 764.575C2133.41 756.039 2163.9 752.334 2193.01 746.455C2247.04 735.503 2297.15 725.115 2338.12 716.578C2357.8 712.471 2375.33 708.847 2390.16 705.707C2408.24 701.922 2422.3 698.942 2431.23 697.09C2438.46 695.56 3073.85 619.699 3073.85 619.699L3073.8 619.78Z" fill="#E0E000"/>
<path style="mix-blend-mode:multiply" opacity="0.12" d="M2390.1 705.707C2190.03 765.22 1990.18 931.839 1990.18 931.839L1893.59 935.704L1828.2 938.281L1838.07 934.013L2338.11 716.579C2357.8 712.472 2375.33 708.848 2390.16 705.707H2390.1Z" fill="url(#paint28_linear_1425_4143)"/>
<path style="mix-blend-mode:multiply" opacity="0.12" d="M2442.26 694.756V694.997C2331.77 787.367 2238.38 897.775 2200.23 945.128C2188.32 959.865 2181.82 968.482 2181.82 968.482L2024.52 1025.34L2126.74 942.873L2431.23 697.091C2438.46 695.561 2442.31 694.756 2442.31 694.756H2442.26Z" fill="url(#paint29_linear_1425_4143)"/>
<path style="mix-blend-mode:multiply" opacity="0.12" d="M2192.95 746.375C1957.37 813.86 1752.17 924.107 1752.17 924.107L1457.1 958.655L2103.09 764.495C2133.63 758.374 2163.84 752.254 2192.95 746.375Z" fill="url(#paint30_linear_1425_4143)"/>
<path d="M1328.59 845.993C1444.31 930.47 1322.14 921.128 1322.14 921.128L581.112 868.3L489.096 868.541L402.429 868.783L343.603 868.944L264.929 869.186L212.168 869.347L-795.039 870.072L-832.309 805.808C-832.309 805.808 34.8634 789.299 171.756 765.139C181.404 763.448 190.997 761.757 200.37 760.146C226.778 755.637 251.698 751.53 273.861 748.308C281.414 747.181 288.636 746.214 295.417 745.248C324.637 741.302 346.745 739.369 357.386 740.336C357.496 740.336 357.606 740.336 357.717 740.336C367.199 741.302 381.258 744.362 398.514 748.953C487.001 772.387 1032.86 845.993 1328.54 845.993H1328.59Z" fill="#E0E000"/>
<path style="mix-blend-mode:multiply" opacity="0.12" d="M582.656 882.474L496.98 889.399C496.98 889.399 494.61 886.903 490.254 882.474C470.903 862.582 405.957 789.702 351.707 740.336C351.818 740.336 351.928 740.336 352.038 740.336C361.521 741.302 375.579 744.363 392.836 748.953C466.217 791.393 626.265 863.871 632.881 868.542C633.101 868.703 582.656 882.474 582.656 882.474Z" fill="url(#paint31_linear_1425_4143)"/>
<path style="mix-blend-mode:multiply" opacity="0.12" d="M469.469 952.697L383.849 942.389C383.849 942.389 367.419 911.706 343.602 869.025C323.755 833.43 298.725 789.54 273.86 748.308C281.413 747.181 288.636 746.214 295.417 745.248C328.055 779.474 368.632 827.551 402.373 868.864C440.139 915.089 469.359 952.697 469.359 952.697H469.469Z" fill="url(#paint32_linear_1425_4143)"/>
<path style="mix-blend-mode:multiply" opacity="0.12" d="M319.124 966.064L236.096 933.851C236.096 933.851 226.668 907.759 212.168 869.345C201.032 839.79 186.918 802.988 171.812 765.057C181.46 763.366 191.053 761.675 200.425 760.064C222.147 795.176 245.137 834.395 264.985 869.184C295.748 922.979 319.124 965.983 319.124 965.983V966.064Z" fill="url(#paint33_linear_1425_4143)"/>
<path style="mix-blend-mode:multiply" opacity="0.12" d="M512.968 770.938L956.506 939.973C956.506 939.973 1168.6 958.736 1162.2 949.395C1155.81 940.053 577.252 780.36 577.252 780.36L512.968 770.938Z" fill="url(#paint34_linear_1425_4143)"/>
<path style="mix-blend-mode:multiply" opacity="0.12" d="M1688.55 827.229L1367.13 939.892L1129.29 930.55L1604.97 836.651L1688.55 827.229Z" fill="url(#paint35_linear_1425_4143)"/>
<path style="mix-blend-mode:screen" opacity="0.8" d="M1273.74 1062.86C1897.05 1062.86 2402.34 971.931 2402.34 859.762C2402.34 747.593 1897.05 656.662 1273.74 656.662C650.422 656.662 145.127 747.593 145.127 859.762C145.127 971.931 650.422 1062.86 1273.74 1062.86Z" fill="url(#paint36_radial_1425_4143)"/>
<path style="mix-blend-mode:screen" fill-rule="evenodd" clip-rule="evenodd" d="M21.3554 578.871C25.8211 585.153 32.9883 584.911 37.2886 578.388C41.5889 571.865 41.4235 561.396 36.9578 555.115C32.4921 548.833 25.3249 549.075 21.0246 555.598C16.7243 562.121 16.8897 572.59 21.3554 578.871Z" fill="url(#paint37_radial_1425_4143)"/>
<path style="mix-blend-mode:screen" fill-rule="evenodd" clip-rule="evenodd" d="M60.499 501.32C62.594 504.219 65.8468 504.138 67.8316 501.078C69.8163 498.018 69.7612 493.267 67.6662 490.368C65.5711 487.468 62.3183 487.549 60.3336 490.609C58.3488 493.669 58.404 498.421 60.499 501.32Z" fill="url(#paint38_radial_1425_4143)"/>
<path style="mix-blend-mode:screen" opacity="0.4" d="M48.2139 695.504C82.4004 656.475 88.454 584.355 61.7349 534.419C35.0159 484.483 -14.3579 475.64 -48.5444 514.669C-82.7309 553.697 -88.7845 625.817 -62.0655 675.753C-35.3464 725.69 14.0273 734.532 48.2139 695.504Z" fill="url(#paint39_radial_1425_4143)"/>
<path style="mix-blend-mode:screen" fill-rule="evenodd" clip-rule="evenodd" d="M270.001 959.221C272.592 967.516 279.263 971.14 284.887 967.436C290.565 963.651 293.046 953.906 290.51 945.692C287.919 937.398 281.248 933.773 275.624 937.478C269.946 941.263 267.465 951.007 270.001 959.221Z" fill="url(#paint40_radial_1425_4143)"/>
<path style="mix-blend-mode:screen" fill-rule="evenodd" clip-rule="evenodd" d="M320.447 1085.01C324.582 1098.3 335.277 1104.18 344.374 1098.22C353.471 1092.18 357.495 1076.55 353.416 1063.27C349.281 1049.98 338.585 1044.1 329.488 1050.06C320.392 1056.1 316.367 1071.72 320.447 1085.09V1085.01Z" fill="url(#paint41_radial_1425_4143)"/>
<path style="mix-blend-mode:screen" fill-rule="evenodd" clip-rule="evenodd" d="M973.872 674.462C987.6 718.834 1023.38 738.564 1053.81 718.432C1084.19 698.379 1097.7 646.114 1083.92 601.742C1070.13 557.369 1034.41 537.639 1004.03 557.772C973.651 577.905 960.144 630.089 973.927 674.462H973.872Z" fill="url(#paint42_radial_1425_4143)"/>
<path style="mix-blend-mode:screen" fill-rule="evenodd" clip-rule="evenodd" d="M2198.41 970.576C2203.37 986.601 2216.27 993.688 2227.24 986.44C2238.21 979.193 2243.07 960.348 2238.1 944.322C2233.14 928.297 2220.24 921.21 2209.27 928.458C2198.3 935.706 2193.45 954.55 2198.41 970.576Z" fill="url(#paint43_radial_1425_4143)"/>
<path style="mix-blend-mode:screen" opacity="0.5" fill-rule="evenodd" clip-rule="evenodd" d="M1916.96 841.162C1941.99 921.935 2007.1 957.771 2062.4 921.21C2117.7 884.649 2142.23 789.541 2117.2 708.769C2092.17 627.996 2027.06 592.159 1971.76 628.72C1916.47 665.282 1891.93 760.389 1916.96 841.162Z" fill="url(#paint44_radial_1425_4143)"/>
<path style="mix-blend-mode:screen" fill-rule="evenodd" clip-rule="evenodd" d="M1370.11 1047.72C1376.45 1068.18 1392.93 1077.28 1406.99 1068.02C1420.99 1058.76 1427.22 1034.68 1420.88 1014.14C1414.54 993.686 1398.06 984.586 1384 993.847C1370 1003.11 1363.77 1027.19 1370.11 1047.72Z" fill="url(#paint45_radial_1425_4143)"/>
<path style="mix-blend-mode:screen" opacity="0.5" fill-rule="evenodd" clip-rule="evenodd" d="M1727.47 1200.09C1742.8 1249.54 1782.66 1271.52 1816.51 1249.13C1850.36 1226.75 1865.41 1168.52 1850.09 1119.08C1834.76 1069.63 1794.9 1047.64 1761.05 1070.03C1727.2 1092.42 1712.14 1150.64 1727.47 1200.09Z" fill="url(#paint46_radial_1425_4143)"/>
<path style="mix-blend-mode:screen" opacity="0.5" fill-rule="evenodd" clip-rule="evenodd" d="M198.44 609.714C203.457 616.72 211.396 616.478 216.192 609.15C220.989 601.822 220.823 590.225 215.806 583.219C210.789 576.213 202.85 576.454 198.054 583.783C193.257 591.111 193.423 602.707 198.44 609.714Z" fill="url(#paint47_radial_1425_4143)"/>
<path d="M3297.85 1078.57C3271.94 1131.23 3094.14 1318.95 3094.14 1318.95L-760.692 1296.72V850.984C-760.692 850.984 -526.987 851.306 -173.701 853.481C-94.2005 853.964 -8.58044 854.528 81.7258 855.253C176.498 855.977 276.562 856.863 380.321 857.829C444.826 858.474 510.819 859.118 577.859 859.843C645.065 860.568 713.318 861.373 782.344 862.259C835.656 862.903 889.41 863.628 943.44 864.433C1086.84 866.446 1232.11 868.701 1376.06 871.359H1376.34C1514.94 873.855 1652.38 876.754 1785.86 879.895C1785.97 879.895 1786.08 879.895 1786.19 879.895C2338 893.022 2821.62 912.188 3038.79 939.891C3271.34 969.607 3325.48 1022.44 3297.85 1078.49V1078.57Z" fill="url(#paint48_linear_1425_4143)"/>
<path fill-rule="evenodd" clip-rule="evenodd" d="M301.647 1034.11L323.48 914.686L333.569 924.671L301.647 1034.11Z" fill="#E2DD17"/>
<path fill-rule="evenodd" clip-rule="evenodd" d="M342.665 1019.38C342.334 1013.74 350.99 848.328 350.99 848.328L371.003 862.099L351.1 1018.25L375.744 937.879L361.851 1020.67L342.72 1019.38H342.665Z" fill="#E2DD17"/>
<path fill-rule="evenodd" clip-rule="evenodd" d="M296.244 1035.64L318.076 916.297L328.166 926.283L296.244 1035.64Z" fill="url(#paint49_linear_1425_4143)"/>
<path fill-rule="evenodd" clip-rule="evenodd" d="M337.263 1020.99C336.932 1015.35 345.588 849.939 345.588 849.939L365.601 863.71L345.698 1019.86L370.342 939.49L356.449 1022.28L337.318 1020.99H337.263Z" fill="url(#paint50_linear_1425_4143)"/>
<path fill-rule="evenodd" clip-rule="evenodd" d="M113.868 1027.59L89.0032 927.812L98.4859 930.389L121.972 1027.67L117.065 948.589L137.354 949.878L155.437 1028.72L308.704 1022.92L296.079 928.376L303.632 941.583L314.659 1023L113.868 1027.59Z" fill="url(#paint51_linear_1425_4143)"/>
<path d="M279.649 1015.75L244.089 922.66L256.549 921.049L288.195 1014.63L283.068 932.323L290.235 943.356L300.544 1016.64L279.649 1015.75Z" fill="url(#paint52_linear_1425_4143)"/>
<path d="M47.488 1047.24L58.7349 1047.16L35.6346 938.363L24.3325 938.524L47.488 1047.24Z" fill="url(#paint53_linear_1425_4143)"/>
<path d="M50.9844 946.235L47.9646 946.637L53.4261 1034.3L56.4459 1033.89L50.9844 946.235Z" fill="url(#paint54_linear_1425_4143)"/>
<path d="M17.7723 1048.37L27.4756 1054.81L10.9911 961.234L1.28784 954.791L17.7723 1048.37Z" fill="url(#paint55_linear_1425_4143)"/>
<path style="mix-blend-mode:multiply" opacity="0.4" fill-rule="evenodd" clip-rule="evenodd" d="M442.62 936.026C440.58 935.22 438.926 933.771 437.824 931.918C441.904 931.355 445.873 931.838 449.291 933.207C447.196 934.173 444.991 934.818 442.896 935.059L442.62 936.026Z" fill="url(#paint56_linear_1425_4143)"/>
<path style="mix-blend-mode:multiply" opacity="0.4" fill-rule="evenodd" clip-rule="evenodd" d="M1982.4 933.207C1984.94 931.999 1988.47 931.516 1992 931.919L1990.34 932.724C1988.52 934.012 1985.16 934.173 1982.4 933.207Z" fill="url(#paint57_linear_1425_4143)"/>
<path style="mix-blend-mode:multiply" opacity="0.4" fill-rule="evenodd" clip-rule="evenodd" d="M1966.86 936.027C1965.97 936.59 1964.93 936.993 1963.77 937.315L1965.09 936.591C1963.33 936.591 1961.4 936.349 1959.63 935.785C1961.29 934.899 1963.77 934.577 1966.19 935.06C1966.64 935.06 1967.13 935.302 1967.19 935.544C1967.24 935.785 1967.02 935.946 1966.8 936.027H1966.86Z" fill="url(#paint58_linear_1425_4143)"/>
<path style="mix-blend-mode:multiply" opacity="0.4" fill-rule="evenodd" clip-rule="evenodd" d="M2156.12 1097.97C2151 1092.9 2146.64 1086.86 2143.72 1080.66L2145.59 1078.24C2151.44 1083.64 2155.63 1091.61 2156.12 1097.97Z" fill="url(#paint59_linear_1425_4143)"/>
<path d="M1266.51 1034.36C1266.13 1047.97 1592.23 1154.03 1586.17 1171.42C1583.19 1180.04 1415.7 1193.08 816.25 1168.6C199.708 1143.4 -596.454 1104.34 -611.78 1090.08C-633.227 1070.27 172.308 1001.02 780.911 971.864C780.911 971.864 781.186 971.864 781.737 971.864C1028.67 960.107 1290.39 930.229 1481.64 941.262C1481.64 941.262 2609.7 1030.57 2609.36 1044.18C2609.14 1051.75 2107.28 1039.99 1771.36 1035.08C1505.18 1031.13 1266.68 1028.32 1266.51 1034.36Z" fill="url(#paint60_linear_1425_4143)"/>
<path d="M2609.31 1044.26C2609.2 1047.8 2525.56 1048.29 2402.07 1047.24C2262.31 1046.03 2071.61 1042.97 1893.25 1040.32C1675.98 1037.09 1477.17 1034.68 1411.35 1037.09C1396.51 1037.66 1388.47 1038.46 1388.41 1039.59C1388.41 1039.59 1388.41 1039.67 1388.41 1039.75C1388.41 1039.75 1388.41 1039.83 1388.41 1039.91C1388.41 1039.91 1388.41 1039.99 1388.47 1040.07C1388.52 1040.23 1388.58 1040.32 1388.69 1040.48C1388.96 1040.88 1389.46 1041.36 1390.12 1041.85C1390.28 1041.93 1390.45 1042.09 1390.62 1042.17C1390.95 1042.41 1391.28 1042.65 1391.72 1042.89C1391.94 1043.05 1392.1 1043.13 1392.32 1043.3C1394.92 1044.99 1398.83 1047 1403.74 1049.25C1404.89 1049.82 1406.05 1050.38 1407.32 1050.95C1407.98 1051.27 1408.64 1051.51 1409.31 1051.83C1409.97 1052.15 1410.63 1052.4 1411.35 1052.72C1411.4 1052.72 1411.46 1052.72 1411.51 1052.8C1412.5 1053.2 1413.44 1053.68 1414.49 1054.09C1415.59 1054.57 1416.69 1055.05 1417.85 1055.54C1419.01 1056.02 1420.17 1056.5 1421.38 1056.99C1422.98 1057.63 1424.63 1058.35 1426.29 1059C1427.39 1059.48 1428.49 1059.88 1429.65 1060.37C1429.81 1060.37 1429.98 1060.53 1430.15 1060.53C1431.03 1060.93 1431.91 1061.25 1432.79 1061.58C1433.23 1061.74 1433.67 1061.98 1434.17 1062.14C1435.55 1062.7 1436.93 1063.27 1438.3 1063.83C1440.57 1064.72 1442.94 1065.68 1445.31 1066.65C1447.4 1067.45 1449.5 1068.26 1451.65 1069.15C1453.08 1069.71 1454.51 1070.27 1456 1070.84C1456.72 1071.16 1457.49 1071.4 1458.21 1071.72C1461.57 1073.01 1464.99 1074.38 1468.46 1075.67C1471.94 1077.04 1475.52 1078.41 1479.1 1079.78C1574.98 1116.34 1711.98 1165.3 1708.07 1176.57C1706.52 1181 1660.93 1186.64 1534.18 1187.69C1510.86 1187.85 1484.84 1187.93 1455.84 1187.69C1337.74 1187.04 1170.36 1183.18 938.202 1173.76C421.118 1152.58 -104.29 1127.21 -269.356 1111.18C-301.112 1108.12 -319.526 1105.38 -322.007 1103.05C-343.453 1083.24 294.259 1006.17 902.807 977.018C902.807 977.018 903.083 977.018 903.634 976.937C1150.57 965.18 1392.6 961.234 1583.91 972.267C1583.91 972.267 2609.7 1030.41 2609.31 1044.02V1044.26Z" fill="url(#paint61_linear_1425_4143)"/>
<path style="mix-blend-mode:multiply" opacity="0.42" d="M1708.12 1176.73C1707.46 1178.59 1699.08 1180.68 1680.22 1182.53C1645.82 1185.92 1576.58 1188.65 1455.84 1187.93C1393.37 1151.69 1323.52 1108.52 1318.78 1093.95C1323.46 1091.94 1327.82 1089.84 1331.9 1087.83C1386.65 1061.01 1388.41 1039.59 1388.41 1039.59C1388.3 1044.34 1427.77 1060.37 1479.05 1079.86C1491.4 1084.53 1504.41 1089.44 1517.69 1094.43C1607.84 1128.34 1711.43 1166.83 1708.01 1176.65L1708.12 1176.73Z" fill="url(#paint62_linear_1425_4143)"/>
<path style="mix-blend-mode:multiply" opacity="0.63" d="M2609.31 1044.26C2609.09 1051.83 2229.17 1045.31 1893.25 1040.4C1681.38 1015.67 1485.88 948.349 902.807 977.259C902.807 977.259 903.082 977.259 903.634 977.259C1150.57 965.502 1392.6 961.556 1583.85 972.589C1583.85 972.589 2609.64 1030.73 2609.25 1044.34L2609.31 1044.26Z" fill="url(#paint63_linear_1425_4143)"/>
<path style="mix-blend-mode:multiply" opacity="0.42" d="M1680.22 1182.53C1634.85 1155.07 1574.21 1123.1 1517.75 1094.51C1607.89 1128.42 1711.54 1166.91 1708.07 1176.74C1707.4 1178.59 1699.02 1180.68 1680.17 1182.53H1680.22Z" fill="url(#paint64_linear_1425_4143)"/>
<path style="mix-blend-mode:multiply" opacity="0.38" d="M1708.12 1176.73C1714.19 1159.34 1388.08 1053.28 1388.47 1039.59C1388.47 1038.46 1396.57 1037.66 1411.4 1037.09C1573.43 1150.64 2353.39 1184.06 2353.39 1184.06C2353.39 1184.06 1804.16 1190.18 1534.18 1187.77C1660.93 1186.72 1706.58 1181.16 1708.12 1176.65V1176.73Z" fill="url(#paint65_linear_1425_4143)"/>
<path d="M1426.29 1059.16C1424.63 1058.43 1422.98 1057.79 1421.38 1057.15C1422.98 1057.79 1424.63 1058.52 1426.29 1059.16Z" fill="#4DC4AD"/>
<path d="M1451.7 1069.31C1449.55 1068.5 1447.46 1067.62 1445.36 1066.81C1447.46 1067.62 1449.55 1068.42 1451.7 1069.31Z" fill="#4DC4AD"/>
<path d="M2402.12 1047.24C2262.36 1046.03 2071.66 1042.97 1893.31 1040.32C1762.87 1038.38 1639.04 1036.77 1546.69 1036.29C1543.39 1036.29 1540.19 1036.29 1536.99 1036.29C1480.26 1036.05 1436.32 1036.29 1411.4 1037.18C1396.57 1037.74 1388.52 1038.54 1388.47 1039.67C1388.47 1039.67 1386.65 1061.09 1331.96 1087.91C1324.13 1088.96 1319.66 1089.92 1318.94 1091.05C1318.45 1091.86 1318.39 1092.82 1318.78 1093.95C1323.52 1108.45 1393.37 1151.69 1455.84 1187.93C1407.27 1187.69 1350.37 1186.88 1284.1 1185.35C1274.56 1185.11 1264.86 1184.87 1254.94 1184.63C1241.37 1184.31 1227.42 1183.9 1213.09 1183.5C1199.86 1183.1 1186.35 1182.78 1172.46 1182.29C1102.88 1180.2 1025.09 1177.46 938.147 1173.92C844.367 1170.05 750.367 1166.11 658.242 1162.08C523.223 1156.2 392.34 1150.16 272.538 1144.2C159.021 1138.64 55.4277 1133.17 -32.3425 1128.01C-137.314 1121.89 -219.681 1116.18 -269.355 1111.34C-262.574 1109.33 -254.414 1107.32 -244.877 1105.3C-221.39 1100.31 -189.8 1095.24 -151.593 1090.16C-46.3461 1076.15 108.961 1062.22 283.068 1049.42C401.822 1040.72 529.288 1032.58 655.595 1025.42C802.853 1017.04 948.457 1010.04 1076.64 1004.88C1141.14 1002.3 1201.29 1000.21 1254.99 998.762C1264.97 998.44 1274.67 998.198 1284.16 997.956C1295.51 997.634 1306.59 997.393 1317.29 997.232C1358.75 996.346 1394.86 995.943 1424.36 996.024C1459.31 996.104 1497.19 996.587 1537.05 997.473C1540.3 997.473 1543.5 997.634 1546.75 997.634C1829.96 1003.92 2207.78 1026.55 2359.62 1042.25C2376.87 1044.02 2391.21 1045.71 2402.12 1047.32V1047.24Z" fill="url(#paint66_linear_1425_4143)"/>
<path d="M2392.37 1042.49C2381.72 1042.41 2370.75 1042.33 2359.56 1042.17C2223.61 1040.8 2048.29 1037.98 1883.55 1035.57C1753.11 1033.63 1629.28 1032.02 1536.94 1031.54C1533.63 1031.54 1530.43 1031.54 1527.23 1031.54C1470.5 1031.3 1426.56 1031.54 1401.64 1032.42C1386.81 1032.99 1378.76 1033.79 1378.71 1034.92C1378.71 1034.92 1378.49 1037.5 1375.9 1042.01C1357.21 1042.25 1336.86 1042.57 1315.03 1043.05C1304.33 1043.3 1293.31 1043.54 1281.9 1043.78C1272.41 1044.02 1262.65 1044.26 1252.73 1044.59C1199.03 1046.03 1138.94 1048.13 1074.38 1050.71C946.196 1055.78 800.593 1062.87 653.335 1071.24C527.082 1078.41 399.562 1086.54 280.808 1095.24C181.46 1102.57 59.2318 1117.63 -32.3977 1128.1C-137.369 1121.98 -219.736 1116.26 -269.41 1111.43C-262.629 1109.41 -254.47 1107.4 -244.932 1105.39C-218.744 1100.55 -187.264 1095.48 -151.648 1090.25C-38.8481 1073.74 115.191 1056.34 273.254 1044.75C392.009 1036.05 519.474 1027.91 645.782 1020.75C793.039 1012.37 938.643 1005.37 1066.83 1000.21C1131.33 997.635 1191.48 995.541 1245.18 994.092C1255.16 993.77 1264.86 993.528 1274.34 993.286C1285.7 992.964 1296.78 992.723 1307.48 992.562C1348.94 991.676 1385.05 991.273 1414.54 991.354C1449.5 991.434 1487.37 991.917 1527.23 992.803C1530.49 992.803 1533.68 992.965 1536.94 992.965C1852.29 999.971 2284.97 1027.27 2392.37 1042.57V1042.49Z" fill="url(#paint67_linear_1425_4143)"/>
<g opacity="0.55">
<g style="mix-blend-mode:multiply" opacity="0.25">
<path fill-rule="evenodd" clip-rule="evenodd" d="M590.264 1076.31C590.374 1079.7 576.867 1082.92 560.162 1083.48C543.401 1084.05 529.784 1081.79 529.674 1078.41C529.563 1075.03 543.071 1071.8 559.776 1071.24C576.536 1070.68 590.153 1072.93 590.264 1076.31Z" fill="#DC3E75"/>
</g>
<path fill-rule="evenodd" clip-rule="evenodd" d="M681.286 1007.38C681.286 1007.94 674.395 1008.67 665.794 1008.91C657.249 1009.23 650.302 1008.91 650.247 1008.43C650.247 1007.86 657.139 1007.14 665.739 1006.9C674.285 1006.57 681.231 1006.9 681.286 1007.38Z" fill="url(#paint68_linear_1425_4143)"/>
<path fill-rule="evenodd" clip-rule="evenodd" d="M684.925 986.037C684.925 986.037 682.224 986.601 678.916 986.682C675.608 986.762 672.906 986.682 672.906 986.44C672.906 986.199 675.553 985.876 678.916 985.796C682.224 985.715 684.925 985.796 684.925 986.037Z" fill="url(#paint69_linear_1425_4143)"/>
<path fill-rule="evenodd" clip-rule="evenodd" d="M584.696 996.266C584.696 996.266 583.318 996.507 581.608 996.507C579.899 996.507 578.521 996.507 578.521 996.507C578.521 996.427 579.899 996.266 581.608 996.266C583.318 996.266 584.696 996.266 584.696 996.266Z" fill="url(#paint70_linear_1425_4143)"/>
<path fill-rule="evenodd" clip-rule="evenodd" d="M589.713 1024.85C589.713 1025.82 581.443 1026.87 571.188 1027.27C560.934 1027.59 552.553 1027.11 552.553 1026.14C552.553 1025.18 560.823 1024.13 571.078 1023.73C581.332 1023.4 589.713 1023.89 589.713 1024.85Z" fill="url(#paint71_linear_1425_4143)"/>
<path fill-rule="evenodd" clip-rule="evenodd" d="M519.309 1002.22C519.309 1002.22 518.041 1002.63 516.442 1002.71C514.843 1002.71 513.52 1002.71 513.52 1002.39C513.52 1002.14 514.788 1001.98 516.387 1001.9C517.985 1001.9 519.309 1001.9 519.309 1002.22Z" fill="url(#paint72_linear_1425_4143)"/>
<path fill-rule="evenodd" clip-rule="evenodd" d="M544.559 1002.06C544.559 1002.06 543.346 1002.55 541.858 1002.63C540.369 1002.71 539.156 1002.55 539.156 1002.22C539.156 1001.98 540.369 1001.74 541.858 1001.66C543.346 1001.66 544.559 1001.74 544.559 1002.06Z" fill="url(#paint73_linear_1425_4143)"/>
<path fill-rule="evenodd" clip-rule="evenodd" d="M549.19 1001.42C549.19 1001.42 549.025 1001.26 548.804 1001.26C548.584 1001.26 548.418 1001.34 548.418 1001.42C548.418 1001.5 548.584 1001.58 548.804 1001.58C549.025 1001.58 549.19 1001.5 549.19 1001.42Z" fill="url(#paint74_linear_1425_4143)"/>
<path fill-rule="evenodd" clip-rule="evenodd" d="M577.528 1003.03C577.528 1003.92 573.228 1004.8 567.88 1004.96C562.532 1005.12 558.177 1004.56 558.122 1003.67C558.122 1002.79 562.422 1001.9 567.77 1001.74C573.118 1001.58 577.473 1002.14 577.528 1003.03Z" fill="url(#paint75_linear_1425_4143)"/>
</g>
<g style="mix-blend-mode:multiply" opacity="0.11">
<path fill-rule="evenodd" clip-rule="evenodd" d="M1528.72 1027.51C1527.78 1030.57 1513.56 1032.75 1496.97 1032.26C1480.37 1031.78 1467.75 1029.04 1468.68 1025.98C1469.62 1022.92 1483.84 1020.75 1500.38 1021.23C1516.92 1021.63 1529.6 1024.45 1528.67 1027.51H1528.72Z" fill="#DC3E75"/>
</g>
<path fill-rule="evenodd" clip-rule="evenodd" d="M1215.85 1089.28C1215.63 1090 1213.37 1090.49 1210.77 1090.41C1208.18 1090.41 1206.25 1089.68 1206.47 1089.04C1206.69 1088.31 1208.96 1087.83 1211.55 1087.91C1214.14 1087.91 1216.07 1088.63 1215.85 1089.28Z" fill="url(#paint76_linear_1425_4143)"/>
<g style="mix-blend-mode:multiply" opacity="0.11">
<path fill-rule="evenodd" clip-rule="evenodd" d="M1303.34 1035.65C1303.12 1036.37 1300.86 1036.85 1298.27 1036.77C1295.68 1036.77 1293.75 1036.05 1293.97 1035.4C1294.19 1034.68 1296.45 1034.2 1299.04 1034.28C1301.63 1034.28 1303.56 1035 1303.34 1035.65Z" fill="#DC3E75"/>
</g>
<g style="mix-blend-mode:multiply" opacity="0.11">
<path fill-rule="evenodd" clip-rule="evenodd" d="M1370.11 1049.01C1369.45 1051.03 1362.83 1052.56 1355.28 1052.31C1347.72 1052.15 1342.1 1050.3 1342.76 1048.29C1343.37 1046.27 1350.04 1044.74 1357.59 1044.99C1365.15 1045.15 1370.77 1047 1370.11 1049.01Z" fill="#DC3E75"/>
</g>
<g opacity="0.54">
<path fill-rule="evenodd" clip-rule="evenodd" d="M155.602 1075.51C155.602 1074.38 164.203 1073.66 174.843 1073.82C185.484 1073.98 194.085 1074.94 194.085 1076.07C194.085 1077.2 185.484 1077.92 174.843 1077.76C164.203 1077.6 155.602 1076.64 155.602 1075.51Z" fill="url(#paint77_linear_1425_4143)"/>
<path fill-rule="evenodd" clip-rule="evenodd" d="M295.528 1065.44C295.528 1063.59 305.837 1062.22 318.573 1062.38C331.308 1062.54 341.673 1064.15 341.673 1066.01C341.673 1067.86 331.363 1069.23 318.628 1069.07C305.892 1068.9 295.528 1067.29 295.528 1065.44Z" fill="url(#paint78_linear_1425_4143)"/>
</g>
<path style="mix-blend-mode:multiply" opacity="0.38" d="M1350.48 932.887L1323.02 963.65L1205.87 968.562C1208.79 955.999 1211.93 944.403 1215.3 934.175L1350.48 932.887Z" fill="url(#paint79_linear_1425_4143)"/>
<g style="mix-blend-mode:multiply" opacity="0.4">
<path d="M1476.4 1009.31V1034.92C1474.25 1034.92 1472.1 1034.92 1469.95 1034.92V1009.23C1472.1 1009.23 1474.25 1009.31 1476.4 1009.39V1009.31Z" fill="#4DC4AD"/>
</g>
<path fill-rule="evenodd" clip-rule="evenodd" d="M1817.12 1052.23L1836.36 975.566L1842.59 982.975L1817.12 1052.23Z" fill="url(#paint80_linear_1425_4143)"/>
<path fill-rule="evenodd" clip-rule="evenodd" d="M1844.68 1046.11C1844.68 1042.41 1857.14 934.256 1857.14 934.256L1869.77 945.047L1850.25 1046.11L1869.77 995.379L1857.25 1048.69L1844.74 1046.11H1844.68Z" fill="url(#paint81_linear_1425_4143)"/>
<path d="M3306.84 1290.28C3235.39 1289.88 2631.64 1203.63 2190.42 1139.37C1927.16 1100.96 1721.74 1070.35 1721.74 1070.35L1834.15 1045.79L1837.02 1045.15L1810.78 917.586L1842.48 905.506L1843.42 905.103L1883.88 1034.03L1858.36 890.93L1895.29 1019.54L1928.15 1022.28H1929.26L1961.01 1025.01L1994.81 1027.83L2000.05 1028.24L2006.33 1028.72L2032.13 1030.81L2047.13 1032.02L2195.27 1044.26L3277.73 1133.89C3277.73 1133.89 3421.02 1290.85 3306.9 1290.12L3306.84 1290.28Z" fill="url(#paint82_linear_1425_4143)"/>
<path style="mix-blend-mode:multiply" opacity="0.37" d="M3141.5 1261.85L2042.61 1034.6C1877.27 1020.42 1838.4 1048.77 1838.4 1048.77L1906.49 1190.83L1925.95 1176.65L1910.57 1108.36L1945.41 1205.08L1923.52 1113.68L1945.41 1119.8L1958.92 1253.64L2026.07 1242.37L2039.41 1240.11L2039.63 1194.45C2043.82 1202.74 2048.18 1211.6 2052.7 1221.03L2054.74 1240.19L2060.58 1237.86C2077.78 1274.98 2115.27 1191.63 2100.99 1148.23L3141.5 1261.85Z" fill="url(#paint83_linear_1425_4143)"/>
<path d="M2032.46 1059L1963.66 1052.23L1933.06 1049.25L1932.95 1048.85L1928.04 1022.27L1924.68 1003.75L1898.77 863.628L1965.31 839.71L1978.54 834.878L1987.7 895.116L2001.92 988.371L2006 1014.7L1994.97 852.434L1993.21 825.939L1999.27 825.617L2014.77 824.892L2028.93 824.248L2032.02 1029.76L2032.08 1030.89L2032.46 1057.31V1059Z" fill="url(#paint84_linear_1425_4143)"/>
<path style="mix-blend-mode:multiply" opacity="0.37" d="M2008.09 1046.19L1997.45 1045.15L1994.75 1027.75L1980.25 935.301L1965.31 839.711L1978.54 834.879L1987.7 895.116L2001.92 988.371L2006.22 1028.72L2008.09 1046.19Z" fill="url(#paint85_linear_1425_4143)"/>
<path style="mix-blend-mode:multiply" opacity="0.37" d="M2032.02 1029.76L2014.77 824.893L2028.93 824.168L2032.02 1029.76Z" fill="url(#paint86_linear_1425_4143)"/>
</g>
</g>
<defs>
<filter id="filter0_f_1425_4143" x="0" y="0" width="2338" height="1108" filterUnits="userSpaceOnUse" color-interpolation-filters="sRGB">
<feFlood flood-opacity="0" result="BackgroundImageFix"/>
<feBlend mode="normal" in="SourceGraphic" in2="BackgroundImageFix" result="shape"/>
<feGaussianBlur stdDeviation="5" result="effect1_foregroundBlur_1425_4143"/>
</filter>
<linearGradient id="paint0_linear_1425_4143" x1="1182.18" y1="-39.417" x2="1182.18" y2="840.879" gradientUnits="userSpaceOnUse">
<stop stop-color="#484AFF"/>
<stop offset="0.06" stop-color="#4854FE"/>
<stop offset="0.18" stop-color="#4A71FE"/>
<stop offset="0.32" stop-color="#4E9FFD"/>
<stop offset="0.36" stop-color="#4FACFD"/>
<stop offset="0.41" stop-color="#58B4F9"/>
<stop offset="0.67" stop-color="#84DDE7"/>
<stop offset="0.88" stop-color="#9FF5DC"/>
<stop offset="1" stop-color="#A9FFD9"/>
</linearGradient>
<radialGradient id="paint1_radial_1425_4143" cx="0" cy="0" r="1" gradientUnits="userSpaceOnUse" gradientTransform="translate(1391.02 259.607) rotate(-159.852) scale(703.057 1106)">
<stop/>
<stop offset="0.99" stop-color="#4041FD"/>
</radialGradient>
<linearGradient id="paint2_linear_1425_4143" x1="1875.63" y1="317.718" x2="1870.27" y2="63.795" gradientUnits="userSpaceOnUse">
<stop stop-color="#B1E2FD"/>
<stop offset="0.41" stop-color="#C9EEF8"/>
<stop offset="1" stop-color="#E9FFF3"/>
</linearGradient>
<linearGradient id="paint3_linear_1425_4143" x1="1870.97" y1="153.593" x2="1895.98" y2="547.873" gradientUnits="userSpaceOnUse">
<stop stop-color="white"/>
<stop offset="0.16" stop-color="#E7EBFA"/>
<stop offset="0.48" stop-color="#ACB8ED"/>
<stop offset="0.95" stop-color="#4E67D9"/>
<stop offset="1" stop-color="#435ED7"/>
</linearGradient>
<linearGradient id="paint4_linear_1425_4143" x1="2300.06" y1="459.838" x2="2145.11" y2="152.423" gradientUnits="userSpaceOnUse">
<stop stop-color="#B1E2FD"/>
<stop offset="0.41" stop-color="#C9EEF8"/>
<stop offset="1" stop-color="#E9FFF3"/>
</linearGradient>
<linearGradient id="paint5_linear_1425_4143" x1="2248.67" y1="314.575" x2="2279.8" y2="529.046" gradientUnits="userSpaceOnUse">
<stop stop-color="white"/>
<stop offset="0.16" stop-color="#E7EBFA"/>
<stop offset="0.48" stop-color="#ACB8ED"/>
<stop offset="0.95" stop-color="#4E67D9"/>
<stop offset="1" stop-color="#435ED7"/>
</linearGradient>
<linearGradient id="paint6_linear_1425_4143" x1="1507.52" y1="298.922" x2="1521.14" y2="151.507" gradientUnits="userSpaceOnUse">
<stop stop-color="#B1E2FD"/>
<stop offset="0.41" stop-color="#C9EEF8"/>
<stop offset="1" stop-color="#E9FFF3"/>
</linearGradient>
<linearGradient id="paint7_linear_1425_4143" x1="262.439" y1="738.84" x2="245.418" y2="128.629" gradientUnits="userSpaceOnUse">
<stop stop-color="#B1E2FD"/>
<stop offset="0.41" stop-color="#C9EEF8"/>
<stop offset="1" stop-color="#E9FFF3"/>
</linearGradient>
<linearGradient id="paint8_linear_1425_4143" x1="259.704" y1="269.908" x2="257.599" y2="588.46" gradientUnits="userSpaceOnUse">
<stop stop-color="white"/>
<stop offset="0.16" stop-color="#E7EBFA"/>
<stop offset="0.48" stop-color="#ACB8ED"/>
<stop offset="0.95" stop-color="#4E67D9"/>
<stop offset="1" stop-color="#435ED7"/>
</linearGradient>
<linearGradient id="paint9_linear_1425_4143" x1="1223.79" y1="690.834" x2="1201.54" y2="332.663" gradientUnits="userSpaceOnUse">
<stop stop-color="#B1E2FD"/>
<stop offset="0.41" stop-color="#C9EEF8"/>
<stop offset="1" stop-color="#E9FFF3"/>
</linearGradient>
<linearGradient id="paint10_linear_1425_4143" x1="895.179" y1="477.259" x2="895.274" y2="474.379" gradientUnits="userSpaceOnUse">
<stop stop-color="#B1E2FD"/>
<stop offset="0.41" stop-color="#C9EEF8"/>
<stop offset="1" stop-color="#E9FFF3"/>
</linearGradient>
<linearGradient id="paint11_linear_1425_4143" x1="1218.05" y1="344.898" x2="1216.52" y2="523.099" gradientUnits="userSpaceOnUse">
<stop stop-color="white"/>
<stop offset="0.16" stop-color="#E7EBFA"/>
<stop offset="0.48" stop-color="#ACB8ED"/>
<stop offset="0.95" stop-color="#4E67D9"/>
<stop offset="1" stop-color="#435ED7"/>
</linearGradient>
<linearGradient id="paint12_linear_1425_4143" x1="895.224" y1="474.836" x2="895.224" y2="475.425" gradientUnits="userSpaceOnUse">
<stop stop-color="white"/>
<stop offset="0.16" stop-color="#E7EBFA"/>
<stop offset="0.48" stop-color="#ACB8ED"/>
<stop offset="0.95" stop-color="#4E67D9"/>
<stop offset="1" stop-color="#435ED7"/>
</linearGradient>
<linearGradient id="paint13_linear_1425_4143" x1="1196.17" y1="475.427" x2="1196.17" y2="475.82" gradientUnits="userSpaceOnUse">
<stop stop-color="white"/>
<stop offset="0.16" stop-color="#E7EBFA"/>
<stop offset="0.48" stop-color="#ACB8ED"/>
<stop offset="0.95" stop-color="#4E67D9"/>
<stop offset="1" stop-color="#435ED7"/>
</linearGradient>
<linearGradient id="paint14_linear_1425_4143" x1="144.024" y1="474.248" x2="144.024" y2="474.379" gradientUnits="userSpaceOnUse">
<stop stop-color="white"/>
<stop offset="0.16" stop-color="#E7EBFA"/>
<stop offset="0.48" stop-color="#ACB8ED"/>
<stop offset="0.95" stop-color="#4E67D9"/>
<stop offset="1" stop-color="#435ED7"/>
</linearGradient>
<linearGradient id="paint15_linear_1425_4143" x1="736.67" y1="136.849" x2="-754.706" y2="1906.61" gradientUnits="userSpaceOnUse">
<stop stop-color="#FDA119"/>
<stop offset="0.21" stop-color="#B57311"/>
<stop offset="0.42" stop-color="#754A0B"/>
<stop offset="0.61" stop-color="#422A06"/>
<stop offset="0.78" stop-color="#1E1303"/>
<stop offset="0.91" stop-color="#080500"/>
<stop offset="1"/>
</linearGradient>
<linearGradient id="paint16_linear_1425_4143" x1="898.231" y1="558.808" x2="2102.13" y2="639.873" gradientUnits="userSpaceOnUse">
<stop stop-color="#FDA119"/>
<stop offset="0.21" stop-color="#B57311"/>
<stop offset="0.42" stop-color="#754A0B"/>
<stop offset="0.61" stop-color="#422A06"/>
<stop offset="0.78" stop-color="#1E1303"/>
<stop offset="0.91" stop-color="#080500"/>
<stop offset="1"/>
</linearGradient>
<linearGradient id="paint17_linear_1425_4143" x1="1542.94" y1="1095.75" x2="1558.78" y2="664.402" gradientUnits="userSpaceOnUse">
<stop stop-color="#B8E2FD"/>
<stop offset="0.27" stop-color="#B4DCFD"/>
<stop offset="0.6" stop-color="#ACCDFD"/>
<stop offset="0.96" stop-color="#9DB5FD"/>
<stop offset="1" stop-color="#9CB2FD"/>
</linearGradient>
<linearGradient id="paint18_linear_1425_4143" x1="1038.52" y1="1143.73" x2="1071.58" y2="243.537" gradientUnits="userSpaceOnUse">
<stop stop-color="#A5ABFD"/>
<stop offset="0.23" stop-color="#9FA8F9"/>
<stop offset="0.5" stop-color="#909FF0"/>
<stop offset="0.8" stop-color="#7891E2"/>
<stop offset="1" stop-color="#6486D6"/>
</linearGradient>
<linearGradient id="paint19_linear_1425_4143" x1="2259.56" y1="1007.75" x2="2299.2" y2="-71.9095" gradientUnits="userSpaceOnUse">
<stop stop-color="#9D8C9D"/>
<stop offset="0.25" stop-color="#9A8698"/>
<stop offset="0.57" stop-color="#93778B"/>
<stop offset="0.9" stop-color="#885F77"/>
<stop offset="1" stop-color="#855770"/>
</linearGradient>
<linearGradient id="paint20_linear_1425_4143" x1="2234.55" y1="928.54" x2="2250.26" y2="500.787" gradientUnits="userSpaceOnUse">
<stop stop-color="#D8D7FD"/>
<stop offset="0.3" stop-color="#C7C6EC"/>
<stop offset="0.69" stop-color="#B9B7DE"/>
<stop offset="1" stop-color="#B5B2D9"/>
</linearGradient>
<linearGradient id="paint21_linear_1425_4143" x1="2373.17" y1="963.307" x2="2400.45" y2="220.398" gradientUnits="userSpaceOnUse">
<stop stop-color="#D8D7FD"/>
<stop offset="0.3" stop-color="#C7C6EC"/>
<stop offset="0.69" stop-color="#B9B7DE"/>
<stop offset="1" stop-color="#B5B2D9"/>
</linearGradient>
<linearGradient id="paint22_linear_1425_4143" x1="2300.2" y1="994.105" x2="2326.46" y2="279.198" gradientUnits="userSpaceOnUse">
<stop offset="0.02" stop-color="white"/>
<stop offset="0.11" stop-color="#F0EEF4"/>
<stop offset="0.4" stop-color="#C5BAD5"/>
<stop offset="0.66" stop-color="#A594BE"/>
<stop offset="0.86" stop-color="#927DB1"/>
<stop offset="0.99" stop-color="#8B75AC"/>
</linearGradient>
<linearGradient id="paint23_linear_1425_4143" x1="42.0276" y1="1067.63" x2="88.922" y2="-209.477" gradientUnits="userSpaceOnUse">
<stop stop-color="#9D8C9D"/>
<stop offset="0.25" stop-color="#9A8698"/>
<stop offset="0.57" stop-color="#93778B"/>
<stop offset="0.9" stop-color="#885F77"/>
<stop offset="1" stop-color="#855770"/>
</linearGradient>
<linearGradient id="paint24_linear_1425_4143" x1="292.229" y1="1011.63" x2="297.279" y2="874.109" gradientUnits="userSpaceOnUse">
<stop stop-color="#D8D7FD"/>
<stop offset="0.3" stop-color="#C7C6EC"/>
<stop offset="0.69" stop-color="#B9B7DE"/>
<stop offset="1" stop-color="#B5B2D9"/>
</linearGradient>
<linearGradient id="paint25_linear_1425_4143" x1="23.2586" y1="956.816" x2="42.0595" y2="444.794" gradientUnits="userSpaceOnUse">
<stop stop-color="#D8D7FD"/>
<stop offset="0.3" stop-color="#C7C6EC"/>
<stop offset="0.69" stop-color="#B9B7DE"/>
<stop offset="1" stop-color="#B5B2D9"/>
</linearGradient>
<linearGradient id="paint26_linear_1425_4143" x1="-51.8038" y1="984.393" x2="-20.0157" y2="118.68" gradientUnits="userSpaceOnUse">
<stop offset="0.02" stop-color="white"/>
<stop offset="0.11" stop-color="#F0EEF4"/>
<stop offset="0.4" stop-color="#C5BAD5"/>
<stop offset="0.66" stop-color="#A594BE"/>
<stop offset="0.86" stop-color="#927DB1"/>
<stop offset="0.99" stop-color="#8B75AC"/>
</linearGradient>
<linearGradient id="paint27_linear_1425_4143" x1="165.926" y1="1105.6" x2="193.34" y2="359.023" gradientUnits="userSpaceOnUse">
<stop stop-color="#4D98FD"/>
<stop offset="0.03" stop-color="#4990F0"/>
<stop offset="0.19" stop-color="#366AB1"/>
<stop offset="0.35" stop-color="#254A7B"/>
<stop offset="0.5" stop-color="#182F4F"/>
<stop offset="0.64" stop-color="#0D1A2C"/>
<stop offset="0.77" stop-color="#060C14"/>
<stop offset="0.9" stop-color="#010305"/>
<stop offset="1"/>
</linearGradient>
<linearGradient id="paint28_linear_1425_4143" x1="1828.14" y1="821.994" x2="2390.1" y2="821.994" gradientUnits="userSpaceOnUse">
<stop stop-color="#004E05"/>
<stop offset="0.45" stop-color="#4E7E06"/>
<stop offset="1" stop-color="#ACB807"/>
</linearGradient>
<linearGradient id="paint29_linear_1425_4143" x1="2024.47" y1="860.087" x2="2442.26" y2="860.087" gradientUnits="userSpaceOnUse">
<stop stop-color="#004E05"/>
<stop offset="0.45" stop-color="#4E7E06"/>
<stop offset="1" stop-color="#ACB807"/>
</linearGradient>
<linearGradient id="paint30_linear_1425_4143" x1="1457.16" y1="852.515" x2="2192.95" y2="852.515" gradientUnits="userSpaceOnUse">
<stop stop-color="#004E05"/>
<stop offset="0.45" stop-color="#4E7E06"/>
<stop offset="1" stop-color="#ACB807"/>
</linearGradient>
<linearGradient id="paint31_linear_1425_4143" x1="502.934" y1="1046.68" x2="458.791" y2="574.208" gradientUnits="userSpaceOnUse">
<stop stop-color="#004E05"/>
<stop offset="0.45" stop-color="#4E7E06"/>
<stop offset="1" stop-color="#ACB807"/>
</linearGradient>
<linearGradient id="paint32_linear_1425_4143" x1="380.761" y1="1058.11" x2="336.618" y2="585.562" gradientUnits="userSpaceOnUse">
<stop stop-color="#004E05"/>
<stop offset="0.45" stop-color="#4E7E06"/>
<stop offset="1" stop-color="#ACB807"/>
</linearGradient>
<linearGradient id="paint33_linear_1425_4143" x1="254.454" y1="1069.87" x2="210.195" y2="597.411" gradientUnits="userSpaceOnUse">
<stop stop-color="#004E05"/>
<stop offset="0.45" stop-color="#4E7E06"/>
<stop offset="1" stop-color="#ACB807"/>
</linearGradient>
<linearGradient id="paint34_linear_1425_4143" x1="844.367" y1="1014.79" x2="800.224" y2="542.317" gradientUnits="userSpaceOnUse">
<stop stop-color="#004E05"/>
<stop offset="0.45" stop-color="#4E7E06"/>
<stop offset="1" stop-color="#ACB807"/>
</linearGradient>
<linearGradient id="paint35_linear_1425_4143" x1="1129.29" y1="883.6" x2="1688.55" y2="883.6" gradientUnits="userSpaceOnUse">
<stop stop-color="#004E05"/>
<stop offset="0.45" stop-color="#4E7E06"/>
<stop offset="1" stop-color="#ACB807"/>
</linearGradient>
<radialGradient id="paint36_radial_1425_4143" cx="0" cy="0" r="1" gradientUnits="userSpaceOnUse" gradientTransform="translate(1273.04 880.529) scale(1127.34 205.838)">
<stop stop-color="#FDAE4D"/>
<stop offset="0.12" stop-color="#E69E46"/>
<stop offset="0.36" stop-color="#AD7734"/>
<stop offset="0.71" stop-color="#513818"/>
<stop offset="1"/>
</radialGradient>
<radialGradient id="paint37_radial_1425_4143" cx="0" cy="0" r="1" gradientUnits="userSpaceOnUse" gradientTransform="translate(29.3179 566.917) rotate(123.239) scale(14.1887 13.0222)">
<stop offset="0.02" stop-color="#FF9D77"/>
<stop offset="0.33" stop-color="#FC9B76"/>
<stop offset="0.46" stop-color="#F59772"/>
<stop offset="0.56" stop-color="#E98F6C"/>
<stop offset="0.65" stop-color="#D78464"/>
<stop offset="0.72" stop-color="#BF7659"/>
<stop offset="0.79" stop-color="#A3644C"/>
<stop offset="0.85" stop-color="#804F3C"/>
<stop offset="0.9" stop-color="#593629"/>
<stop offset="0.95" stop-color="#2D1C15"/>
<stop offset="1"/>
</radialGradient>
<radialGradient id="paint38_radial_1425_4143" cx="0" cy="0" r="1" gradientUnits="userSpaceOnUse" gradientTransform="translate(64.2448 495.688) rotate(123.24) scale(6.53793 6.00044)">
<stop offset="0.02" stop-color="#FF7500"/>
<stop offset="0.33" stop-color="#FC7400"/>
<stop offset="0.46" stop-color="#F57000"/>
<stop offset="0.56" stop-color="#E96A00"/>
<stop offset="0.65" stop-color="#D76200"/>
<stop offset="0.72" stop-color="#BF5800"/>
<stop offset="0.79" stop-color="#A34A00"/>
<stop offset="0.85" stop-color="#803B00"/>
<stop offset="0.9" stop-color="#592800"/>
<stop offset="0.95" stop-color="#2D1500"/>
<stop offset="1"/>
</radialGradient>
<radialGradient id="paint39_radial_1425_4143" cx="0" cy="0" r="1" gradientUnits="userSpaceOnUse" gradientTransform="translate(-0.0328938 605.228) rotate(123.239) scale(99.1125 90.9641)">
<stop offset="0.02" stop-color="#4C427C"/>
<stop offset="0.22" stop-color="#3B3360"/>
<stop offset="0.75" stop-color="#100E1B"/>
<stop offset="1"/>
</radialGradient>
<radialGradient id="paint40_radial_1425_4143" cx="0" cy="0" r="1" gradientUnits="userSpaceOnUse" gradientTransform="translate(280.341 952.494) rotate(146.533) scale(12.283 15.0427)">
<stop offset="0.02" stop-color="#FF9D77"/>
<stop offset="0.33" stop-color="#FC9B76"/>
<stop offset="0.46" stop-color="#F59772"/>
<stop offset="0.56" stop-color="#E98F6C"/>
<stop offset="0.65" stop-color="#D78464"/>
<stop offset="0.72" stop-color="#BF7659"/>
<stop offset="0.79" stop-color="#A3644C"/>
<stop offset="0.85" stop-color="#804F3C"/>
<stop offset="0.9" stop-color="#593629"/>
<stop offset="0.95" stop-color="#2D1C15"/>
<stop offset="1"/>
</radialGradient>
<radialGradient id="paint41_radial_1425_4143" cx="0" cy="0" r="1" gradientUnits="userSpaceOnUse" gradientTransform="translate(337.052 1074.2) rotate(146.533) scale(19.7491 24.1863)">
<stop offset="0.02" stop-color="#FF9D77"/>
<stop offset="0.33" stop-color="#FC9B76"/>
<stop offset="0.46" stop-color="#F59772"/>
<stop offset="0.56" stop-color="#E98F6C"/>
<stop offset="0.65" stop-color="#D78464"/>
<stop offset="0.72" stop-color="#BF7659"/>
<stop offset="0.79" stop-color="#A3644C"/>
<stop offset="0.85" stop-color="#804F3C"/>
<stop offset="0.9" stop-color="#593629"/>
<stop offset="0.95" stop-color="#2D1C15"/>
<stop offset="1"/>
</radialGradient>
<radialGradient id="paint42_radial_1425_4143" cx="0" cy="0" r="1" gradientUnits="userSpaceOnUse" gradientTransform="translate(1029.02 638.16) rotate(146.533) scale(65.9306 80.7439)">
<stop offset="0.02" stop-color="#AF5500"/>
<stop offset="0.36" stop-color="#AC5300"/>
<stop offset="0.51" stop-color="#A55000"/>
<stop offset="0.62" stop-color="#994A00"/>
<stop offset="0.71" stop-color="#874100"/>
<stop offset="0.79" stop-color="#6F3600"/>
<stop offset="0.86" stop-color="#532800"/>
<stop offset="0.93" stop-color="#311700"/>
<stop offset="0.99" stop-color="#0A0500"/>
<stop offset="1"/>
</radialGradient>
<radialGradient id="paint43_radial_1425_4143" cx="0" cy="0" r="1" gradientUnits="userSpaceOnUse" gradientTransform="translate(2218.47 957.582) rotate(146.533) scale(23.7831 29.1268)">
<stop offset="0.02" stop-color="#FF9D77"/>
<stop offset="0.33" stop-color="#FC9B76"/>
<stop offset="0.46" stop-color="#F59772"/>
<stop offset="0.56" stop-color="#E98F6C"/>
<stop offset="0.65" stop-color="#D78464"/>
<stop offset="0.72" stop-color="#BF7659"/>
<stop offset="0.79" stop-color="#A3644C"/>
<stop offset="0.85" stop-color="#804F3C"/>
<stop offset="0.9" stop-color="#593629"/>
<stop offset="0.95" stop-color="#2D1C15"/>
<stop offset="1"/>
</radialGradient>
<radialGradient id="paint44_radial_1425_4143" cx="0" cy="0" r="1" gradientUnits="userSpaceOnUse" gradientTransform="translate(2017.22 775.051) rotate(146.533) scale(120 146.961)">
<stop offset="0.02" stop-color="#AF5500"/>
<stop offset="0.36" stop-color="#AC5300"/>
<stop offset="0.51" stop-color="#A55000"/>
<stop offset="0.62" stop-color="#994A00"/>
<stop offset="0.71" stop-color="#874100"/>
<stop offset="0.79" stop-color="#6F3600"/>
<stop offset="0.86" stop-color="#532800"/>
<stop offset="0.93" stop-color="#311700"/>
<stop offset="0.99" stop-color="#0A0500"/>
<stop offset="1"/>
</radialGradient>
<radialGradient id="paint45_radial_1425_4143" cx="0" cy="0" r="1" gradientUnits="userSpaceOnUse" gradientTransform="translate(1395.64 1031) rotate(146.533) scale(30.4063 37.238)">
<stop offset="0.02" stop-color="#FF7500"/>
<stop offset="0.33" stop-color="#FC7400"/>
<stop offset="0.46" stop-color="#F57000"/>
<stop offset="0.56" stop-color="#E96A00"/>
<stop offset="0.65" stop-color="#D76200"/>
<stop offset="0.72" stop-color="#BF5800"/>
<stop offset="0.79" stop-color="#A34A00"/>
<stop offset="0.85" stop-color="#803B00"/>
<stop offset="0.9" stop-color="#592800"/>
<stop offset="0.95" stop-color="#2D1500"/>
<stop offset="1"/>
</radialGradient>
<radialGradient id="paint46_radial_1425_4143" cx="0" cy="0" r="1" gradientUnits="userSpaceOnUse" gradientTransform="translate(1788.97 1159.66) rotate(146.533) scale(73.5171 90.035)">
<stop offset="0.03" stop-color="#FF5400"/>
<stop offset="0.15" stop-color="#FB5200"/>
<stop offset="0.27" stop-color="#EF4E00"/>
<stop offset="0.4" stop-color="#DB4800"/>
<stop offset="0.52" stop-color="#BF3E00"/>
<stop offset="0.64" stop-color="#9B3300"/>
<stop offset="0.76" stop-color="#6F2400"/>
<stop offset="0.88" stop-color="#3B1300"/>
<stop offset="1"/>
</radialGradient>
<radialGradient id="paint47_radial_1425_4143" cx="0" cy="0" r="1" gradientUnits="userSpaceOnUse" gradientTransform="translate(207.256 596.33) rotate(123.239) scale(15.858 14.5543)">
<stop offset="0.03" stop-color="#FF5400"/>
<stop offset="0.15" stop-color="#FB5200"/>
<stop offset="0.27" stop-color="#EF4E00"/>
<stop offset="0.4" stop-color="#DB4800"/>
<stop offset="0.52" stop-color="#BF3E00"/>
<stop offset="0.64" stop-color="#9B3300"/>
<stop offset="0.76" stop-color="#6F2400"/>
<stop offset="0.88" stop-color="#3B1300"/>
<stop offset="1"/>
</radialGradient>
<linearGradient id="paint48_linear_1425_4143" x1="1273.18" y1="1623.36" x2="1268.24" y2="846.813" gradientUnits="userSpaceOnUse">
<stop stop-color="#3E4E19"/>
<stop offset="1" stop-color="#B8B700"/>
</linearGradient>
<linearGradient id="paint49_linear_1425_4143" x1="310.964" y1="1202.34" x2="312.729" y2="1051.2" gradientUnits="userSpaceOnUse">
<stop stop-color="#3E4E19"/>
<stop offset="1" stop-color="#B8B700"/>
</linearGradient>
<linearGradient id="paint50_linear_1425_4143" x1="352.534" y1="1202.83" x2="354.299" y2="1051.68" gradientUnits="userSpaceOnUse">
<stop stop-color="#3E4E19"/>
<stop offset="1" stop-color="#B8B700"/>
</linearGradient>
<linearGradient id="paint51_linear_1425_4143" x1="200.59" y1="1201.06" x2="202.355" y2="1049.91" gradientUnits="userSpaceOnUse">
<stop stop-color="#3E4E19"/>
<stop offset="1" stop-color="#B8B700"/>
</linearGradient>
<linearGradient id="paint52_linear_1425_4143" x1="271.049" y1="1201.86" x2="272.813" y2="1050.72" gradientUnits="userSpaceOnUse">
<stop stop-color="#3E4E19"/>
<stop offset="1" stop-color="#B8B700"/>
</linearGradient>
<linearGradient id="paint53_linear_1425_4143" x1="40.4311" y1="1199.12" x2="42.1954" y2="1048.06" gradientUnits="userSpaceOnUse">
<stop stop-color="#3E4E19"/>
<stop offset="1" stop-color="#B8B700"/>
</linearGradient>
<linearGradient id="paint54_linear_1425_4143" x1="51.0136" y1="1199.28" x2="52.7779" y2="1048.13" gradientUnits="userSpaceOnUse">
<stop stop-color="#3E4E19"/>
<stop offset="1" stop-color="#B8B700"/>
</linearGradient>
<linearGradient id="paint55_linear_1425_4143" x1="13.3618" y1="1198.8" x2="15.1261" y2="1047.74" gradientUnits="userSpaceOnUse">
<stop stop-color="#3E4E19"/>
<stop offset="1" stop-color="#B8B700"/>
</linearGradient>
<linearGradient id="paint56_linear_1425_4143" x1="443.557" y1="931.757" x2="443.557" y2="936.026" gradientUnits="userSpaceOnUse">
<stop stop-color="#004E05"/>
<stop offset="0.45" stop-color="#4E7E06"/>
<stop offset="1" stop-color="#ACB807"/>
</linearGradient>
<linearGradient id="paint57_linear_1425_4143" x1="1987.2" y1="931.757" x2="1987.2" y2="933.851" gradientUnits="userSpaceOnUse">
<stop stop-color="#004E05"/>
<stop offset="0.45" stop-color="#4E7E06"/>
<stop offset="1" stop-color="#ACB807"/>
</linearGradient>
<linearGradient id="paint58_linear_1425_4143" x1="1963.49" y1="934.819" x2="1963.49" y2="937.315" gradientUnits="userSpaceOnUse">
<stop stop-color="#004E05"/>
<stop offset="0.45" stop-color="#4E7E06"/>
<stop offset="1" stop-color="#ACB807"/>
</linearGradient>
<linearGradient id="paint59_linear_1425_4143" x1="2149.89" y1="1078.24" x2="2149.89" y2="1097.97" gradientUnits="userSpaceOnUse">
<stop stop-color="#004E05"/>
<stop offset="0.45" stop-color="#4E7E06"/>
<stop offset="1" stop-color="#ACB807"/>
</linearGradient>
<linearGradient id="paint60_linear_1425_4143" x1="946.637" y1="280.664" x2="1156.42" y2="1768.94" gradientUnits="userSpaceOnUse">
<stop stop-color="#3E4E19"/>
<stop offset="1" stop-color="#B8B700"/>
</linearGradient>
<linearGradient id="paint61_linear_1425_4143" x1="1123.88" y1="885.231" x2="1244.28" y2="1425.86" gradientUnits="userSpaceOnUse">
<stop stop-color="#FDB063"/>
<stop offset="1" stop-color="#AE5E59"/>
</linearGradient>
<linearGradient id="paint62_linear_1425_4143" x1="1506" y1="1154.95" x2="1555.07" y2="1094.88" gradientUnits="userSpaceOnUse">
<stop stop-color="#F9CA7B"/>
<stop offset="1" stop-color="#CA5F4B"/>
</linearGradient>
<linearGradient id="paint63_linear_1425_4143" x1="1571.35" y1="605.381" x2="2628.69" y2="1691.97" gradientUnits="userSpaceOnUse">
<stop stop-color="#F9CA7B"/>
<stop offset="1" stop-color="#CA5F4B"/>
</linearGradient>
<linearGradient id="paint64_linear_1425_4143" x1="1610.45" y1="1076.72" x2="1619.74" y2="1173.89" gradientUnits="userSpaceOnUse">
<stop stop-color="#F9CA7B"/>
<stop offset="1" stop-color="#CA5F4B"/>
</linearGradient>
<linearGradient id="paint65_linear_1425_4143" x1="1844.62" y1="1313.38" x2="1901.21" y2="1110.62" gradientUnits="userSpaceOnUse">
<stop stop-color="#004E05"/>
<stop offset="0.45" stop-color="#4E7E06"/>
<stop offset="1" stop-color="#ACB807"/>
</linearGradient>
<linearGradient id="paint66_linear_1425_4143" x1="1083.09" y1="1425.98" x2="1017.46" y2="788.037" gradientUnits="userSpaceOnUse">
<stop stop-color="#006EC9"/>
<stop offset="0.12" stop-color="#2188D4"/>
<stop offset="0.33" stop-color="#55B2E6"/>
<stop offset="0.51" stop-color="#7BD0F3"/>
<stop offset="0.65" stop-color="#93E3FC"/>
<stop offset="0.74" stop-color="#9CEAFF"/>
</linearGradient>
<linearGradient id="paint67_linear_1425_4143" x1="1046.37" y1="778.671" x2="1157.2" y2="1802.08" gradientUnits="userSpaceOnUse">
<stop stop-color="#006EC9"/>
<stop offset="0.12" stop-color="#2188D4"/>
<stop offset="0.33" stop-color="#55B2E6"/>
<stop offset="0.51" stop-color="#7BD0F3"/>
<stop offset="0.65" stop-color="#93E3FC"/>
<stop offset="0.74" stop-color="#9CEAFF"/>
</linearGradient>
<linearGradient id="paint68_linear_1425_4143" x1="663.946" y1="993.216" x2="693.375" y2="1107.9" gradientUnits="userSpaceOnUse">
<stop stop-color="#FFCD41"/>
<stop offset="1" stop-color="#FB9069"/>
</linearGradient>
<linearGradient id="paint69_linear_1425_4143" x1="677.024" y1="971.003" x2="705.745" y2="1082.66" gradientUnits="userSpaceOnUse">
<stop stop-color="#FFCD41"/>
<stop offset="1" stop-color="#FB9069"/>
</linearGradient>
<linearGradient id="paint70_linear_1425_4143" x1="581.756" y1="998.142" x2="612.028" y2="1116.24" gradientUnits="userSpaceOnUse">
<stop stop-color="#FFCD41"/>
<stop offset="1" stop-color="#FB9069"/>
</linearGradient>
<linearGradient id="paint71_linear_1425_4143" x1="566.383" y1="986.458" x2="594.139" y2="1094.63" gradientUnits="userSpaceOnUse">
<stop stop-color="#FFCD41"/>
<stop offset="1" stop-color="#FB9069"/>
</linearGradient>
<linearGradient id="paint72_linear_1425_4143" x1="517.313" y1="1009.97" x2="542.711" y2="1109.09" gradientUnits="userSpaceOnUse">
<stop stop-color="#FFCD41"/>
<stop offset="1" stop-color="#FB9069"/>
</linearGradient>
<linearGradient id="paint73_linear_1425_4143" x1="542.065" y1="1004.28" x2="565.786" y2="1096.89" gradientUnits="userSpaceOnUse">
<stop stop-color="#FFCD41"/>
<stop offset="1" stop-color="#FB9069"/>
</linearGradient>
<linearGradient id="paint74_linear_1425_4143" x1="548.928" y1="1002.83" x2="568.595" y2="1079.84" gradientUnits="userSpaceOnUse">
<stop stop-color="#FFCD41"/>
<stop offset="1" stop-color="#FB9069"/>
</linearGradient>
<linearGradient id="paint75_linear_1425_4143" x1="567.257" y1="998.585" x2="591.407" y2="1092.98" gradientUnits="userSpaceOnUse">
<stop stop-color="#FFCD41"/>
<stop offset="1" stop-color="#FB9069"/>
</linearGradient>
<linearGradient id="paint76_linear_1425_4143" x1="1236.19" y1="1287.54" x2="1134.13" y2="908.766" gradientUnits="userSpaceOnUse">
<stop stop-color="#006EC9"/>
<stop offset="0.12" stop-color="#2188D4"/>
<stop offset="0.33" stop-color="#55B2E6"/>
<stop offset="0.51" stop-color="#7BD0F3"/>
<stop offset="0.65" stop-color="#93E3FC"/>
<stop offset="0.74" stop-color="#9CEAFF"/>
</linearGradient>
<linearGradient id="paint77_linear_1425_4143" x1="187.025" y1="1332.67" x2="146.806" y2="936.308" gradientUnits="userSpaceOnUse">
<stop stop-color="#006EC9"/>
<stop offset="0.12" stop-color="#2188D4"/>
<stop offset="0.33" stop-color="#55B2E6"/>
<stop offset="0.51" stop-color="#7BD0F3"/>
<stop offset="0.65" stop-color="#93E3FC"/>
<stop offset="0.74" stop-color="#9CEAFF"/>
</linearGradient>
<linearGradient id="paint78_linear_1425_4143" x1="331.44" y1="1336.43" x2="291.111" y2="940.097" gradientUnits="userSpaceOnUse">
<stop stop-color="#006EC9"/>
<stop offset="0.12" stop-color="#2188D4"/>
<stop offset="0.33" stop-color="#55B2E6"/>
<stop offset="0.51" stop-color="#7BD0F3"/>
<stop offset="0.65" stop-color="#93E3FC"/>
<stop offset="0.74" stop-color="#9CEAFF"/>
</linearGradient>
<linearGradient id="paint79_linear_1425_4143" x1="1205.87" y1="950.684" x2="1350.48" y2="950.684" gradientUnits="userSpaceOnUse">
<stop stop-color="#004E05"/>
<stop offset="0.45" stop-color="#4E7E06"/>
<stop offset="1" stop-color="#ACB807"/>
</linearGradient>
<linearGradient id="paint80_linear_1425_4143" x1="1842.53" y1="1071.4" x2="1757.8" y2="903.049" gradientUnits="userSpaceOnUse">
<stop stop-color="#3E4E19"/>
<stop offset="1" stop-color="#B8B700"/>
</linearGradient>
<linearGradient id="paint81_linear_1425_4143" x1="1871.7" y1="1056.74" x2="1786.97" y2="888.394" gradientUnits="userSpaceOnUse">
<stop stop-color="#3E4E19"/>
<stop offset="1" stop-color="#B8B700"/>
</linearGradient>
<linearGradient id="paint82_linear_1425_4143" x1="2511.56" y1="1610.23" x2="2651.79" y2="429.499" gradientUnits="userSpaceOnUse">
<stop stop-color="#3E4E19"/>
<stop offset="1" stop-color="#B8B700"/>
</linearGradient>
<linearGradient id="paint83_linear_1425_4143" x1="2757.04" y1="684.654" x2="-3257.08" y2="9225.03" gradientUnits="userSpaceOnUse">
<stop stop-color="#004E05"/>
<stop offset="0.45" stop-color="#4E7E06"/>
<stop offset="1" stop-color="#ACB807"/>
</linearGradient>
<linearGradient id="paint84_linear_1425_4143" x1="2061.24" y1="1185.91" x2="1556.96" y2="451.748" gradientUnits="userSpaceOnUse">
<stop stop-color="#3E4E19"/>
<stop offset="1" stop-color="#B8B700"/>
</linearGradient>
<linearGradient id="paint85_linear_1425_4143" x1="1976.67" y1="759.663" x2="2011.59" y2="1058.78" gradientUnits="userSpaceOnUse">
<stop stop-color="#004E05"/>
<stop offset="0.45" stop-color="#4E7E06"/>
<stop offset="1" stop-color="#ACB807"/>
</linearGradient>
<linearGradient id="paint86_linear_1425_4143" x1="2021.79" y1="759.632" x2="2027.51" y2="1058.71" gradientUnits="userSpaceOnUse">
<stop stop-color="#004E05"/>
<stop offset="0.45" stop-color="#4E7E06"/>
<stop offset="1" stop-color="#ACB807"/>
</linearGradient>
<clipPath id="clip0_1425_4143">
<rect width="2318" height="1088" fill="white" transform="translate(10 10)"/>
</clipPath>
</defs>
</svg>
