<svg width="2182" height="1024" viewBox="0 0 2182 1024" fill="none" xmlns="http://www.w3.org/2000/svg">
<path d="M1213.21 205.697C1226.66 275.738 1116.36 295.28 1104.95 224.854C1091.5 154.813 1201.79 135.271 1213.21 205.697Z" fill="#FFFFD2"/>
<path style="mix-blend-mode:screen" opacity="0.44" d="M1130.09 235.063L-394.947 -95.7129L-437 191.589L1150.4 231.989L-345.978 1017.98L244.24 1039.22L1150.4 231.989L1231.05 1315.77L1265.85 1304.57L1150.4 231.989L1425.77 1296.22L1609.63 1284.26L1149.52 240.607L1130.09 235.063Z" fill="url(#paint0_linear_1483_2248)"/>
<path style="mix-blend-mode:screen" opacity="0.63" d="M1179.06 243.881L1693.3 1146.68L1800.73 1061.76L1167.53 226.865L2567.23 226.7L2857.92 96.6075L1167.53 226.865L2112.29 -310.632L2087.25 -337.254L1167.53 226.865L2011.16 -478.161L1921.57 -639.103L1175.76 223.901L1179.06 243.881Z" fill="url(#paint1_linear_1483_2248)"/>
<defs>
<linearGradient id="paint0_linear_1483_2248" x1="1086.88" y1="25.2678" x2="433.58" y2="800.642" gradientUnits="userSpaceOnUse">
<stop stop-color="#FDA119"/>
<stop offset="0.21" stop-color="#B57311"/>
<stop offset="0.42" stop-color="#754A0B"/>
<stop offset="0.61" stop-color="#422A06"/>
<stop offset="0.78" stop-color="#1E1303"/>
<stop offset="0.91" stop-color="#080500"/>
<stop offset="1"/>
</linearGradient>
<linearGradient id="paint1_linear_1483_2248" x1="1157.67" y1="210.113" x2="1685.14" y2="245.637" gradientUnits="userSpaceOnUse">
<stop stop-color="#FDA119"/>
<stop offset="0.21" stop-color="#B57311"/>
<stop offset="0.42" stop-color="#754A0B"/>
<stop offset="0.61" stop-color="#422A06"/>
<stop offset="0.78" stop-color="#1E1303"/>
<stop offset="0.91" stop-color="#080500"/>
<stop offset="1"/>
</linearGradient>
</defs>
</svg>
